<svg xmlns="http://www.w3.org/2000/svg" viewBox="0 0 24 25"><path fill-rule="evenodd" d="M12 15.125a1 1 0 0 1-1-1V8.5a1 1 0 1 1 2 0v5.625a1 1 0 0 1-1 1z" clip-rule="evenodd"/><path d="M13 17.5a1 1 0 1 1-2 0 1 1 0 0 1 2 0z"/><path fill-rule="evenodd" d="M23.084 17.977c1.179 2-.263 4.523-2.584 4.523h-17c-2.32 0-3.763-2.524-2.584-4.523L9.932 2.68a2.4 2.4 0 0 1 4.136 0l9.016 15.296zM20.5 20.5a1 1 0 0 0 .861-1.508L12.345 3.697a.4.4 0 0 0-.69 0L2.64 18.992a1 1 0 0 0 .862 1.508H20.5z" clip-rule="evenodd"/></svg>