<svg xmlns="http://www.w3.org/2000/svg" viewBox="0 0 24 24"><g clip-path="url(#clip0_2830_7707)"><path fill-rule="evenodd" d="M18.43 3.935a4.625 4.625 0 0 0-6.54 0l-6.342 6.341a1 1 0 0 1-1.414-1.414l6.341-6.341a6.625 6.625 0 0 1 9.37 9.369l-8.531 8.53a4.75 4.75 0 1 1-6.718-6.717l.004-.004 6.44-6.37.003-.003c1.098-1.096 2.882-1.179 4.029-.032a2.875 2.875 0 0 1 0 4.065l-4.508 4.508a1 1 0 0 1-1.414-1.414l4.507-4.508a.875.875 0 0 0 0-1.237c-.317-.318-.836-.332-1.202.034l-.004.004-6.44 6.371-.002.002a2.75 2.75 0 0 0 3.89 3.887l8.531-8.53a4.625 4.625 0 0 0 0-6.541z" clip-rule="evenodd"/></g><defs><clipPath id="clip0_2830_7707"><path d="M0 0h24v24H0z"/></clipPath></defs></svg>