<svg xmlns="http://www.w3.org/2000/svg" viewBox="0 0 24 25"><g fill-rule="evenodd" clip-rule="evenodd"><path d="M9.052 17.5h5.892l.262.6a3.5 3.5 0 1 1-6.417 0l.263-.6zm1.446 2a1.5 1.5 0 0 0 3 0h-3z"/><path d="M12 4.5c-2.945 0-5.5 2.865-5.5 6v3.333A4.333 4.333 0 0 1 4.767 17.3a.146.146 0 0 0-.035.034.061.061 0 0 0-.009.019.126.126 0 0 0 .005.071c.01.032.027.051.04.06a.06.06 0 0 0 .017.01.148.148 0 0 0 .048.006h14.334a.148.148 0 0 0 .048-.006.06.06 0 0 0 .018-.01.127.127 0 0 0 .04-.06.126.126 0 0 0 .004-.071.062.062 0 0 0-.009-.019.148.148 0 0 0-.035-.034 4.333 4.333 0 0 1-1.733-3.467V10.5c0-3.135-2.555-6-5.5-6zm-7.5 6c0-4.045 3.265-8 7.5-8 4.235 0 7.5 3.955 7.5 8v3.333c0 .735.346 1.426.933 1.867 1.623 1.217.763 3.8-1.266 3.8H4.833c-2.028 0-2.89-2.583-1.266-3.8.587-.44.933-1.132.933-1.867V10.5z"/></g></svg>