<svg xmlns="http://www.w3.org/2000/svg" viewBox="0 0 24 24"><path fill-rule="evenodd" d="M3.142 3.008A7.513 7.513 0 0 0 2.654 3H1a1 1 0 1 1 0-2h1.683c.214 0 .427 0 .609.014.203.015.438.05.682.16a2 2 0 0 1 .845.71c.149.222.224.448.274.645.045.177.081.386.118.598l.005.028.238 1.37 13.014.385c.51.015.95.028 1.314.068.383.042.764.122 1.129.316a3 3 0 0 1 1.277 1.316c.184.37.252.753.283 1.138.029.364.029.805.029 1.315v.074c0 .48 0 .895-.027 1.24-.028.366-.091.729-.259 1.085a3 3 0 0 1-1.18 1.3c-.339.202-.694.3-1.056.363-.34.06-.755.1-1.232.146l-9.734.942c-.489.048-.913.089-1.266.095-.375.006-.75-.023-1.128-.161a3 3 0 0 1-1.406-1.071c-.233-.327-.361-.682-.454-1.045a17.052 17.052 0 0 1-.245-1.246L3.245 3.497a7.518 7.518 0 0 0-.094-.488l-.01-.001zm2.662 3.528l.673 3.87c.092.53.152.872.218 1.128.063.245.113.334.144.378a1 1 0 0 0 .469.357c.051.02.15.043.403.04.265-.006.61-.038 1.145-.09l9.662-.935a15.7 15.7 0 0 0 1.114-.129c.242-.042.333-.084.38-.111.17-.102.308-.253.393-.434.023-.048.055-.143.074-.388.02-.258.021-.596.021-1.121 0-.559 0-.919-.023-1.193-.02-.263-.057-.361-.08-.41a1 1 0 0 0-.427-.439c-.048-.026-.145-.064-.407-.093a16.74 16.74 0 0 0-1.192-.058L5.804 6.536zM8.5 17.5a1 1 0 1 0 0 2 1 1 0 0 0 0-2zm-3 1a3 3 0 1 1 6 0 3 3 0 0 1-6 0zm12.5-1a1 1 0 1 0 0 2 1 1 0 0 0 0-2zm-3 1a3 3 0 1 1 6 0 3 3 0 0 1-6 0z" clip-rule="evenodd"/></svg>