<svg xmlns="http://www.w3.org/2000/svg" viewBox="0 0 24 24"><path d="M12 23c6.065 0 11-4.934 11-11 0-1.047-.146-2.079-.436-3.067a.916.916 0 1 0-1.759.515c.24.82.362 1.68.362 2.552 0 5.054-4.113 9.167-9.167 9.167-5.054 0-9.167-4.113-9.167-9.167 0-5.054 4.113-9.167 9.167-9.167a9.1 9.1 0 0 1 5.11 1.553.917.917 0 0 0 1.026-1.52A10.932 10.932 0 0 0 12 1C5.935 1 1 5.934 1 12s4.935 11 11 11z"/><path d="M22.293 2.293L12 12.585 8.707 9.293a1 1 0 0 0-1.414 1.414l4 4a.995.995 0 0 0 1.414 0l11-11a1 1 0 0 0-1.414-1.414z"/></svg>