<svg xmlns="http://www.w3.org/2000/svg" viewBox="0 0 24 24"><path fill-rule="evenodd" d="M8.218 18.959a1 1 0 0 0 1.241-.677l.727-2.468a8.97 8.97 0 0 0 3.629 0l.726 2.468a1 1 0 0 0 1.918-.564l-.738-2.51a11.514 11.514 0 0 0 2.843-1.795l1.697 1.862a1 1 0 0 0 1.478-1.347l-1.743-1.913a18.098 18.098 0 0 0 1.852-2.485 1 1 0 0 0-1.696-1.06c-.695 1.112-1.444 2.05-2.224 2.817-1.197 1.177-2.465 1.953-3.735 2.362a7.04 7.04 0 0 1-4.386 0c-1.27-.409-2.538-1.185-3.735-2.362-.78-.768-1.529-1.705-2.224-2.817a1 1 0 1 0-1.696 1.06 18.103 18.103 0 0 0 1.853 2.485L2.26 13.927a1 1 0 0 0 1.478 1.348l1.697-1.862a11.533 11.533 0 0 0 2.844 1.794l-.74 2.51a1 1 0 0 0 .678 1.242z" clip-rule="evenodd"/></svg>