<svg xmlns="http://www.w3.org/2000/svg" viewBox="0 0 24 24"><path fill-rule="evenodd" d="M9.849 20.75c.14 0 .269-.074.34-.195l.005-.01 4.586-7.436V3.25H6.195a.393.393 0 0 0-.384.308l-.003.015-2.55 9.96a.393.393 0 0 0 .386.467H7.53c.65 0 1.31.218 1.79.686.504.492.737 1.197.587 1.956l-.718 3.639a.393.393 0 0 0 .385.469h.274zm6.931-17.5v9.143h3.544a.393.393 0 0 0 .393-.39l.064-8.357a.393.393 0 0 0-.393-.396H16.78zm-.441 11.143l-4.43 7.182a2.393 2.393 0 0 1-2.06 1.175h-.274a2.393 2.393 0 0 1-2.348-2.857l.72-3.638a.209.209 0 0 0 .002-.1.087.087 0 0 0-.026-.038c-.041-.04-.166-.117-.392-.117H3.644a2.393 2.393 0 0 1-2.336-2.912l.003-.016 2.552-9.966A2.393 2.393 0 0 1 6.195 1.25h14.193a2.393 2.393 0 0 1 2.392 2.411l-.063 8.357a2.393 2.393 0 0 1-2.393 2.375h-3.985z" clip-rule="evenodd"/></svg>