<svg xmlns="http://www.w3.org/2000/svg" viewBox="0 0 24 24"><path d="M19.439 5.324l-.14-.153A9.974 9.974 0 0 0 12 2a9.957 9.957 0 0 0-3.27.55l-.103.036a10.033 10.033 0 0 0-6.484 7.73l-.003.01-.005.034a9.953 9.953 0 0 0 2.101 7.936l.117.14a9.982 9.982 0 0 0 11.033 2.973 10.035 10.035 0 0 0 6.439-7.543l.005-.025c.111-.597.17-1.212.17-1.841a9.96 9.96 0 0 0-2.561-6.676zM12 4c2.057 0 3.934.78 5.353 2.06-.993 1.361-2.383 2.256-3.904 2.834a27.325 27.325 0 0 0-.75-1.608 23.63 23.63 0 0 0-1.934-3.19A8.03 8.03 0 0 1 12 4zm-3.284.706c.596.745 1.728 2.328 2.796 4.752-2.805.601-5.682.402-7.17.225a8.04 8.04 0 0 1 4.374-4.977zM4 12c0-.114.003-.227.008-.34a27.3 27.3 0 0 0 3.356.209c.668 0 1.38-.026 2.118-.09a19.28 19.28 0 0 0 2.778-.438c.19.537.374 1.105.546 1.704-.9.262-1.831.59-2.79.983a34.683 34.683 0 0 0-4.697 2.367A7.953 7.953 0 0 1 4 12zm8 8a7.968 7.968 0 0 1-5.356-2.063c1.334-.784 3.84-2.12 6.652-2.947a33.24 33.24 0 0 1 .67 4.765A7.956 7.956 0 0 1 12 20zm3.912-1.024a34.998 34.998 0 0 0-.675-4.456c1.472-.274 2.973-.356 4.39-.107a8.04 8.04 0 0 1-3.715 4.563zm4.075-6.531c-1.587-.283-3.338-.24-5.239.128a31.44 31.44 0 0 0-.576-1.817c1.877-.718 3.396-1.776 4.51-3.148a7.952 7.952 0 0 1 1.305 4.837z"/></svg>