<svg xmlns="http://www.w3.org/2000/svg" viewBox="0 0 24 24"><g fill-rule="evenodd" clip-rule="evenodd"><path d="M20.75 17.75V9a1 1 0 1 1 2 0v8.75a5 5 0 0 1-5 5H6.25a5 5 0 0 1-5-5V9a1 1 0 1 1 2 0v8.75a3 3 0 0 0 3 3h11.5a3 3 0 0 0 3-3z"/><path d="M1.443 9.214a1 1 0 0 0 1.397.218l8.57-6.263a1 1 0 0 1 1.18 0l8.57 6.263a1 1 0 1 0 1.18-1.615l-8.57-6.263a3 3 0 0 0-3.54 0L1.66 7.817a1 1 0 0 0-.217 1.397z"/><path d="M1.428 8.055a1 1 0 0 1 1.391-.253l7.473 5.174a3 3 0 0 0 3.416 0l7.473-5.174a1 1 0 0 1 1.138 1.645l-7.473 5.173a5 5 0 0 1-5.692 0L1.68 9.447a1 1 0 0 1-.253-1.392z"/></g></svg>