<svg xmlns="http://www.w3.org/2000/svg" viewBox="0 0 24 24"><g fill-rule="evenodd" clip-rule="evenodd"><path d="M18.765 19.76v-3.952a.974.974 0 1 1 1.948 0v3.952a4.24 4.24 0 0 1-4.24 4.24H4.24A4.24 4.24 0 0 1 0 19.76V7.526a4.24 4.24 0 0 1 4.24-4.24h3.952a.974.974 0 0 1 0 1.948H4.24a2.292 2.292 0 0 0-2.29 2.292V19.76a2.292 2.292 0 0 0 2.291 2.292h12.234a2.292 2.292 0 0 0 2.291-2.292z"/><path d="M20.43 3.57c.38.381.38.998 0 1.378L9.604 15.775a.974.974 0 1 1-1.378-1.378L19.052 3.571a.974.974 0 0 1 1.378 0z"/><path d="M19.742 3.296a.974.974 0 0 1 .973.974v5.763a.974.974 0 1 1-1.948 0v-4.79l-4.802-.01a.974.974 0 0 1 .004-1.948l5.773.01z"/></g></svg>