<svg xmlns="http://www.w3.org/2000/svg" viewBox="0 0 24 24"><g fill-rule="evenodd" clip-rule="evenodd"><path d="M4.337 18.666a4.334 4.334 0 0 1 4.332-4.333h4.332v4.333a4.334 4.334 0 0 1-4.332 4.333 4.334 4.334 0 0 1-4.332-4.333zm4.332-2.333a2.334 2.334 0 0 0 0 4.666 2.334 2.334 0 0 0 2.332-2.333v-2.333H8.67z"/><path d="M8.67 9.666a2.334 2.334 0 0 0 0 4.667H11V9.666H8.67zM4.336 12a4.334 4.334 0 0 1 4.332-4.334H13v8.667H8.67A4.334 4.334 0 0 1 4.337 12z"/><path d="M8.67 3a2.334 2.334 0 0 0 0 4.666H11V3H8.67zM4.336 5.333A4.334 4.334 0 0 1 8.669 1h4.332v8.666H8.67a4.334 4.334 0 0 1-4.332-4.333z"/><path d="M11.002 1h4.332a4.334 4.334 0 0 1 0 8.666h-4.333L11.002 1zm2 2v4.666h2.332a2.334 2.334 0 0 0 0-4.666h-2.332z"/><path d="M15.334 9.666a2.334 2.334 0 0 0 0 4.667 2.334 2.334 0 0 0 0-4.667zM11.002 12a4.334 4.334 0 0 1 4.332-4.334 4.334 4.334 0 0 1 0 8.667A4.334 4.334 0 0 1 11.002 12z"/></g></svg>