<svg xmlns="http://www.w3.org/2000/svg" viewBox="0 0 24 24"><g fill-rule="evenodd" clip-rule="evenodd"><path d="M17.5 9.5a1 1 0 0 1 1 1v11.25a1 1 0 1 1-2 0V10.5a1 1 0 0 1 1-1zm0-8.25a1 1 0 0 1 1 1v3a1 1 0 1 1-2 0v-3a1 1 0 0 1 1-1z"/><path d="M12 7.25a3 3 0 0 1 3-3h5a3 3 0 0 1 3 3V8.5a3 3 0 0 1-3 3h-5a3 3 0 0 1-3-3V7.25zm3-1a1 1 0 0 0-1 1V8.5a1 1 0 0 0 1 1h5a1 1 0 0 0 1-1V7.25a1 1 0 0 0-1-1h-5zm-8.5 11.5a1 1 0 0 1 1 1v3a1 1 0 1 1-2 0v-3a1 1 0 0 1 1-1zm0-16.5a1 1 0 0 1 1 1V13.5a1 1 0 1 1-2 0V2.25a1 1 0 0 1 1-1z"/><path d="M1 15.5a3 3 0 0 1 3-3h5a3 3 0 0 1 3 3v1.25a3 3 0 0 1-3 3H4a3 3 0 0 1-3-3V15.5zm3-1a1 1 0 0 0-1 1v1.25a1 1 0 0 0 1 1h5a1 1 0 0 0 1-1V15.5a1 1 0 0 0-1-1H4z"/></g></svg>