<svg xmlns="http://www.w3.org/2000/svg" viewBox="0 0 24 24"><path d="M12.211 10.502h9.876c.108.608.163 1.19.163 1.743 0 1.97-.413 3.73-1.24 5.279a8.95 8.95 0 0 1-3.534 3.63c-1.53.871-3.285 1.307-5.265 1.307-1.426 0-2.783-.274-4.073-.824-1.29-.55-2.402-1.291-3.337-2.227a10.46 10.46 0 0 1-2.227-3.337A10.283 10.283 0 0 1 1.75 12c0-1.425.275-2.783.824-4.073.55-1.289 1.292-2.401 2.227-3.337.935-.935 2.048-1.677 3.337-2.227 1.29-.55 2.647-.824 4.073-.824 2.724 0 5.063.913 7.015 2.738L16.38 7.015c-1.117-1.08-2.506-1.621-4.168-1.621a6.25 6.25 0 0 0-3.249.885A6.524 6.524 0 0 0 6.6 8.683 6.547 6.547 0 0 0 5.727 12c0 1.199.291 2.305.872 3.317a6.524 6.524 0 0 0 2.363 2.404 6.25 6.25 0 0 0 3.25.886c.79 0 1.516-.11 2.178-.327.663-.218 1.208-.49 1.635-.818.427-.327.8-.699 1.117-1.117a5.2 5.2 0 0 0 .701-1.185c.15-.372.253-.726.307-1.062h-5.939v-3.596z"/></svg>