<svg xmlns="http://www.w3.org/2000/svg" viewBox="0 0 24 24"><path fill-rule="evenodd" d="M1 3.5A2.5 2.5 0 0 1 3.5 1h5A2.5 2.5 0 0 1 11 3.5v5A2.5 2.5 0 0 1 8.5 11h-5A2.5 2.5 0 0 1 1 8.5v-5zM3.5 3a.5.5 0 0 0-.5.5v5a.5.5 0 0 0 .5.5h5a.5.5 0 0 0 .5-.5v-5a.5.5 0 0 0-.5-.5h-5zM1 15.5A2.5 2.5 0 0 1 3.5 13h5a2.5 2.5 0 0 1 2.5 2.5v5A2.5 2.5 0 0 1 8.5 23h-5A2.5 2.5 0 0 1 1 20.5v-5zm2.5-.5a.5.5 0 0 0-.5.5v5a.5.5 0 0 0 .5.5h5a.5.5 0 0 0 .5-.5v-5a.5.5 0 0 0-.5-.5h-5zM13 3.5A2.5 2.5 0 0 1 15.5 1h5A2.5 2.5 0 0 1 23 3.5v5a2.5 2.5 0 0 1-2.5 2.5h-5A2.5 2.5 0 0 1 13 8.5v-5zm2.5-.5a.5.5 0 0 0-.5.5v5a.5.5 0 0 0 .5.5h5a.5.5 0 0 0 .5-.5v-5a.5.5 0 0 0-.5-.5h-5zM13 15.5a2.5 2.5 0 0 1 2.5-2.5h5a2.5 2.5 0 0 1 2.5 2.5v5a2.5 2.5 0 0 1-2.5 2.5h-5a2.5 2.5 0 0 1-2.5-2.5v-5zm2.5-.5a.5.5 0 0 0-.5.5v5a.5.5 0 0 0 .5.5h5a.5.5 0 0 0 .5-.5v-5a.5.5 0 0 0-.5-.5h-5z" clip-rule="evenodd"/></svg>