<svg xmlns="http://www.w3.org/2000/svg" viewBox="0 0 24 24"><path d="M23.598 5.511c-.273-.06-.534.13-.588.417l-.647 3.435c-.312-.146-.55-.399-.827-.7-.375-.41-.827-.894-1.56-1.08a4.615 4.615 0 0 0-1.363-3.066L16.946 2.87a4.754 4.754 0 0 0-3.565-1.363l-5.98.281a.5.5 0 0 0-.466.4 2.245 2.245 0 0 0 .372 1.758c.364.515.933.862 1.561.95l1.253.178c.214.03.383.168.45.371a.524.524 0 0 1-.134.551L7.307 9.09a5.605 5.605 0 0 1-.432-.428C6.4 8.144 5.81 7.5 4.671 7.5c-1.138 0-1.729.644-2.204 1.162-.278.303-.516.555-.83.702L.99 5.928c-.053-.287-.315-.477-.588-.417-.27.058-.446.338-.392.626l2.759 14.655c.186.99 1.01 1.708 1.96 1.708H19.27c.95 0 1.775-.719 1.961-1.708l2.76-14.655c.053-.288-.122-.568-.393-.626zM11.14 6.706c.42-.414.565-1.018.38-1.576a1.544 1.544 0 0 0-1.26-1.048l-1.252-.177a1.294 1.294 0 0 1-1.112-1.14l5.532-.26a3.769 3.769 0 0 1 2.815 1.075l1.667 1.648c.63.622.988 1.431 1.06 2.298-.901.121-1.415.677-1.835 1.136-.429.468-.768.838-1.464.838-.695 0-1.034-.37-1.463-.838-.474-.518-1.064-1.162-2.2-1.162-1.137 0-1.727.644-2.202 1.162-.428.468-.767.838-1.464.838-.009 0-.015-.003-.024-.004l2.822-2.79zm2.246 5.943a.499.499 0 0 0-.707-.004L8.942 16.34a.565.565 0 0 1-.791 0 .535.535 0 0 1-.008-.76l3.744-3.701a.5.5 0 1 0-.703-.711l-3.737 3.694-.013.013-.734.726a.565.565 0 0 1-.791 0 .535.535 0 0 1 0-.767l3.736-3.694a.5.5 0 0 0 .004-.707.49.49 0 0 0-.301-.139c.526-.232.887-.62 1.196-.956.428-.468.767-.838 1.463-.838.696 0 1.035.37 1.464.838.474.517 1.064 1.162 2.2 1.162 1.137 0 1.727-.645 2.201-1.162.334-.365.619-.663 1.055-.78a3.64 3.64 0 0 1-1.017 1.87l-5.978 5.912a.565.565 0 0 1-.792 0 .535.535 0 0 1 0-.767l2.242-2.217a.5.5 0 0 0 .004-.707zM7.46 10.343a2.51 2.51 0 0 0 1.486.082l-.005.004-2.99 2.955a.565.565 0 0 1-.79 0 .535.535 0 0 1 0-.767l2.3-2.274zm12.79 10.24c-.093.495-.505.917-.98.917H4.73c-.475 0-.888-.422-.98-.917L1.823 10.355c.618-.212 1.024-.63 1.38-1.017.43-.468.769-.838 1.467-.838.698 0 1.038.37 1.468.838.137.15.286.308.452.46l-2.133 2.108A1.53 1.53 0 0 0 4 13.001a1.552 1.552 0 0 0 .964 1.428 1.522 1.522 0 0 0-.216.788c0 .414.162.803.458 1.095.513.51 1.301.586 1.9.23a1.558 1.558 0 0 0 1.441.957c.398 0 .795-.149 1.098-.449l.469-.462a1.569 1.569 0 0 0 2.521.463l5.978-5.911a4.623 4.623 0 0 0 1.309-2.515c.338.144.591.4.877.713.355.387.76.804 1.378 1.017L20.25 20.582z"/></svg>