<svg xmlns="http://www.w3.org/2000/svg" viewBox="0 0 24 24"><g clip-path="url(#clip0_2830_7794)"><path d="M22.834 16.109l-8.642-5.4a.947.947 0 0 0-.502-.145h-.742v-.403a3.5 3.5 0 0 0 2.546-3.363A3.498 3.498 0 0 0 12 3.305a3.498 3.498 0 0 0-3.494 3.493.948.948 0 0 0 1.896 0A1.6 1.6 0 0 1 12 5.201a1.6 1.6 0 0 1 1.597 1.597A1.6 1.6 0 0 1 12 8.396a.948.948 0 0 0-.948.948v1.22h-.742a.948.948 0 0 0-.502.144l-8.642 5.4A2.468 2.468 0 0 0 0 18.214a2.485 2.485 0 0 0 2.482 2.482h19.036A2.485 2.485 0 0 0 24 18.213c0-.86-.436-1.648-1.166-2.104zm-1.316 2.69H2.482a.586.586 0 0 1-.31-1.082l8.41-5.257h2.836l8.41 5.257a.586.586 0 0 1-.31 1.082z"/></g><defs><clipPath id="clip0_2830_7794"><path d="M0 0h24v24H0z"/></clipPath></defs></svg>