<svg xmlns="http://www.w3.org/2000/svg" viewBox="0 0 24 24"><path fill-rule="evenodd" d="M12.784 4.17a3 3 0 0 0-1.568 0c-.535.145-1.053.525-2.531 1.674l-2.6 2.023c-.952.74-1.271 1-1.497 1.304a3 3 0 0 0-.477.976c-.102.365-.111.777-.111 1.982v6.62c0 .77.01.934.043 1.04a1 1 0 0 0 .667.667c.106.032.27.043 1.04.043h.625l.174-.001a1 1 0 0 0 .95-.95l.001-.174v-2.875a4.5 4.5 0 1 1 9 0v2.875l.001.174a1 1 0 0 0 .95.95l.174.001h.625c.77 0 .934-.01 1.04-.043a1 1 0 0 0 .667-.667c.032-.106.043-.27.043-1.04v-6.62c0-1.205-.009-1.617-.111-1.982a2.999 2.999 0 0 0-.477-.976c-.226-.305-.545-.564-1.497-1.304l-2.6-2.023c-1.478-1.15-1.996-1.529-2.531-1.673zm-2.09-1.93a5 5 0 0 1 2.613 0c.973.264 1.827.929 3.066 1.893l.17.133 2.6 2.022.107.083c.804.625 1.36 1.057 1.77 1.611.361.489.63 1.04.795 1.626.186.663.185 1.368.185 2.386v6.881c0 .571.001 1.064-.13 1.495a3 3 0 0 1-2 2c-.43.13-.923.13-1.494.13l-.126-.001h-.646c-.095 0-.177 0-.251-.004a3 3 0 0 1-2.85-2.849c-.003-.074-.003-.156-.003-.251v-2.896a2.5 2.5 0 1 0-5 0v2.896c0 .095 0 .177-.004.251a3 3 0 0 1-2.849 2.85c-.074.003-.156.003-.251.003h-.772c-.571 0-1.065.001-1.495-.13a3 3 0 0 1-2-2C2 19.94 2 19.447 2 18.876v-6.881c0-1.018 0-1.723.186-2.386a5 5 0 0 1 .795-1.626c.41-.554.966-.986 1.77-1.611l.107-.083 2.6-2.022.17-.133c1.239-.964 2.093-1.63 3.066-1.893z" clip-rule="evenodd"/></svg>