<svg xmlns="http://www.w3.org/2000/svg" viewBox="0 0 49 48"><g clip-path="url(#clip0_2830_8572)"><path d="M24.906 33.375a.938.938 0 1 0 .001 1.876.938.938 0 0 0 0-1.876z"/><path d="M46.094 18.375h-3.375V4.312A2.816 2.816 0 0 0 39.906 1.5H3.72A2.816 2.816 0 0 0 .906 4.313v22.5a2.816 2.816 0 0 0 2.813 2.812h3.375v14.063A2.816 2.816 0 0 0 9.906 46.5h36.188a2.815 2.815 0 0 0 2.812-2.813v-22.5a2.815 2.815 0 0 0-2.812-2.812zM2.78 9h38.063v3.75H2.78V9zm.938-5.625h36.187c.517 0 .938.42.938.938v2.812H2.78V4.312c0-.517.42-.937.938-.937zm0 24.375a.938.938 0 0 1-.938-.938V14.626h38.063v3.75H9.906a2.816 2.816 0 0 0-2.812 2.813v6.562H3.719zM47.03 43.688c0 .517-.42.937-.937.937H9.906a.938.938 0 0 1-.937-.938v-22.5c0-.517.42-.937.937-.937h36.188c.517 0 .937.42.937.938v22.5z"/><path d="M38.031 24a4.69 4.69 0 0 0-2.813.94 4.686 4.686 0 0 0-2.812-.94 4.693 4.693 0 0 0-4.687 4.688 4.693 4.693 0 0 0 4.687 4.687 4.685 4.685 0 0 0 2.812-.94 4.69 4.69 0 0 0 2.813.94 4.693 4.693 0 0 0 4.688-4.688A4.693 4.693 0 0 0 38.03 24zm-8.437 4.688a2.811 2.811 0 1 1 4.92-1.86h.001a2.804 2.804 0 0 1 0 3.72 2.811 2.811 0 0 1-4.921-1.86zM38.03 31.5a2.815 2.815 0 0 1-1.563-.475 4.68 4.68 0 0 0 0-4.675 2.815 2.815 0 0 1 1.563-.475 2.816 2.816 0 0 1 2.813 2.813A2.816 2.816 0 0 1 38.03 31.5zM17.406 39h-3.75a.937.937 0 1 0 0 1.875h3.75a.937.937 0 1 0 0-1.875zm7.5 0h-3.75a.937.937 0 1 0 0 1.875h3.75a.937.937 0 1 0 0-1.875zm7.5 0h-3.75a.937.937 0 1 0 0 1.875h3.75a.937.937 0 1 0 0-1.875zm7.5 0h-3.75a.937.937 0 1 0 0 1.875h3.75a.937.937 0 1 0 0-1.875zm-26.25-3.75h7.5a.937.937 0 1 0 0-1.875h-7.5a.937.937 0 1 0 0 1.875z"/></g><defs><clipPath id="clip0_2830_8572"><path d="M0 0h48v48H0z" transform="translate(.906)"/></clipPath></defs></svg>