<svg xmlns="http://www.w3.org/2000/svg" viewBox="0 0 48 48"><g clip-path="url(#clip0_2830_8571)"><path d="M23.944 27.281a.938.938 0 1 0-.001-1.876.938.938 0 0 0 0 1.876z"/><path d="M23.408 47.732a.936.936 0 0 0 1.09 0c9.552-6.823 19.143-9.817 19.143-23.856V6.496a.938.938 0 0 0-.86-.934l-2.437-.204C34.758 4.893 29.262 3.057 24.45.048a.938.938 0 0 0-.994 0c-4.812 3.009-10.308 4.845-15.894 5.31l-2.437.204a.937.937 0 0 0-.86.934v17.38c0 14.435 10.938 17.995 19.143 23.856zM6.141 7.358l1.577-.131c5.69-.475 11.29-2.298 16.235-5.283 4.944 2.985 10.545 4.808 16.235 5.283l1.578.131v16.518c0 12.66-8.435 15.375-17.814 21.946C15.72 40.108 6.14 36.865 6.14 23.876V7.358z"/><path d="M23.407 40.917a.93.93 0 0 0 1.093-.024c8.486-5.875 13.516-7.808 13.516-17.016V11.581a.938.938 0 0 0-.799-.927 41.307 41.307 0 0 1-12.834-4.15.954.954 0 0 0-.901.02 41.28 41.28 0 0 1-12.793 4.13.937.937 0 0 0-.798.927v12.296c0 9.295 5.508 11.576 13.516 17.04zM11.766 12.38a43.11 43.11 0 0 0 11.24-3.532v13.746a.937.937 0 1 0 1.875 0V8.84a43.16 43.16 0 0 0 11.26 3.54v11.497c0 7.621-3.57 9.283-11.26 14.483v-8.266a.937.937 0 1 0-1.875 0v8.293c-7.185-4.782-11.24-6.826-11.24-14.51V12.38z"/></g><defs><clipPath id="clip0_2830_8571"><path d="M0 0h47.906v48H0z"/></clipPath></defs></svg>