<svg xmlns="http://www.w3.org/2000/svg" viewBox="0 0 24 24"><path fill-rule="evenodd" d="M14.182 3.25a.393.393 0 0 0-.34.195l-.006.01-4.586 7.436v9.859h8.586a.393.393 0 0 0 .383-.308l.004-.015 2.55-9.96a.393.393 0 0 0-.386-.467H16.5c-.651 0-1.31-.218-1.79-.686-.504-.492-.738-1.197-.588-1.956l.719-3.639a.393.393 0 0 0-.385-.469h-.274zM7.25 20.75v-9.143H3.707a.393.393 0 0 0-.393.39l-.064 8.357a.393.393 0 0 0 .393.396H7.25zm.442-11.143l4.43-7.182a2.393 2.393 0 0 1 2.06-1.175h.274a2.393 2.393 0 0 1 2.347 2.857l-.719 3.638a.208.208 0 0 0-.002.1c.002.008.007.02.025.038.042.04.166.117.393.117h3.887a2.393 2.393 0 0 1 2.336 2.912l-.004.016-2.551 9.966a2.393 2.393 0 0 1-2.332 1.856H3.643a2.393 2.393 0 0 1-2.393-2.411l.064-8.357a2.393 2.393 0 0 1 2.393-2.375h3.985z" clip-rule="evenodd"/></svg>