<svg xmlns="http://www.w3.org/2000/svg" viewBox="0 0 24 24"><g clip-path="url(#clip0_2828_7752)"><path d="M23.797 21.098l-2.28-1.685-4.679-9.368 6.959-5.143a.5.5 0 1 0-.594-.804l-6.818 5.04-3.938-7.884c-.17-.339-.724-.339-.894 0L7.615 9.138.797 4.098a.5.5 0 1 0-.594.804l6.959 5.143-4.68 9.368-2.279 1.685a.5.5 0 1 0 .594.803l.702-.518-.446.892A.502.502 0 0 0 1.5 23h21a.502.502 0 0 0 .447-.725l-.446-.892.702.518a.501.501 0 0 0 .7-.104.5.5 0 0 0-.106-.7zM19.742 18.1L12.84 13l3.177-2.348 3.725 7.449zM12 2.618l3.563 7.127L12 12.379 8.437 9.745 12 2.618zm-4.017 8.034L11.159 13l-6.9 5.1 3.724-7.448zM2.309 22l.964-1.928L12 13.622l8.727 6.45.964 1.928H2.31z"/></g><defs><clipPath id="clip0_2828_7752"><path d="M0 0h24v24H0z"/></clipPath></defs></svg>