<svg xmlns="http://www.w3.org/2000/svg" viewBox="0 0 24 24"><g clip-path="url(#clip0_2828_7736)"><path d="M20.818 3.889L23.853.854a.5.5 0 1 0-.707-.708l-3.035 3.036C17.972 1.213 15.129 0 12 0 8.87 0 6.027 1.213 3.889 3.182L.853.146a.5.5 0 1 0-.707.708l3.036 3.035A11.937 11.937 0 0 0 0 12c0 3.129 1.213 5.973 3.182 8.111L.146 23.146a.5.5 0 1 0 .707.707l3.036-3.035C6.027 22.787 8.87 24 11.999 24c3.13 0 5.973-1.213 8.112-3.182l3.035 3.035a.498.498 0 0 0 .707 0 .5.5 0 0 0 0-.707l-3.035-3.035C22.786 17.973 24 15.129 24 12c0-3.129-1.214-5.973-3.182-8.111zM12 1c2.853 0 5.447 1.101 7.404 2.889L12 11.293 4.596 3.889A10.944 10.944 0 0 1 12 1zM3.889 19.404A10.944 10.944 0 0 1 .999 12c0-2.853 1.102-5.447 2.89-7.404L11.293 12l-7.404 7.404zM11.999 23a10.944 10.944 0 0 1-7.403-2.889L12 12.707l7.404 7.404A10.944 10.944 0 0 1 12 23zm8.112-3.596L12.707 12l7.404-7.404A10.945 10.945 0 0 1 23 12c0 2.853-1.101 5.447-2.889 7.404z"/></g><defs><clipPath id="clip0_2828_7736"><path d="M0 0h24v24H0z"/></clipPath></defs></svg>