<svg xmlns="http://www.w3.org/2000/svg" viewBox="0 0 24 24"><path d="M23.996 18.434L22.169 4.735A2.006 2.006 0 0 0 20.186 3H8.5a.5.5 0 1 0 0 1h11.686c.5 0 .926.373.991.868L21.862 10h-3.809l2.75-2.103a.5.5 0 1 0-.607-.794L16.408 10H8.5c-.288 0-.572.015-.852.043l-3.844-2.94a.5.5 0 0 0-.608.794l3.132 2.395C2.692 11.255 0 14.565 0 18.5a.5.5 0 0 0 .5.5h4.139l-1.443 1.103a.5.5 0 1 0 .608.794L6.284 19h11.431l2.481 1.897a.498.498 0 0 0 .701-.093.5.5 0 0 0-.093-.701L19.36 19h4.14a.499.499 0 0 0 .496-.566zM15.1 11L12 13.37 8.9 11h6.2zm-9.154 7h-4.93c.234-3.527 2.918-6.386 6.36-6.907L11.177 14l-5.23 4zm1.646 0L12 14.63 16.408 18H7.592zm10.461 0l-5.23-4 3.923-3h5.25l.933 7h-4.876z"/></svg>