<svg xmlns="http://www.w3.org/2000/svg" viewBox="0 0 24 24"><g clip-path="url(#clip0_2828_7741)"><path d="M23 22.293V1.707l.853-.853a.5.5 0 1 0-.707-.707L22.293 1H1.707L.853.146a.5.5 0 1 0-.707.708L1 1.707v20.586l-.854.854a.5.5 0 1 0 .707.707L1.707 23h20.586l.853.854a.498.498 0 0 0 .707 0 .5.5 0 0 0 0-.707L23 22.293zM12 2h9.293l-2.596 2.596A9.948 9.948 0 0 0 12 2a9.949 9.949 0 0 0-6.698 2.596L2.707 2H12zm-.707 10l-5.99 5.99A8.953 8.953 0 0 1 3 12c0-2.302.876-4.397 2.302-5.99l5.99 5.99zM6.009 5.302A8.953 8.953 0 0 1 12 3c2.302 0 4.398.876 5.991 2.302L12 11.293l-5.99-5.99zM12 12.707l5.991 5.99A8.953 8.953 0 0 1 12 21a8.953 8.953 0 0 1-5.99-2.302L12 12.707zm.708-.707l5.99-5.99A8.953 8.953 0 0 1 21 12a8.953 8.953 0 0 1-2.303 5.99L12.707 12zM2 12V2.707l2.595 2.596A9.949 9.949 0 0 0 2 12a9.95 9.95 0 0 0 2.595 6.698L2 21.293V12zm10 10H2.707l2.595-2.596A9.949 9.949 0 0 0 12 22a9.949 9.949 0 0 0 6.697-2.596L21.293 22H12zm10-10v9.293l-2.596-2.595A9.949 9.949 0 0 0 22 12a9.948 9.948 0 0 0-2.596-6.697L22 2.707V12z"/></g><defs><clipPath id="clip0_2828_7741"><path d="M0 0h24v24H0z"/></clipPath></defs></svg>