<svg xmlns="http://www.w3.org/2000/svg" viewBox="0 0 24 24"><g clip-path="url(#clip0_2828_7712)"><path d="M23.293 9.045l-.211.096.908-4.542a.5.5 0 1 0-.98-.196l-.688 3.437c-.29-.15-.521-.389-.785-.677-.474-.518-1.065-1.162-2.202-1.162s-1.726.644-2.201 1.162c-.428.468-.767.838-1.462.838-.696 0-1.034-.37-1.463-.838-.474-.518-1.065-1.162-2.202-1.162-1.136 0-1.726.644-2.2 1.162-.43.468-.769.838-1.465.838-.697 0-1.037-.37-1.467-.838C6.401 6.645 5.81 6 4.671 6c-1.137 0-1.728.644-2.203 1.162-.265.289-.496.529-.79.678L.991 4.403a.5.5 0 1 0-.98.196l.908 4.542-.212-.096a.5.5 0 0 0-.414.91l.867.394 1.606 8.026-1.473.67a.5.5 0 0 0 .414.91l1.49-.677A2 2 0 0 0 4.73 20h14.54a2 2 0 0 0 1.533-.722l1.49.677a.5.5 0 0 0 .414-.91l-1.472-.67 1.605-8.026.867-.394a.5.5 0 0 0-.414-.91zM2.282 10.859l8.51 3.868L3.7 17.951l-1.418-7.092zm16.989 8.14H4.73c-.2 0-.38-.07-.54-.173l7.81-3.55 7.81 3.55a.982.982 0 0 1-.54.174zm1.03-1.048l-7.093-3.224 8.51-3.868-1.418 7.092zm1.66-8.3L12 14.178 2.04 9.65l-.163-.81c.59-.218.981-.626 1.327-1.002C3.635 7.37 3.975 7 4.67 7c.699 0 1.038.37 1.468.838C6.613 8.356 7.204 9 8.341 9c1.137 0 1.728-.645 2.202-1.163.429-.468.767-.837 1.463-.837.696 0 1.035.37 1.465.838.474.517 1.064 1.162 2.2 1.162 1.136 0 1.726-.645 2.2-1.162.429-.469.767-.838 1.463-.838.696 0 1.035.37 1.465.838.345.376.734.784 1.322 1.002l-.162.81z"/></g><defs><clipPath id="clip0_2828_7712"><path d="M0 0h24v24H0z"/></clipPath></defs></svg>