<svg xmlns="http://www.w3.org/2000/svg" viewBox="0 0 24 24"><path d="M10.586 23H7.455c-.202 0-.404 0-.607-.1-.202-.1-.404-.2-.505-.4-.1-.2-.303-.4-.303-.6a.846.846 0 0 1 0-.7l.101-.4h-2.02C3.011 20.8 2 19.8 2 18.7v-.1L4.121 3c.101-1.1 1.01-2 2.121-2h6.263c3.434 0 5.859 2 6.465 5C20.889 7.3 22 9.4 22 12c0 3.4-3.535 6-6.667 6h-2.12l-.506 3.2c-.1.5-.303 1-.707 1.3-.404.3-.91.5-1.414.5zM7.96 21h2.525l.1-.1.607-4.1c.1-.5.505-.8 1.01-.8h2.93c2.12 0 4.646-1.8 4.646-4 0-.8-.202-2.2-.91-3.3-.605 2.9-3.535 5.4-6.464 5.4h-2.93s-.1.1-.1.3L8.162 20l-.202 1zm-4.142-2.3l.101.1h2.424L7.556 14c.202-1.1 1.01-1.9 2.12-1.9h2.93c2.222 0 4.647-2.3 4.647-4.6 0-2.9-1.718-4.6-4.647-4.6H6.242l-.1.1v.1L3.817 18.7z"/></svg>