<svg xmlns="http://www.w3.org/2000/svg" viewBox="0 0 24 24"><path d="M12.301 1C6.228 1 3 4.865 3 9.078c0 1.953 1.1 4.39 2.86 5.163.502.225.436-.05.868-1.69a.388.388 0 0 0-.095-.382c-2.516-2.89-.49-8.832 5.31-8.832 8.393 0 6.825 11.533 1.46 11.533-1.383 0-2.413-1.078-2.088-2.411.396-1.59 1.17-3.297 1.17-4.442 0-2.886-4.33-2.457-4.33 1.366 0 1.182.42 1.98.42 1.98s-1.392 5.587-1.65 6.631c-.438 1.768.058 4.629.102 4.875.026.136.18.179.266.067.137-.179 1.82-2.564 2.293-4.288.171-.628.876-3.176.876-3.176.464.832 1.803 1.529 3.229 1.529C17.933 17 21 13.297 21 8.7 20.985 4.297 17.188 1 12.301 1z"/></svg>