<svg xmlns="http://www.w3.org/2000/svg" viewBox="0 0 24 24"><path fill-rule="evenodd" d="M18.375 3.25a2.375 2.375 0 1 0 0 4.75 2.375 2.375 0 0 0 0-4.75zM14 5.625a4.375 4.375 0 1 1 .711 2.392l-4.871 2.44a4.433 4.433 0 0 1-.045 2.487l5.33 2.503a4.375 4.375 0 1 1-.966 1.756L8.766 14.67a4.375 4.375 0 1 1 .113-5.97l5.149-2.58A4.413 4.413 0 0 1 14 5.626zM5.625 9.25a2.375 2.375 0 1 0 2.008 3.645c.46-.725.485-1.683.064-2.431A2.374 2.374 0 0 0 5.625 9.25zM18.375 16a2.374 2.374 0 1 0 0 4.75 2.375 2.375 0 1 0 0-4.75z" clip-rule="evenodd"/></svg>