<svg xmlns="http://www.w3.org/2000/svg" viewBox="0 0 24 24"><g fill-rule="evenodd" clip-rule="evenodd"><path d="M3 6.127C3 3.295 5.239 1 8 1h8c2.761 0 5 2.295 5 5.127v5.959c0 4.321-2.728 7.852-6.173 10.078a5.195 5.195 0 0 1-5.654 0C5.728 19.938 3 16.407 3 12.086V6.127zm5-3.076c-1.657 0-3 1.377-3 3.076v5.959c0 3.37 2.137 6.338 5.24 8.342a3.237 3.237 0 0 0 3.52 0c3.103-2.004 5.24-4.972 5.24-8.342V6.127c0-1.699-1.343-3.076-3-3.076H8z"/><path d="M15.64 8.232a1 1 0 0 1 .128 1.408l-3.75 4.5a1 1 0 0 1-1.42.118l-2.25-1.938a1 1 0 1 1 1.305-1.515l1.48 1.274 3.099-3.72a1 1 0 0 1 1.408-.127z"/></g></svg>