<svg xmlns="http://www.w3.org/2000/svg" viewBox="0 0 24 24"><path d="M22.345 14.322C23.937 7.17 17.671.674 10.313 1.922 6.32-.559 1 2.243 1 6.995c0 1.105.305 2.14.835 3.032-1.479 7.167 4.838 13.57 12.19 12.238 5.197 2.748 10.94-2.732 8.32-7.944zm-6.994 4.313c-1.93.793-5.107.798-7.03-.208-2.74-1.462-3.228-4.752-.863-4.752 1.782 0 1.218 2.078 3.017 2.925.826.382 2.602.421 3.634-.275 1.02-.682.926-1.755.372-2.268-1.468-1.355-5.669-.816-7.589-3.189-.834-1.03-.992-2.845.034-4.161 1.787-2.3 7.033-2.44 9.288-.704 2.083 1.612 1.52 3.75-.16 3.75-2.021 0-.959-2.644-4.221-2.644-2.366 0-3.296 1.682-1.63 2.501 2.258 1.122 8.012.747 8.012 5.13-.004 1.824-1.122 3.184-2.864 3.894z"/></svg>