<svg xmlns="http://www.w3.org/2000/svg" viewBox="0 0 24 24"><g fill-rule="evenodd" clip-rule="evenodd"><path d="M14.5 3A1.5 1.5 0 0 0 13 4.5V11h3V4.5A1.5 1.5 0 0 0 14.5 3zM18 6.338V4.5a3.5 3.5 0 1 0-7 0V12a1 1 0 0 0 1 1h7.5A3.5 3.5 0 1 0 18 6.338zM18 11h1.5A1.5 1.5 0 1 0 18 9.5V11z"/><path d="M11 12a1 1 0 0 1 1-1h7.5a3.5 3.5 0 0 1 0 7h-1.838A3.5 3.5 0 1 1 11 19.5V12zm2 1v3h6.5a1.5 1.5 0 1 0 0-3H13zm1.5 5H13v1.5a1.5 1.5 0 1 0 1.5-1.5z"/><path d="M4.5 13A1.5 1.5 0 1 0 6 14.5V13H4.5zm0-2A3.5 3.5 0 1 0 6 17.662V19.5a3.5 3.5 0 1 0 7 0V12a1 1 0 0 0-1-1H4.5zm6.5 2H8v6.5a1.5 1.5 0 0 0 3 0V13z"/><path d="M10.074 3.114A1.5 1.5 0 1 0 9.5 6H11V4.5a1.5 1.5 0 0 0-.926-1.386zM13 4.5A3.5 3.5 0 1 0 6.338 6H4.5a3.5 3.5 0 1 0 0 7H12a1 1 0 0 0 1-1V4.5zM11 11V8H4.5a1.5 1.5 0 0 0 0 3H11z"/></g></svg>