<svg xmlns="http://www.w3.org/2000/svg" viewBox="0 0 24 24"><path d="M9.106 12.599a2.311 2.311 0 0 0-2.311 2.31v5.782a2.311 2.311 0 0 0 4.622 0V14.91a2.313 2.313 0 0 0-2.311-2.311zm-8.089 2.31a2.313 2.313 0 0 0 4.626 0v-2.313H3.33a2.313 2.313 0 0 0-2.313 2.313zM9.109 1h-.003a2.313 2.313 0 0 0 0 4.626h2.311V3.308A2.31 2.31 0 0 0 9.11 1zM3.314 11.424h5.792a2.313 2.313 0 0 0 0-4.626H3.314a2.313 2.313 0 0 0 0 4.626zm17.355-4.626a2.308 2.308 0 0 0-2.309 2.308v2.317h2.312a2.313 2.313 0 0 0 0-4.625h-.003zm-8.082-3.485V9.11a2.311 2.311 0 0 0 4.622 0V3.313a2.311 2.311 0 0 0-4.622 0zm4.621 17.376a2.311 2.311 0 0 0-2.31-2.312h-2.312v2.313a2.311 2.311 0 0 0 4.622-.002zm3.482-8.093h-5.792a2.313 2.313 0 0 0 0 4.626h5.792a2.313 2.313 0 0 0 0-4.626z"/></svg>