<?xml version="1.0" encoding="utf-8"?>
<svg xmlns="http://www.w3.org/2000/svg">
<symbol id="alert-octagon" viewBox="0 0 24 25"><path fill-rule="evenodd" d="M6.004 2.467A3.3 3.3 0 0 1 8.337 1.5h7.326a3.3 3.3 0 0 1 2.333.967l4.037 4.037A3.3 3.3 0 0 1 23 8.837v7.326a3.3 3.3 0 0 1-.967 2.333l-4.037 4.038a3.3 3.3 0 0 1-2.333.966H8.337a3.3 3.3 0 0 1-2.333-.967l-4.037-4.037A3.3 3.3 0 0 1 1 16.163V8.837a3.3 3.3 0 0 1 .967-2.333l4.037-4.037zM8.337 3.5a1.3 1.3 0 0 0-.919.38L3.381 7.919a1.3 1.3 0 0 0-.381.92v7.325c0 .345.137.675.38.919l4.038 4.037a1.3 1.3 0 0 0 .92.381h7.325a1.3 1.3 0 0 0 .919-.38l4.037-4.038a1.3 1.3 0 0 0 .381-.92V8.838a1.3 1.3 0 0 0-.38-.919l-4.038-4.037a1.3 1.3 0 0 0-.92-.381H8.338z" clip-rule="evenodd"/><path d="M13 17a1 1 0 1 1-2 0 1 1 0 0 1 2 0z"/><path fill-rule="evenodd" d="M12 14.625a1 1 0 0 1-1-1V8a1 1 0 1 1 2 0v5.625a1 1 0 0 1-1 1z" clip-rule="evenodd"/>
</symbol>
<symbol id="alert" viewBox="0 0 24 25"><path fill-rule="evenodd" d="M12 15.125a1 1 0 0 1-1-1V8.5a1 1 0 1 1 2 0v5.625a1 1 0 0 1-1 1z" clip-rule="evenodd"/><path d="M13 17.5a1 1 0 1 1-2 0 1 1 0 0 1 2 0z"/><path fill-rule="evenodd" d="M23.084 17.977c1.179 2-.263 4.523-2.584 4.523h-17c-2.32 0-3.763-2.524-2.584-4.523L9.932 2.68a2.4 2.4 0 0 1 4.136 0l9.016 15.296zM20.5 20.5a1 1 0 0 0 .861-1.508L12.345 3.697a.4.4 0 0 0-.69 0L2.64 18.992a1 1 0 0 0 .862 1.508H20.5z" clip-rule="evenodd"/>
</symbol>
<symbol id="attach" viewBox="0 0 24 24"><g clip-path="url(#clip0_2830_7707)"><path fill-rule="evenodd" d="M18.43 3.935a4.625 4.625 0 0 0-6.54 0l-6.342 6.341a1 1 0 0 1-1.414-1.414l6.341-6.341a6.625 6.625 0 0 1 9.37 9.369l-8.531 8.53a4.75 4.75 0 1 1-6.718-6.717l.004-.004 6.44-6.37.003-.003c1.098-1.096 2.882-1.179 4.029-.032a2.875 2.875 0 0 1 0 4.065l-4.508 4.508a1 1 0 0 1-1.414-1.414l4.507-4.508a.875.875 0 0 0 0-1.237c-.317-.318-.836-.332-1.202.034l-.004.004-6.44 6.371-.002.002a2.75 2.75 0 0 0 3.89 3.887l8.531-8.53a4.625 4.625 0 0 0 0-6.541z" clip-rule="evenodd"/></g><defs><clipPath id="clip0_2830_7707"><path d="M0 0h24v24H0z"/></clipPath></defs>
</symbol>
<symbol id="back" viewBox="0 0 24 24"><path fill-rule="evenodd" d="M8.957 3.293a1 1 0 0 0-1.414 0l-5.25 5.25a1 1 0 0 0 0 1.414l5.25 5.25a1 1 0 0 0 1.414-1.414L5.414 10.25H15.75a4.25 4.25 0 0 1 0 8.5h-3a1 1 0 1 0 0 2h3a6.25 6.25 0 1 0 0-12.5H5.414l3.543-3.543a1 1 0 0 0 0-1.414z" clip-rule="evenodd"/>
</symbol>
<symbol id="bag" viewBox="0 0 24 24"><path fill-rule="evenodd" d="M6 3.25a2 2 0 0 0-2 2v13.5a2 2 0 0 0 2 2h12a2 2 0 0 0 2-2V5.25a2 2 0 0 0-2-2H6zm-4 2a4 4 0 0 1 4-4h12a4 4 0 0 1 4 4v13.5a4 4 0 0 1-4 4H6a4 4 0 0 1-4-4V5.25zM16.5 5a1 1 0 0 1 1 1v1.5a5.5 5.5 0 0 1-11 0V6a1 1 0 1 1 2 0v1.5a3.5 3.5 0 1 0 7 0V6a1 1 0 0 1 1-1z" clip-rule="evenodd"/>
</symbol>
<symbol id="behance" viewBox="0 0 24 24"><g clip-path="url(#clip0_2830_7746)"><path d="M12.365 15.144c0-1.972-.879-3.429-2.695-3.975 1.325-.673 2.016-1.693 2.016-3.279C11.686 4.763 9.494 4 6.964 4H0v15.703h7.16c2.684 0 5.205-1.369 5.205-4.56zM3.247 6.68h3.046c1.171 0 2.226.35 2.226 1.794 0 1.333-.82 1.87-1.98 1.87H3.246V6.68zm-.001 10.355v-4.324h3.538c1.43 0 2.334.633 2.334 2.242 0 1.586-1.08 2.082-2.4 2.082H3.245zM18.8 20c2.554 0 4.208-1.224 5.004-3.824h-2.592c-.28.97-1.43 1.484-2.322 1.484-1.721 0-2.625-1.072-2.625-2.894h7.714c.244-3.646-1.66-6.753-5.18-6.753-3.26 0-5.473 2.604-5.473 6.017 0 3.541 2.097 5.97 5.473 5.97zm-.093-9.628c1.476 0 2.218.922 2.342 2.429h-4.78c.097-1.495 1.03-2.429 2.438-2.429zM15.67 4.825h5.99v1.547h-5.99V4.825z"/></g><defs><clipPath id="clip0_2830_7746"><path d="M0 0h24v24H0z"/></clipPath></defs>
</symbol>
<symbol id="bell" viewBox="0 0 24 25"><g fill-rule="evenodd" clip-rule="evenodd"><path d="M9.052 17.5h5.892l.262.6a3.5 3.5 0 1 1-6.417 0l.263-.6zm1.446 2a1.5 1.5 0 0 0 3 0h-3z"/><path d="M12 4.5c-2.945 0-5.5 2.865-5.5 6v3.333A4.333 4.333 0 0 1 4.767 17.3a.146.146 0 0 0-.035.034.061.061 0 0 0-.009.019.126.126 0 0 0 .005.071c.01.032.027.051.04.06a.06.06 0 0 0 .017.01.148.148 0 0 0 .048.006h14.334a.148.148 0 0 0 .048-.006.06.06 0 0 0 .018-.01.127.127 0 0 0 .04-.06.126.126 0 0 0 .004-.071.062.062 0 0 0-.009-.019.148.148 0 0 0-.035-.034 4.333 4.333 0 0 1-1.733-3.467V10.5c0-3.135-2.555-6-5.5-6zm-7.5 6c0-4.045 3.265-8 7.5-8 4.235 0 7.5 3.955 7.5 8v3.333c0 .735.346 1.426.933 1.867 1.623 1.217.763 3.8-1.266 3.8H4.833c-2.028 0-2.89-2.583-1.266-3.8.587-.44.933-1.132.933-1.867V10.5z"/></g>
</symbol>
<symbol id="bleach" viewBox="0 0 24 24"><g clip-path="url(#clip0_2828_7754)"><path d="M23.943 23.21L12.488.278c-.185-.37-.79-.37-.976 0L.058 23.21a.548.548 0 0 0 .488.79h22.909a.547.547 0 0 0 .488-.79zm-22.515-.3L12 1.764 22.573 22.91H1.428z"/></g><defs><clipPath id="clip0_2828_7754"><path d="M0 0h24v24H0z"/></clipPath></defs>
</symbol>
<symbol id="block" viewBox="0 0 24 24"><g fill-rule="evenodd" clip-rule="evenodd"><path d="M4.543 19.504a1 1 0 0 1 0-1.415l13.5-13.5a1 1 0 1 1 1.414 1.415l-13.5 13.5a1 1 0 0 1-1.414 0z"/><path d="M12 3a9 9 0 1 0 0 18 9 9 0 0 0 0-18zM1 12C1 5.925 5.925 1 12 1s11 4.925 11 11-4.925 11-11 11S1 18.075 1 12z"/></g>
</symbol>
<symbol id="bottom-left" viewBox="0 0 24 24"><path fill-rule="evenodd" d="M18.707 5.293a1 1 0 0 1 0 1.414L8.414 17H13a1 1 0 1 1 0 2H6a1 1 0 0 1-1-1v-7a1 1 0 1 1 2 0v4.586L17.293 5.293a1 1 0 0 1 1.414 0z" clip-rule="evenodd"/>
</symbol>
<symbol id="bottom-right" viewBox="0 0 24 24"><path fill-rule="evenodd" d="M5.293 5.293a1 1 0 0 1 1.414 0L17 15.586V11a1 1 0 1 1 2 0v7a1 1 0 0 1-1 1h-7a1 1 0 1 1 0-2h4.586L5.293 6.707a1 1 0 0 1 0-1.414z" clip-rule="evenodd"/>
</symbol>
<symbol id="burger-menu" viewBox="0 0 24 24"><path fill-rule="evenodd" d="M1 12a1 1 0 0 1 1-1h20a1 1 0 1 1 0 2H2a1 1 0 0 1-1-1zm0 6a1 1 0 0 1 1-1h20a1 1 0 1 1 0 2H2a1 1 0 0 1-1-1zM1 6a1 1 0 0 1 1-1h20a1 1 0 1 1 0 2H2a1 1 0 0 1-1-1z" clip-rule="evenodd"/>
</symbol>
<symbol id="calendar" viewBox="0 0 24 24"><path fill-rule="evenodd" d="M7.5 1.25a1 1 0 0 1 1 1v.5h7v-.5a1 1 0 1 1 2 0v.5h1.25a4 4 0 0 1 4 4v12a4 4 0 0 1-4 4H5.25a4 4 0 0 1-4-4v-12a4 4 0 0 1 4-4H6.5v-.5a1 1 0 0 1 1-1zm-1 3.5H5.25a2 2 0 0 0-2 2V8h17.5V6.75a2 2 0 0 0-2-2H17.5v.5a1 1 0 1 1-2 0v-.5h-7v.5a1 1 0 0 1-2 0v-.5zM20.75 10H3.25v8.75a2 2 0 0 0 2 2h13.5a2 2 0 0 0 2-2V10z" clip-rule="evenodd"/>
</symbol>
<symbol id="card" viewBox="0 0 24 24"><path fill-rule="evenodd" d="M4.25 4.75a1 1 0 0 0-1 1v1.5h17.5v-1.5a1 1 0 0 0-1-1H4.25zm16.5 4.5H3.25v2.5h17.5v-2.5zm0 4.5H3.25v4.5a1 1 0 0 0 1 1h15.5a1 1 0 0 0 1-1v-4.5zm-19.5-8a3 3 0 0 1 3-3h15.5a3 3 0 0 1 3 3v12.5a3 3 0 0 1-3 3H4.25a3 3 0 0 1-3-3V5.75z" clip-rule="evenodd"/>
</symbol>
<symbol id="cart" viewBox="0 0 24 24"><path fill-rule="evenodd" d="M3.142 3.008A7.513 7.513 0 0 0 2.654 3H1a1 1 0 1 1 0-2h1.683c.214 0 .427 0 .609.014.203.015.438.05.682.16a2 2 0 0 1 .845.71c.149.222.224.448.274.645.045.177.081.386.118.598l.005.028.238 1.37 13.014.385c.51.015.95.028 1.314.068.383.042.764.122 1.129.316a3 3 0 0 1 1.277 1.316c.184.37.252.753.283 1.138.029.364.029.805.029 1.315v.074c0 .48 0 .895-.027 1.24-.028.366-.091.729-.259 1.085a3 3 0 0 1-1.18 1.3c-.339.202-.694.3-1.056.363-.34.06-.755.1-1.232.146l-9.734.942c-.489.048-.913.089-1.266.095-.375.006-.75-.023-1.128-.161a3 3 0 0 1-1.406-1.071c-.233-.327-.361-.682-.454-1.045a17.052 17.052 0 0 1-.245-1.246L3.245 3.497a7.518 7.518 0 0 0-.094-.488l-.01-.001zm2.662 3.528l.673 3.87c.092.53.152.872.218 1.128.063.245.113.334.144.378a1 1 0 0 0 .469.357c.051.02.15.043.403.04.265-.006.61-.038 1.145-.09l9.662-.935a15.7 15.7 0 0 0 1.114-.129c.242-.042.333-.084.38-.111.17-.102.308-.253.393-.434.023-.048.055-.143.074-.388.02-.258.021-.596.021-1.121 0-.559 0-.919-.023-1.193-.02-.263-.057-.361-.08-.41a1 1 0 0 0-.427-.439c-.048-.026-.145-.064-.407-.093a16.74 16.74 0 0 0-1.192-.058L5.804 6.536zM8.5 17.5a1 1 0 1 0 0 2 1 1 0 0 0 0-2zm-3 1a3 3 0 1 1 6 0 3 3 0 0 1-6 0zm12.5-1a1 1 0 1 0 0 2 1 1 0 0 0 0-2zm-3 1a3 3 0 1 1 6 0 3 3 0 0 1-6 0z" clip-rule="evenodd"/>
</symbol>
<symbol id="chat" viewBox="0 0 24 24"><g fill-rule="evenodd" clip-rule="evenodd"><path d="M21.923 10.567a7.753 7.753 0 0 1-.98 2.787c.037.214.056.43.056.647a4.02 4.02 0 0 1-.622 2.127c-.201.327-.253.71-.273.963-.023.29-.015.607.005.912.023.342.066.7.114 1.04a19.91 19.91 0 0 0-1.217-.32 8.679 8.679 0 0 0-.991-.172c-.272-.028-.664-.05-1.015.063a8.139 8.139 0 0 1-2.5.386 8.045 8.045 0 0 1-2.882-.514 13.24 13.24 0 0 1-4.068-.437C9.129 19.873 11.728 21 14.5 21c1.082 0 2.122-.166 3.08-.471h.009c.025 0 .093-.002.22.01.201.022.459.068.756.135.593.134 1.258.33 1.777.495 1.1.35 2.166-.61 1.97-1.727a15.772 15.772 0 0 1-.207-1.575 4.46 4.46 0 0 1-.007-.619c.005-.064.011-.103.015-.125A6.012 6.012 0 0 0 23 14a6.026 6.026 0 0 0-1.077-3.433z"/><path d="M5.597 5.698C4.249 6.728 3.5 8.082 3.5 9.5c0 .707.184 1.388.529 2.021.131.241.169.49.182.659.015.183.007.372-.009.549a8.768 8.768 0 0 1-.2 1.148c-.106.46-.243.953-.383 1.415a27.508 27.508 0 0 1 1.653-.549c.443-.129.89-.24 1.287-.304.343-.054.84-.107 1.268.041.96.332 2.034.52 3.173.52 2.147 0 4.054-.667 5.403-1.698C17.75 12.27 18.5 10.918 18.5 9.5c0-1.418-.75-2.771-2.097-3.802C15.053 4.667 13.147 4 11 4c-2.148 0-4.054.667-5.403 1.698zM4.382 4.11C6.109 2.79 8.452 2 11 2c2.547 0 4.89.788 6.617 2.11C19.346 5.43 20.5 7.327 20.5 9.5c0 2.172-1.154 4.069-2.883 5.39C15.89 16.213 13.547 17 11 17c-1.343 0-2.626-.219-3.791-.617-.001.003-.096-.006-.338.032-.278.044-.634.13-1.038.248-.806.235-1.71.568-2.4.836-1.193.464-2.409-.682-2.007-1.903.213-.647.465-1.465.628-2.171a6.86 6.86 0 0 0 .157-.877 1.83 1.83 0 0 0 .008-.17 6.176 6.176 0 0 1-.72-2.878c0-2.172 1.154-4.069 2.883-5.39z"/></g>
</symbol>
<symbol id="check-round" viewBox="0 0 24 24"><g fill-rule="evenodd" clip-rule="evenodd"><path d="M12 3a9 9 0 1 0 0 18 9 9 0 0 0 0-18zM1 12C1 5.925 5.925 1 12 1s11 4.925 11 11-4.925 11-11 11S1 18.075 1 12z"/><path d="M17.187 8.273a1 1 0 0 1 .04 1.414l-5.667 6a1 1 0 0 1-1.454 0l-3.333-3.53a1 1 0 1 1 1.454-1.373l2.606 2.76 4.94-5.23a1 1 0 0 1 1.414-.041z"/></g>
</symbol>
<symbol id="check" viewBox="0 0 24 24"><path d="M12 23c6.065 0 11-4.934 11-11 0-1.047-.146-2.079-.436-3.067a.916.916 0 1 0-1.759.515c.24.82.362 1.68.362 2.552 0 5.054-4.113 9.167-9.167 9.167-5.054 0-9.167-4.113-9.167-9.167 0-5.054 4.113-9.167 9.167-9.167a9.1 9.1 0 0 1 5.11 1.553.917.917 0 0 0 1.026-1.52A10.932 10.932 0 0 0 12 1C5.935 1 1 5.934 1 12s4.935 11 11 11z"/><path d="M22.293 2.293L12 12.585 8.707 9.293a1 1 0 0 0-1.414 1.414l4 4a.995.995 0 0 0 1.414 0l11-11a1 1 0 0 0-1.414-1.414z"/>
</symbol>
<symbol id="clock" viewBox="0 0 24 24"><path d="M13 6.5a1 1 0 1 0-2 0V12a1 1 0 0 0 .293.707l3 3a1 1 0 0 0 1.414-1.414L13 11.586V6.5z"/><path fill-rule="evenodd" d="M12 1C5.925 1 1 5.925 1 12s4.925 11 11 11 11-4.925 11-11S18.075 1 12 1zM3 12a9 9 0 1 1 18 0 9 9 0 0 1-18 0z" clip-rule="evenodd"/>
</symbol>
<symbol id="close-round" viewBox="0 0 24 24"><g fill-rule="evenodd" clip-rule="evenodd"><path d="M7.305 7.305a1.042 1.042 0 0 1 1.475 0l3.22 3.22 3.22-3.22a1.042 1.042 0 0 1 1.475 1.475L13.475 12l3.22 3.22a1.042 1.042 0 1 1-1.474 1.475L12 13.475l-3.221 3.22a1.042 1.042 0 1 1-1.475-1.474L10.525 12l-3.22-3.22a1.042 1.042 0 0 1 0-1.475z"/><path d="M12 3a9 9 0 1 0 0 18 9 9 0 0 0 0-18zM1 12C1 5.925 5.925 1 12 1s11 4.925 11 11-4.925 11-11 11S1 18.075 1 12z"/></g>
</symbol>
<symbol id="closed-eye" viewBox="0 0 24 24"><path fill-rule="evenodd" d="M8.218 18.959a1 1 0 0 0 1.241-.677l.727-2.468a8.97 8.97 0 0 0 3.629 0l.726 2.468a1 1 0 0 0 1.918-.564l-.738-2.51a11.514 11.514 0 0 0 2.843-1.795l1.697 1.862a1 1 0 0 0 1.478-1.347l-1.743-1.913a18.098 18.098 0 0 0 1.852-2.485 1 1 0 0 0-1.696-1.06c-.695 1.112-1.444 2.05-2.224 2.817-1.197 1.177-2.465 1.953-3.735 2.362a7.04 7.04 0 0 1-4.386 0c-1.27-.409-2.538-1.185-3.735-2.362-.78-.768-1.529-1.705-2.224-2.817a1 1 0 1 0-1.696 1.06 18.103 18.103 0 0 0 1.853 2.485L2.26 13.927a1 1 0 0 0 1.478 1.348l1.697-1.862a11.533 11.533 0 0 0 2.844 1.794l-.74 2.51a1 1 0 0 0 .678 1.242z" clip-rule="evenodd"/>
</symbol>
<symbol id="comment" viewBox="0 0 24 24"><path fill-rule="evenodd" d="M20.75 14.75v-8.5a3 3 0 0 0-3-3H6.25a3 3 0 0 0-3 3v14.307l3.93-2.807h10.57a3 3 0 0 0 3-3zm2-8.5v8.5a5 5 0 0 1-5 5H7.82l-3.408 2.434c-1.323.946-3.162 0-3.162-1.627V6.25a5 5 0 0 1 5-5h11.5a5 5 0 0 1 5 5z" clip-rule="evenodd"/>
</symbol>
<symbol id="cross" viewBox="0 0 24 24"><path fill-rule="evenodd" d="M4.293 4.293a1 1 0 0 1 1.414 0L12 10.586l6.293-6.293a1 1 0 1 1 1.414 1.414L13.414 12l6.293 6.293a1 1 0 0 1-1.414 1.414L12 13.414l-6.293 6.293a1 1 0 0 1-1.414-1.414L10.586 12 4.293 5.707a1 1 0 0 1 0-1.414z" clip-rule="evenodd"/>
</symbol>
<symbol id="danger" viewBox="0 0 24 25"><path fill-rule="evenodd" d="M12 3.5a9 9 0 1 0 0 18 9 9 0 0 0 0-18zm-11 9c0-6.075 4.925-11 11-11s11 4.925 11 11-4.925 11-11 11-11-4.925-11-11z" clip-rule="evenodd"/><path d="M13 16.5a1 1 0 1 1-2 0 1 1 0 0 1 2 0z"/><path fill-rule="evenodd" d="M12 14.125a1 1 0 0 1-1-1V7.5a1 1 0 1 1 2 0v5.625a1 1 0 0 1-1 1z" clip-rule="evenodd"/>
</symbol>
<symbol id="delete" viewBox="0 0 24 24"><path fill-rule="evenodd" d="M7.25 3.75a2.5 2.5 0 0 1 2.5-2.5h4.5a2.5 2.5 0 0 1 2.5 2.5v.5h5a1 1 0 1 1 0 2H20.5v12.5a4 4 0 0 1-4 4h-9a4 4 0 0 1-4-4V6.25H2.25a1 1 0 0 1 0-2h5v-.5zm2 .5h5.5v-.5a.5.5 0 0 0-.5-.5h-4.5a.5.5 0 0 0-.5.5v.5zm-3.75 2v12.5a2 2 0 0 0 2 2h9a2 2 0 0 0 2-2V6.25h-13zM12 8a1 1 0 0 1 1 1v9a1 1 0 1 1-2 0V9a1 1 0 0 1 1-1z" clip-rule="evenodd"/>
</symbol>
<symbol id="dislike" viewBox="0 0 24 24"><path fill-rule="evenodd" d="M9.849 20.75c.14 0 .269-.074.34-.195l.005-.01 4.586-7.436V3.25H6.195a.393.393 0 0 0-.384.308l-.003.015-2.55 9.96a.393.393 0 0 0 .386.467H7.53c.65 0 1.31.218 1.79.686.504.492.737 1.197.587 1.956l-.718 3.639a.393.393 0 0 0 .385.469h.274zm6.931-17.5v9.143h3.544a.393.393 0 0 0 .393-.39l.064-8.357a.393.393 0 0 0-.393-.396H16.78zm-.441 11.143l-4.43 7.182a2.393 2.393 0 0 1-2.06 1.175h-.274a2.393 2.393 0 0 1-2.348-2.857l.72-3.638a.209.209 0 0 0 .002-.1.087.087 0 0 0-.026-.038c-.041-.04-.166-.117-.392-.117H3.644a2.393 2.393 0 0 1-2.336-2.912l.003-.016 2.552-9.966A2.393 2.393 0 0 1 6.195 1.25h14.193a2.393 2.393 0 0 1 2.392 2.411l-.063 8.357a2.393 2.393 0 0 1-2.393 2.375h-3.985z" clip-rule="evenodd"/>
</symbol>
<symbol id="down-chevron" viewBox="0 0 24 24"><path fill-rule="evenodd" d="M19.707 8.293a1 1 0 0 1 0 1.414l-7 7a1 1 0 0 1-1.414 0l-7-7a1 1 0 0 1 1.414-1.414L12 14.586l6.293-6.293a1 1 0 0 1 1.414 0z" clip-rule="evenodd"/>
</symbol>
<symbol id="down" viewBox="0 0 24 24"><path fill-rule="evenodd" d="M17.207 14.793a1 1 0 0 1 0 1.414l-4.5 4.5a1 1 0 0 1-1.414 0l-4.5-4.5a1 1 0 1 1 1.414-1.414L11 17.586V4a1 1 0 1 1 2 0v13.586l2.793-2.793a1 1 0 0 1 1.414 0z" clip-rule="evenodd"/>
</symbol>
<symbol id="dribbble" viewBox="0 0 24 24"><path d="M19.439 5.324l-.14-.153A9.974 9.974 0 0 0 12 2a9.957 9.957 0 0 0-3.27.55l-.103.036a10.033 10.033 0 0 0-6.484 7.73l-.003.01-.005.034a9.953 9.953 0 0 0 2.101 7.936l.117.14a9.982 9.982 0 0 0 11.033 2.973 10.035 10.035 0 0 0 6.439-7.543l.005-.025c.111-.597.17-1.212.17-1.841a9.96 9.96 0 0 0-2.561-6.676zM12 4c2.057 0 3.934.78 5.353 2.06-.993 1.361-2.383 2.256-3.904 2.834a27.325 27.325 0 0 0-.75-1.608 23.63 23.63 0 0 0-1.934-3.19A8.03 8.03 0 0 1 12 4zm-3.284.706c.596.745 1.728 2.328 2.796 4.752-2.805.601-5.682.402-7.17.225a8.04 8.04 0 0 1 4.374-4.977zM4 12c0-.114.003-.227.008-.34a27.3 27.3 0 0 0 3.356.209c.668 0 1.38-.026 2.118-.09a19.28 19.28 0 0 0 2.778-.438c.19.537.374 1.105.546 1.704-.9.262-1.831.59-2.79.983a34.683 34.683 0 0 0-4.697 2.367A7.953 7.953 0 0 1 4 12zm8 8a7.968 7.968 0 0 1-5.356-2.063c1.334-.784 3.84-2.12 6.652-2.947a33.24 33.24 0 0 1 .67 4.765A7.956 7.956 0 0 1 12 20zm3.912-1.024a34.998 34.998 0 0 0-.675-4.456c1.472-.274 2.973-.356 4.39-.107a8.04 8.04 0 0 1-3.715 4.563zm4.075-6.531c-1.587-.283-3.338-.24-5.239.128a31.44 31.44 0 0 0-.576-1.817c1.877-.718 3.396-1.776 4.51-3.148a7.952 7.952 0 0 1 1.305 4.837z"/>
</symbol>
<symbol id="dry-clean" viewBox="0 0 24 24"><path d="M12 0C5.383 0 0 5.383 0 12s5.383 12 12 12 12-5.383 12-12S18.617 0 12 0zm0 23C5.935 23 1 18.065 1 12S5.935 1 12 1s11 4.935 11 11-4.935 11-11 11z"/>
</symbol>
<symbol id="envelope-opened" viewBox="0 0 24 24"><g fill-rule="evenodd" clip-rule="evenodd"><path d="M20.75 17.75V9a1 1 0 1 1 2 0v8.75a5 5 0 0 1-5 5H6.25a5 5 0 0 1-5-5V9a1 1 0 1 1 2 0v8.75a3 3 0 0 0 3 3h11.5a3 3 0 0 0 3-3z"/><path d="M1.443 9.214a1 1 0 0 0 1.397.218l8.57-6.263a1 1 0 0 1 1.18 0l8.57 6.263a1 1 0 1 0 1.18-1.615l-8.57-6.263a3 3 0 0 0-3.54 0L1.66 7.817a1 1 0 0 0-.217 1.397z"/><path d="M1.428 8.055a1 1 0 0 1 1.391-.253l7.473 5.174a3 3 0 0 0 3.416 0l7.473-5.174a1 1 0 0 1 1.138 1.645l-7.473 5.173a5 5 0 0 1-5.692 0L1.68 9.447a1 1 0 0 1-.253-1.392z"/></g>
</symbol>
<symbol id="expand" viewBox="0 0 24 24"><path fill-rule="evenodd" d="M3 4a1 1 0 0 1 1-1h5a1 1 0 0 1 0 2H6.414L12 10.586 17.586 5H15a1 1 0 1 1 0-2h5a1 1 0 0 1 1 1v5a1 1 0 1 1-2 0V6.414L13.414 12 19 17.586V15a1 1 0 1 1 2 0v5a1 1 0 0 1-1 1h-5a1 1 0 1 1 0-2h2.586L12 13.414 6.414 19H9a1 1 0 1 1 0 2H4a1 1 0 0 1-1-1v-5a1 1 0 1 1 2 0v2.586L10.586 12 5 6.414V9a1 1 0 0 1-2 0V4z" clip-rule="evenodd"/>
</symbol>
<symbol id="external-link" viewBox="0 0 24 24"><g fill-rule="evenodd" clip-rule="evenodd"><path d="M18.765 19.76v-3.952a.974.974 0 1 1 1.948 0v3.952a4.24 4.24 0 0 1-4.24 4.24H4.24A4.24 4.24 0 0 1 0 19.76V7.526a4.24 4.24 0 0 1 4.24-4.24h3.952a.974.974 0 0 1 0 1.948H4.24a2.292 2.292 0 0 0-2.29 2.292V19.76a2.292 2.292 0 0 0 2.291 2.292h12.234a2.292 2.292 0 0 0 2.291-2.292z"/><path d="M20.43 3.57c.38.381.38.998 0 1.378L9.604 15.775a.974.974 0 1 1-1.378-1.378L19.052 3.571a.974.974 0 0 1 1.378 0z"/><path d="M19.742 3.296a.974.974 0 0 1 .973.974v5.763a.974.974 0 1 1-1.948 0v-4.79l-4.802-.01a.974.974 0 0 1 .004-1.948l5.773.01z"/></g>
</symbol>
<symbol id="eye" viewBox="0 0 24 24"><path d="M2.64 8.518C5.346 6.262 8.459 5 11.75 5s6.405 1.262 9.11 3.518a1 1 0 0 0 1.28-1.536C19.135 4.474 15.58 3 11.75 3 7.92 3 4.366 4.474 1.36 6.982a1 1 0 1 0 1.28 1.536z"/><path fill-rule="evenodd" d="M4.1 9.689C5.9 8.171 8.465 6.75 11.376 6.75c2.91 0 5.476 1.42 7.274 2.939.907.765 1.65 1.581 2.175 2.31.263.364.481.72.639 1.052.144.304.287.687.287 1.074s-.143.77-.287 1.074a6.951 6.951 0 0 1-.639 1.052c-.525.729-1.268 1.545-2.175 2.31-1.798 1.518-4.363 2.939-7.274 2.939-2.91 0-5.476-1.42-7.274-2.939a13.274 13.274 0 0 1-2.176-2.31 6.945 6.945 0 0 1-.638-1.052C1.143 14.895 1 14.512 1 14.125s.143-.77.287-1.074c.158-.331.376-.688.638-1.052.526-.729 1.27-1.545 2.176-2.31zm-1.093 4.436c.01.034.034.104.087.215.092.195.242.447.454.741.423.588 1.053 1.285 1.843 1.952 1.595 1.346 3.717 2.467 5.984 2.467s4.39-1.121 5.984-2.467c.79-.667 1.42-1.364 1.843-1.952.212-.294.362-.546.454-.74.053-.112.077-.182.087-.216a1.514 1.514 0 0 0-.087-.215 4.981 4.981 0 0 0-.454-.741 11.294 11.294 0 0 0-1.843-1.952 12.44 12.44 0 0 0-1.073-.811 5.125 5.125 0 1 1-9.823 0c-.378.255-.737.528-1.072.811-.79.667-1.42 1.364-1.843 1.952a4.986 4.986 0 0 0-.454.74 1.514 1.514 0 0 0-.087.216zm5.243-2.25a3.125 3.125 0 1 1 6.25 0 3.125 3.125 0 0 1-6.25 0z" clip-rule="evenodd"/>
</symbol>
<symbol id="facebook" viewBox="0 0 24 24"><path d="M17.563 1.005L14.786 1c-3.12 0-5.137 2.125-5.137 5.414v2.497H6.857c-.242 0-.437.2-.437.448v3.617c0 .248.196.449.437.449h2.792v9.126c0 .248.195.449.437.449h3.643a.443.443 0 0 0 .437-.449v-9.126h3.265c.241 0 .436-.2.436-.449l.002-3.617a.456.456 0 0 0-.128-.317.431.431 0 0 0-.31-.131h-3.265V6.794c0-1.017.236-1.533 1.525-1.533h1.871a.444.444 0 0 0 .437-.45V1.454a.443.443 0 0 0-.436-.448z"/>
</symbol>
<symbol id="figma" viewBox="0 0 24 24"><g fill-rule="evenodd" clip-rule="evenodd"><path d="M4.337 18.666a4.334 4.334 0 0 1 4.332-4.333h4.332v4.333a4.334 4.334 0 0 1-4.332 4.333 4.334 4.334 0 0 1-4.332-4.333zm4.332-2.333a2.334 2.334 0 0 0 0 4.666 2.334 2.334 0 0 0 2.332-2.333v-2.333H8.67z"/><path d="M8.67 9.666a2.334 2.334 0 0 0 0 4.667H11V9.666H8.67zM4.336 12a4.334 4.334 0 0 1 4.332-4.334H13v8.667H8.67A4.334 4.334 0 0 1 4.337 12z"/><path d="M8.67 3a2.334 2.334 0 0 0 0 4.666H11V3H8.67zM4.336 5.333A4.334 4.334 0 0 1 8.669 1h4.332v8.666H8.67a4.334 4.334 0 0 1-4.332-4.333z"/><path d="M11.002 1h4.332a4.334 4.334 0 0 1 0 8.666h-4.333L11.002 1zm2 2v4.666h2.332a2.334 2.334 0 0 0 0-4.666h-2.332z"/><path d="M15.334 9.666a2.334 2.334 0 0 0 0 4.667 2.334 2.334 0 0 0 0-4.667zM11.002 12a4.334 4.334 0 0 1 4.332-4.334 4.334 4.334 0 0 1 0 8.667A4.334 4.334 0 0 1 11.002 12z"/></g>
</symbol>
<symbol id="files" viewBox="0 0 24 24"><g fill-rule="evenodd" clip-rule="evenodd"><path d="M8 13.5a1 1 0 0 1 1-1h6a1 1 0 1 1 0 2H9a1 1 0 0 1-1-1zm0 3.75a1 1 0 0 1 1-1h3a1 1 0 1 1 0 2H9a1 1 0 0 1-1-1z"/><path d="M9.043 1.543a1 1 0 0 1 .707-.293h6.75a4 4 0 0 1 4 4v13.5a4 4 0 0 1-4 4h-9a4 4 0 0 1-4-4V7.5a1 1 0 0 1 .293-.707l5.25-5.25zM9.5 3.914V7.25H6.164L9.5 3.914zm-4 5.336v9.5a2 2 0 0 0 2 2h9a2 2 0 0 0 2-2V5.25a2 2 0 0 0-2-2h-5v5a1 1 0 0 1-1 1h-5z"/></g>
</symbol>
<symbol id="filter-1" viewBox="0 0 24 24"><g fill-rule="evenodd" clip-rule="evenodd"><path d="M6.5 9.5a1 1 0 0 1 1 1v11.25a1 1 0 1 1-2 0V10.5a1 1 0 0 1 1-1zm0-8.25a1 1 0 0 1 1 1v3a1 1 0 0 1-2 0v-3a1 1 0 0 1 1-1z"/><path d="M1 7.25a3 3 0 0 1 3-3h5a3 3 0 0 1 3 3V8.5a3 3 0 0 1-3 3H4a3 3 0 0 1-3-3V7.25zm3-1a1 1 0 0 0-1 1V8.5a1 1 0 0 0 1 1h5a1 1 0 0 0 1-1V7.25a1 1 0 0 0-1-1H4zm13.5 11.5a1 1 0 0 1 1 1v3a1 1 0 1 1-2 0v-3a1 1 0 0 1 1-1zm0-16.5a1 1 0 0 1 1 1V13.5a1 1 0 1 1-2 0V2.25a1 1 0 0 1 1-1z"/><path d="M12 15.5a3 3 0 0 1 3-3h5a3 3 0 0 1 3 3v1.25a3 3 0 0 1-3 3h-5a3 3 0 0 1-3-3V15.5zm3-1a1 1 0 0 0-1 1v1.25a1 1 0 0 0 1 1h5a1 1 0 0 0 1-1V15.5a1 1 0 0 0-1-1h-5z"/></g>
</symbol>
<symbol id="filter-2" viewBox="0 0 24 24"><g fill-rule="evenodd" clip-rule="evenodd"><path d="M17.5 9.5a1 1 0 0 1 1 1v11.25a1 1 0 1 1-2 0V10.5a1 1 0 0 1 1-1zm0-8.25a1 1 0 0 1 1 1v3a1 1 0 1 1-2 0v-3a1 1 0 0 1 1-1z"/><path d="M12 7.25a3 3 0 0 1 3-3h5a3 3 0 0 1 3 3V8.5a3 3 0 0 1-3 3h-5a3 3 0 0 1-3-3V7.25zm3-1a1 1 0 0 0-1 1V8.5a1 1 0 0 0 1 1h5a1 1 0 0 0 1-1V7.25a1 1 0 0 0-1-1h-5zm-8.5 11.5a1 1 0 0 1 1 1v3a1 1 0 1 1-2 0v-3a1 1 0 0 1 1-1zm0-16.5a1 1 0 0 1 1 1V13.5a1 1 0 1 1-2 0V2.25a1 1 0 0 1 1-1z"/><path d="M1 15.5a3 3 0 0 1 3-3h5a3 3 0 0 1 3 3v1.25a3 3 0 0 1-3 3H4a3 3 0 0 1-3-3V15.5zm3-1a1 1 0 0 0-1 1v1.25a1 1 0 0 0 1 1h5a1 1 0 0 0 1-1V15.5a1 1 0 0 0-1-1H4z"/></g>
</symbol>
<symbol fill="none" xmlns="http://www.w3.org/2000/svg" viewBox="0 0 20 12" id="flag-usa">
    <g id="flag-usa">
      <path id="Vector" d="M20 0H0V12H20V0Z" fill="#B22234"></path>
      <path id="Vector (Stroke)" fill-rule="evenodd" clip-rule="evenodd" d="M20 1.74526H0V0.799805H20V1.74526ZM0 2.69071H20V3.63617H0V2.69071ZM20 5.52708H0V4.58162H20V5.52708ZM0 6.47253H20V7.41799H0V6.47253ZM20 9.30889H0V8.36344H20V9.30889ZM0 10.2543H20V11.1998H0V10.2543Z" fill="white"></path>
      <g id="Group">
        <path id="Vector_2" d="M9.12 0H0V6.46154H9.12V0Z" fill="#3C3B6E"></path>
        <g id="Vector_3">
          <path d="M0.759362 0.22168L0.976391 0.889624L0.408203 0.476812H1.11052L0.542334 0.889624L0.759362 0.22168Z" fill="white"></path>
          <path d="M2.274 0.22168L2.49103 0.889624L1.92284 0.476812H2.62516L2.05697 0.889624L2.274 0.22168Z" fill="white"></path>
          <path d="M3.78864 0.22168L4.00567 0.889624L3.43748 0.476812H4.1398L3.57161 0.889624L3.78864 0.22168Z" fill="white"></path>
          <path d="M8.33256 0.22168L8.54959 0.889624L7.9814 0.476812H8.68372L8.11553 0.889624L8.33256 0.22168Z" fill="white"></path>
          <path d="M6.81792 0.22168L7.03495 0.889624L6.46676 0.476812H7.16908L6.60089 0.889624L6.81792 0.22168Z" fill="white"></path>
          <path d="M5.30328 0.22168L5.52031 0.889624L4.95212 0.476812H5.65444L5.08625 0.889624L5.30328 0.22168Z" fill="white"></path>
          <path d="M0.759362 1.55758L0.976391 2.22553L0.408203 1.81271H1.11052L0.542334 2.22553L0.759362 1.55758Z" fill="white"></path>
          <path d="M2.274 1.55758L2.49103 2.22553L1.92284 1.81271H2.62516L2.05697 2.22553L2.274 1.55758Z" fill="white"></path>
          <path d="M3.78864 1.55758L4.00567 2.22553L3.43748 1.81271H4.1398L3.57161 2.22553L3.78864 1.55758Z" fill="white"></path>
          <path d="M8.33256 1.55758L8.54959 2.22553L7.9814 1.81271H8.68372L8.11553 2.22553L8.33256 1.55758Z" fill="white"></path>
          <path d="M6.81792 1.55758L7.03495 2.22553L6.46676 1.81271H7.16908L6.60089 2.22553L6.81792 1.55758Z" fill="white"></path>
          <path d="M5.30328 1.55758L5.52031 2.22553L4.95212 1.81271H5.65444L5.08625 2.22553L5.30328 1.55758Z" fill="white"></path>
          <path d="M0.759362 2.89348L0.976391 3.56143L0.408203 3.14861H1.11052L0.542334 3.56143L0.759362 2.89348Z" fill="white"></path>
          <path d="M2.274 2.89348L2.49103 3.56143L1.92284 3.14861H2.62516L2.05697 3.56143L2.274 2.89348Z" fill="white"></path>
          <path d="M3.78864 2.89348L4.00567 3.56143L3.43748 3.14861H4.1398L3.57161 3.56143L3.78864 2.89348Z" fill="white"></path>
          <path d="M8.33256 2.89348L8.54959 3.56143L7.9814 3.14861H8.68372L8.11553 3.56143L8.33256 2.89348Z" fill="white"></path>
          <path d="M6.81792 2.89348L7.03495 3.56143L6.46676 3.14861H7.16908L6.60089 3.56143L6.81792 2.89348Z" fill="white"></path>
          <path d="M5.30328 2.89348L5.52031 3.56143L4.95212 3.14861H5.65444L5.08625 3.56143L5.30328 2.89348Z" fill="white"></path>
          <path d="M0.759362 4.22938L0.976391 4.89733L0.408203 4.48452H1.11052L0.542334 4.89733L0.759362 4.22938Z" fill="white"></path>
          <path d="M2.274 4.22938L2.49103 4.89733L1.92284 4.48452H2.62516L2.05697 4.89733L2.274 4.22938Z" fill="white"></path>
          <path d="M3.78864 4.22938L4.00567 4.89733L3.43748 4.48452H4.1398L3.57161 4.89733L3.78864 4.22938Z" fill="white"></path>
          <path d="M8.33256 4.22938L8.54959 4.89733L7.9814 4.48452H8.68372L8.11553 4.89733L8.33256 4.22938Z" fill="white"></path>
          <path d="M6.81792 4.22938L7.03495 4.89733L6.46676 4.48452H7.16908L6.60089 4.89733L6.81792 4.22938Z" fill="white"></path>
          <path d="M5.30328 4.22938L5.52031 4.89733L4.95212 4.48452H5.65444L5.08625 4.89733L5.30328 4.22938Z" fill="white"></path>
          <path d="M0.759362 5.56528L0.976391 6.23323L0.408203 5.82042H1.11052L0.542334 6.23323L0.759362 5.56528Z" fill="white"></path>
          <path d="M2.274 5.56528L2.49103 6.23323L1.92284 5.82042H2.62516L2.05697 6.23323L2.274 5.56528Z" fill="white"></path>
          <path d="M3.78864 5.56528L4.00567 6.23323L3.43748 5.82042H4.1398L3.57161 6.23323L3.78864 5.56528Z" fill="white"></path>
          <path d="M8.33256 5.56528L8.54959 6.23323L7.9814 5.82042H8.68372L8.11553 6.23323L8.33256 5.56528Z" fill="white"></path>
          <path d="M6.81792 5.56528L7.03495 6.23323L6.46676 5.82042H7.16908L6.60089 6.23323L6.81792 5.56528Z" fill="white"></path>
          <path d="M5.30328 5.56528L5.52031 6.23323L4.95212 5.82042H5.65444L5.08625 6.23323L5.30328 5.56528Z" fill="white"></path>
          <path d="M1.51358 0.88963L1.73061 1.55758L1.16242 1.14476H1.86474L1.29655 1.55758L1.51358 0.88963Z" fill="white"></path>
          <path d="M3.02822 0.88963L3.24525 1.55758L2.67706 1.14476H3.37938L2.81119 1.55758L3.02822 0.88963Z" fill="white"></path>
          <path d="M4.54286 0.88963L4.75989 1.55758L4.1917 1.14476H4.89402L4.32583 1.55758L4.54286 0.88963Z" fill="white"></path>
          <path d="M7.57214 0.88963L7.78917 1.55758L7.22098 1.14476H7.9233L7.35511 1.55758L7.57214 0.88963Z" fill="white"></path>
          <path d="M6.0575 0.88963L6.27453 1.55758L5.70634 1.14476H6.40866L5.84047 1.55758L6.0575 0.88963Z" fill="white"></path>
          <path d="M1.51358 2.22553L1.73061 2.89348L1.16242 2.48066H1.86474L1.29655 2.89348L1.51358 2.22553Z" fill="white"></path>
          <path d="M3.02822 2.22553L3.24525 2.89348L2.67706 2.48066H3.37938L2.81119 2.89348L3.02822 2.22553Z" fill="white"></path>
          <path d="M4.54286 2.22553L4.75989 2.89348L4.1917 2.48066H4.89402L4.32583 2.89348L4.54286 2.22553Z" fill="white"></path>
          <path d="M7.57214 2.22553L7.78917 2.89348L7.22098 2.48066H7.9233L7.35511 2.89348L7.57214 2.22553Z" fill="white"></path>
          <path d="M6.0575 2.22553L6.27453 2.89348L5.70634 2.48066H6.40866L5.84047 2.89348L6.0575 2.22553Z" fill="white"></path>
          <path d="M1.51358 3.56143L1.73061 4.22938L1.16242 3.81657H1.86474L1.29655 4.22938L1.51358 3.56143Z" fill="white"></path>
          <path d="M3.02822 3.56143L3.24525 4.22938L2.67706 3.81657H3.37938L2.81119 4.22938L3.02822 3.56143Z" fill="white"></path>
          <path d="M4.54286 3.56143L4.75989 4.22938L4.1917 3.81657H4.89402L4.32583 4.22938L4.54286 3.56143Z" fill="white"></path>
          <path d="M7.57214 3.56143L7.78917 4.22938L7.22098 3.81657H7.9233L7.35511 4.22938L7.57214 3.56143Z" fill="white"></path>
          <path d="M6.0575 3.56143L6.27453 4.22938L5.70634 3.81657H6.40866L5.84047 4.22938L6.0575 3.56143Z" fill="white"></path>
          <path d="M1.51358 4.89733L1.73061 5.56528L1.16242 5.15247H1.86474L1.29655 5.56528L1.51358 4.89733Z" fill="white"></path>
          <path d="M3.02822 4.89733L3.24525 5.56528L2.67706 5.15247H3.37938L2.81119 5.56528L3.02822 4.89733Z" fill="white"></path>
          <path d="M4.54286 4.89733L4.75989 5.56528L4.1917 5.15247H4.89402L4.32583 5.56528L4.54286 4.89733Z" fill="white"></path>
          <path d="M7.57214 4.89733L7.78917 5.56528L7.22098 5.15247H7.9233L7.35511 5.56528L7.57214 4.89733Z" fill="white"></path>
          <path d="M6.0575 4.89733L6.27453 5.56528L5.70634 5.15247H6.40866L5.84047 5.56528L6.0575 4.89733Z" fill="white"></path>
        </g>
      </g>
    </g>
  </symbol>
<symbol id="fluid-horizontal" viewBox="0 0 24 24"><path fill-rule="evenodd" d="M8.207 7.793a1 1 0 0 1 0 1.414L6.414 11h11.172l-1.793-1.793a1 1 0 0 1 1.414-1.414l3.5 3.5a1 1 0 0 1 0 1.414l-3.5 3.5a1 1 0 0 1-1.414-1.414L17.586 13H6.414l1.793 1.793a1 1 0 1 1-1.414 1.414l-3.5-3.5a1 1 0 0 1 0-1.414l3.5-3.5a1 1 0 0 1 1.414 0z" clip-rule="evenodd"/>
</symbol>
<symbol id="fluid-vertical" viewBox="0 0 24 24"><path fill-rule="evenodd" d="M7.793 15.793a1 1 0 0 1 1.414 0L11 17.586V6.414L9.207 8.207a1 1 0 0 1-1.414-1.414l3.5-3.5a1 1 0 0 1 1.414 0l3.5 3.5a1 1 0 0 1-1.414 1.414L13 6.414v11.172l1.793-1.793a1 1 0 0 1 1.414 1.414l-3.5 3.5a1 1 0 0 1-1.414 0l-3.5-3.5a1 1 0 0 1 0-1.414z" clip-rule="evenodd"/>
</symbol>
<symbol id="forward" viewBox="0 0 24 24"><path fill-rule="evenodd" d="M15.043 3.293a1 1 0 0 1 1.414 0l5.25 5.25a1 1 0 0 1 0 1.414l-5.25 5.25a1 1 0 0 1-1.414-1.414l3.543-3.543H8.25a4.25 4.25 0 0 0 0 8.5h3a1 1 0 1 1 0 2h-3a6.25 6.25 0 1 1 0-12.5h10.336l-3.543-3.543a1 1 0 0 1 0-1.414z" clip-rule="evenodd"/>
</symbol>
<symbol id="github" viewBox="0 0 24 24"><path d="M15.7 23c-.6 0-1-.4-1-1v-4.3c0-.8 0-.8-.3-1.1-.3-.3-.4-.7-.2-1 .1-.4.5-.6.8-.7 2.8-.3 5.4-1.2 5.4-5.7 0-1.1-.4-2.1-1.2-2.9-.3-.3-.4-.7-.2-1.1.2-.5.3-.9.3-1.4 0-.3 0-.5-.1-.8-.5.1-1.4.4-2.7 1.2-.2.1-.5.2-.8.1-2.2-.5-4.4-.5-6.6 0-.3.1-.5 0-.8-.1C6.8 3.4 5.9 3.1 5.4 3c0 .3-.1.6-.1.8 0 .5.1 1 .3 1.4.1.4 0 .8-.2 1.1-.4.4-.7.9-.9 1.4-.2.5-.3 1-.3 1.6 0 4.2 2.2 5.3 5.4 5.7.4 0 .7.3.8.7.1.4 0 .8-.2 1-.3.3-.3.5-.3 1.4v4c0 .6-.4 1-1 1s-1-.4-1-1v-1c-3 .4-4.2-1.3-5.1-2.5-.4-.5-.7-1-1-1.1-.5-.1-.9-.7-.7-1.2.2-.5.7-.9 1.2-.7 1 .3 1.6 1.1 2.2 1.9.8 1.1 1.5 2.1 3.4 1.7v-.9c0-.4-.1-.9 0-1.5-2.8-.6-5.7-2.2-5.7-7.4 0-.8.2-1.6.5-2.3.2-.5.5-1.1.9-1.5-.1-.5-.2-1-.2-1.6 0-.8.2-1.5.5-2.2.1-.5.3-.7.6-.7.3-.1 1.7-.3 4.4 1.3 2.2-.5 4.5-.5 6.7 0C18.3.8 19.6 1 20 1.1c.3.1.5.3.6.5.4.7.5 1.4.6 2.2 0 .5 0 1.1-.2 1.6.9 1.1 1.4 2.4 1.4 3.8 0 5.3-3 6.9-5.7 7.5.1.3.1.7 0 1V22c0 .6-.5 1-1 1z"/>
</symbol>
<symbol id="gitlab" viewBox="0 0 24 24"><path fill-rule="evenodd" d="M5.264 1.002a1 1 0 0 1 .989.604l3.073 7.172h5.348l3.074-7.172a1 1 0 0 1 1.883.13l3.334 12.223a1 1 0 0 1-.351 1.053l-10 7.777a1 1 0 0 1-1.228 0l-10-7.777a1 1 0 0 1-.35-1.053L4.368 1.737a1 1 0 0 1 .895-.735zm.28 4.027L3.14 13.842 12 20.733l8.86-6.89-2.404-8.814-2.203 5.143a1 1 0 0 1-.92.606H8.667a1 1 0 0 1-.92-.606L5.545 5.029z" clip-rule="evenodd"/>
</symbol>
<symbol id="google-hangouts" viewBox="0 0 24 24"><path d="M21 10.75C21 5.917 16.971 2 12 2s-9 3.917-9 8.75c0 4.583 4.286 8.333 9 8.333V22c5.443-2.583 9-6.833 9-11.25zm-8.143-2.5h3.857V12c0 1.167-.771 2.083-1.714 2.083V12h-2.143V8.25zM11.571 12c0 1.167-.771 2.083-1.714 2.083V12H7.714V8.25h3.857V12z"/>
</symbol>
<symbol id="google" viewBox="0 0 24 24"><path d="M12.211 10.502h9.876c.108.608.163 1.19.163 1.743 0 1.97-.413 3.73-1.24 5.279a8.95 8.95 0 0 1-3.534 3.63c-1.53.871-3.285 1.307-5.265 1.307-1.426 0-2.783-.274-4.073-.824-1.29-.55-2.402-1.291-3.337-2.227a10.46 10.46 0 0 1-2.227-3.337A10.283 10.283 0 0 1 1.75 12c0-1.425.275-2.783.824-4.073.55-1.289 1.292-2.401 2.227-3.337.935-.935 2.048-1.677 3.337-2.227 1.29-.55 2.647-.824 4.073-.824 2.724 0 5.063.913 7.015 2.738L16.38 7.015c-1.117-1.08-2.506-1.621-4.168-1.621a6.25 6.25 0 0 0-3.249.885A6.524 6.524 0 0 0 6.6 8.683 6.547 6.547 0 0 0 5.727 12c0 1.199.291 2.305.872 3.317a6.524 6.524 0 0 0 2.363 2.404 6.25 6.25 0 0 0 3.25.886c.79 0 1.516-.11 2.178-.327.663-.218 1.208-.49 1.635-.818.427-.327.8-.699 1.117-1.117a5.2 5.2 0 0 0 .701-1.185c.15-.372.253-.726.307-1.062h-5.939v-3.596z"/>
</symbol>
<symbol id="grid" viewBox="0 0 24 24"><path fill-rule="evenodd" d="M1 3.5A2.5 2.5 0 0 1 3.5 1h5A2.5 2.5 0 0 1 11 3.5v5A2.5 2.5 0 0 1 8.5 11h-5A2.5 2.5 0 0 1 1 8.5v-5zM3.5 3a.5.5 0 0 0-.5.5v5a.5.5 0 0 0 .5.5h5a.5.5 0 0 0 .5-.5v-5a.5.5 0 0 0-.5-.5h-5zM1 15.5A2.5 2.5 0 0 1 3.5 13h5a2.5 2.5 0 0 1 2.5 2.5v5A2.5 2.5 0 0 1 8.5 23h-5A2.5 2.5 0 0 1 1 20.5v-5zm2.5-.5a.5.5 0 0 0-.5.5v5a.5.5 0 0 0 .5.5h5a.5.5 0 0 0 .5-.5v-5a.5.5 0 0 0-.5-.5h-5zM13 3.5A2.5 2.5 0 0 1 15.5 1h5A2.5 2.5 0 0 1 23 3.5v5a2.5 2.5 0 0 1-2.5 2.5h-5A2.5 2.5 0 0 1 13 8.5v-5zm2.5-.5a.5.5 0 0 0-.5.5v5a.5.5 0 0 0 .5.5h5a.5.5 0 0 0 .5-.5v-5a.5.5 0 0 0-.5-.5h-5zM13 15.5a2.5 2.5 0 0 1 2.5-2.5h5a2.5 2.5 0 0 1 2.5 2.5v5a2.5 2.5 0 0 1-2.5 2.5h-5a2.5 2.5 0 0 1-2.5-2.5v-5zm2.5-.5a.5.5 0 0 0-.5.5v5a.5.5 0 0 0 .5.5h5a.5.5 0 0 0 .5-.5v-5a.5.5 0 0 0-.5-.5h-5z" clip-rule="evenodd"/>
</symbol>
<symbol id="hand-wash" viewBox="0 0 24 24"><path d="M23.598 5.511c-.273-.06-.534.13-.588.417l-.647 3.435c-.312-.146-.55-.399-.827-.7-.375-.41-.827-.894-1.56-1.08a4.615 4.615 0 0 0-1.363-3.066L16.946 2.87a4.754 4.754 0 0 0-3.565-1.363l-5.98.281a.5.5 0 0 0-.466.4 2.245 2.245 0 0 0 .372 1.758c.364.515.933.862 1.561.95l1.253.178c.214.03.383.168.45.371a.524.524 0 0 1-.134.551L7.307 9.09a5.605 5.605 0 0 1-.432-.428C6.4 8.144 5.81 7.5 4.671 7.5c-1.138 0-1.729.644-2.204 1.162-.278.303-.516.555-.83.702L.99 5.928c-.053-.287-.315-.477-.588-.417-.27.058-.446.338-.392.626l2.759 14.655c.186.99 1.01 1.708 1.96 1.708H19.27c.95 0 1.775-.719 1.961-1.708l2.76-14.655c.053-.288-.122-.568-.393-.626zM11.14 6.706c.42-.414.565-1.018.38-1.576a1.544 1.544 0 0 0-1.26-1.048l-1.252-.177a1.294 1.294 0 0 1-1.112-1.14l5.532-.26a3.769 3.769 0 0 1 2.815 1.075l1.667 1.648c.63.622.988 1.431 1.06 2.298-.901.121-1.415.677-1.835 1.136-.429.468-.768.838-1.464.838-.695 0-1.034-.37-1.463-.838-.474-.518-1.064-1.162-2.2-1.162-1.137 0-1.727.644-2.202 1.162-.428.468-.767.838-1.464.838-.009 0-.015-.003-.024-.004l2.822-2.79zm2.246 5.943a.499.499 0 0 0-.707-.004L8.942 16.34a.565.565 0 0 1-.791 0 .535.535 0 0 1-.008-.76l3.744-3.701a.5.5 0 1 0-.703-.711l-3.737 3.694-.013.013-.734.726a.565.565 0 0 1-.791 0 .535.535 0 0 1 0-.767l3.736-3.694a.5.5 0 0 0 .004-.707.49.49 0 0 0-.301-.139c.526-.232.887-.62 1.196-.956.428-.468.767-.838 1.463-.838.696 0 1.035.37 1.464.838.474.517 1.064 1.162 2.2 1.162 1.137 0 1.727-.645 2.201-1.162.334-.365.619-.663 1.055-.78a3.64 3.64 0 0 1-1.017 1.87l-5.978 5.912a.565.565 0 0 1-.792 0 .535.535 0 0 1 0-.767l2.242-2.217a.5.5 0 0 0 .004-.707zM7.46 10.343a2.51 2.51 0 0 0 1.486.082l-.005.004-2.99 2.955a.565.565 0 0 1-.79 0 .535.535 0 0 1 0-.767l2.3-2.274zm12.79 10.24c-.093.495-.505.917-.98.917H4.73c-.475 0-.888-.422-.98-.917L1.823 10.355c.618-.212 1.024-.63 1.38-1.017.43-.468.769-.838 1.467-.838.698 0 1.038.37 1.468.838.137.15.286.308.452.46l-2.133 2.108A1.53 1.53 0 0 0 4 13.001a1.552 1.552 0 0 0 .964 1.428 1.522 1.522 0 0 0-.216.788c0 .414.162.803.458 1.095.513.51 1.301.586 1.9.23a1.558 1.558 0 0 0 1.441.957c.398 0 .795-.149 1.098-.449l.469-.462a1.569 1.569 0 0 0 2.521.463l5.978-5.911a4.623 4.623 0 0 0 1.309-2.515c.338.144.591.4.877.713.355.387.76.804 1.378 1.017L20.25 20.582z"/>
</symbol>
<symbol id="hanger" viewBox="0 0 24 24"><g clip-path="url(#clip0_2830_7794)"><path d="M22.834 16.109l-8.642-5.4a.947.947 0 0 0-.502-.145h-.742v-.403a3.5 3.5 0 0 0 2.546-3.363A3.498 3.498 0 0 0 12 3.305a3.498 3.498 0 0 0-3.494 3.493.948.948 0 0 0 1.896 0A1.6 1.6 0 0 1 12 5.201a1.6 1.6 0 0 1 1.597 1.597A1.6 1.6 0 0 1 12 8.396a.948.948 0 0 0-.948.948v1.22h-.742a.948.948 0 0 0-.502.144l-8.642 5.4A2.468 2.468 0 0 0 0 18.214a2.485 2.485 0 0 0 2.482 2.482h19.036A2.485 2.485 0 0 0 24 18.213c0-.86-.436-1.648-1.166-2.104zm-1.316 2.69H2.482a.586.586 0 0 1-.31-1.082l8.41-5.257h2.836l8.41 5.257a.586.586 0 0 1-.31 1.082z"/></g><defs><clipPath id="clip0_2830_7794"><path d="M0 0h24v24H0z"/></clipPath></defs>
</symbol>
<symbol id="heart-filled" viewBox="0 0 24 24"><path fill-rule="evenodd" d="M12 4.106C8.47.752 3.263 2.138 1.358 5.876c-1.046 2.051-1.06 4.702.483 7.512 1.529 2.785 4.578 5.725 9.674 8.541l.483.267.484-.267c5.096-2.816 8.145-5.756 9.674-8.54 1.543-2.81 1.53-5.462.484-7.513-1.905-3.738-7.112-5.124-10.642-1.77z" clip-rule="evenodd"/>
</symbol>
<symbol id="heart-outline" viewBox="0 0 24 24"><path fill-rule="evenodd" d="M12 19.907c-4.6-2.62-7.165-5.223-8.405-7.482-1.27-2.312-1.159-4.259-.454-5.64 1.448-2.842 5.565-3.75 8.074-.577l.784.992.785-.992c2.509-3.173 6.627-2.265 8.075.576.704 1.382.815 3.33-.455 5.641-1.24 2.26-3.805 4.863-8.405 7.482zm0-15.801C8.47.752 3.263 2.138 1.358 5.876c-1.046 2.051-1.06 4.702.483 7.512 1.529 2.785 4.578 5.725 9.674 8.541l.483.267.484-.267c5.096-2.816 8.145-5.756 9.674-8.54 1.543-2.81 1.53-5.462.484-7.513-1.905-3.738-7.112-5.124-10.642-1.77z" clip-rule="evenodd"/>
</symbol>
<symbol id="history" viewBox="0 0 24 24"><path d="M3.858.5a1 1 0 0 1 1 1v2.134A10.96 10.96 0 0 1 12 1c6.075 0 11 4.925 11 11s-4.925 11-11 11S1 18.075 1 12a1 1 0 1 1 2 0 9 9 0 1 0 9-9 8.959 8.959 0 0 0-5.657 2H8.36a1 1 0 1 1 0 2H3.858a1 1 0 0 1-1-1V1.5a1 1 0 0 1 1-1z"/><path fill-rule="evenodd" d="M12 5.6a.9.9 0 0 1 .9.9v5.127l2.736 2.737a.9.9 0 0 1-1.272 1.272l-3-3A.9.9 0 0 1 11.1 12V6.5a.9.9 0 0 1 .9-.9z" clip-rule="evenodd"/>
</symbol>
<symbol id="home" viewBox="0 0 24 24"><path fill-rule="evenodd" d="M12.784 4.17a3 3 0 0 0-1.568 0c-.535.145-1.053.525-2.531 1.674l-2.6 2.023c-.952.74-1.271 1-1.497 1.304a3 3 0 0 0-.477.976c-.102.365-.111.777-.111 1.982v6.62c0 .77.01.934.043 1.04a1 1 0 0 0 .667.667c.106.032.27.043 1.04.043h.625l.174-.001a1 1 0 0 0 .95-.95l.001-.174v-2.875a4.5 4.5 0 1 1 9 0v2.875l.001.174a1 1 0 0 0 .95.95l.174.001h.625c.77 0 .934-.01 1.04-.043a1 1 0 0 0 .667-.667c.032-.106.043-.27.043-1.04v-6.62c0-1.205-.009-1.617-.111-1.982a2.999 2.999 0 0 0-.477-.976c-.226-.305-.545-.564-1.497-1.304l-2.6-2.023c-1.478-1.15-1.996-1.529-2.531-1.673zm-2.09-1.93a5 5 0 0 1 2.613 0c.973.264 1.827.929 3.066 1.893l.17.133 2.6 2.022.107.083c.804.625 1.36 1.057 1.77 1.611.361.489.63 1.04.795 1.626.186.663.185 1.368.185 2.386v6.881c0 .571.001 1.064-.13 1.495a3 3 0 0 1-2 2c-.43.13-.923.13-1.494.13l-.126-.001h-.646c-.095 0-.177 0-.251-.004a3 3 0 0 1-2.85-2.849c-.003-.074-.003-.156-.003-.251v-2.896a2.5 2.5 0 1 0-5 0v2.896c0 .095 0 .177-.004.251a3 3 0 0 1-2.849 2.85c-.074.003-.156.003-.251.003h-.772c-.571 0-1.065.001-1.495-.13a3 3 0 0 1-2-2C2 19.94 2 19.447 2 18.876v-6.881c0-1.018 0-1.723.186-2.386a5 5 0 0 1 .795-1.626c.41-.554.966-.986 1.77-1.611l.107-.083 2.6-2.022.17-.133c1.239-.964 2.093-1.63 3.066-1.893z" clip-rule="evenodd"/>
</symbol>
<symbol id="horizontal" viewBox="0 0 24 24"><path fill-rule="evenodd" d="M16.293 3.293a1 1 0 0 1 1.414 0l3.5 3.5a1 1 0 0 1 0 1.414l-3.5 3.5a1 1 0 0 1-1.414-1.414L18.086 8.5H4.5a1 1 0 0 1 0-2h13.586l-1.793-1.793a1 1 0 0 1 0-1.414zm-8.586 9a1 1 0 0 1 0 1.414L5.914 15.5H19.5a1 1 0 1 1 0 2H5.914l1.793 1.793a1 1 0 1 1-1.414 1.414l-3.5-3.5a1 1 0 0 1 0-1.414l3.5-3.5a1 1 0 0 1 1.414 0z" clip-rule="evenodd"/>
</symbol>
<symbol id="ic-call-center" viewBox="0 0 48 48"><path d="M28.69 22.5a.938.938 0 1 0 0-1.876.938.938 0 0 0 0 1.876zm-9.375 0a.938.938 0 1 0 0-1.876.938.938 0 0 0 0 1.876z"/><path d="M3.375 45.005v2.057c0 .518.42.938.938.938h39.374c.518 0 .938-.42.938-.938v-2.06c0-3.727-2.094-7.173-5.97-8.588a6.578 6.578 0 0 0 2.252-4.954.938.938 0 0 0-.938-.937 4.73 4.73 0 0 1-4.613-3.71h2.71A2.815 2.815 0 0 0 40.875 24v-4.313A2.817 2.817 0 0 0 39 17.037V15c0-8.27-6.728-15-14.997-15C15.714 0 9 6.708 9 15v2.037a2.819 2.819 0 0 0-1.875 2.65V24a2.817 2.817 0 0 0 2.815 2.813h2.704a4.726 4.726 0 0 1-4.609 3.71.938.938 0 0 0-.937.937c0 1.941.854 3.735 2.258 4.96-3.861 1.415-5.981 4.896-5.981 8.585zM38.953 32.32a4.698 4.698 0 0 1-2.886 3.506l-5.68-.738-.606-2.371a11.214 11.214 0 0 0 4.127-4.311 6.628 6.628 0 0 0 5.045 3.914zm-7.436-15.445c-2.59 0-4.697-2.133-4.697-4.756a.937.937 0 1 0-1.875 0c0 2.623-2.107 4.756-4.698 4.756h-5.62c0-5.17 4.207-9.375 9.376-9.375a9.37 9.37 0 0 1 9.375 9.375h-1.861zM14.625 18.75h5.622c2.39 0 4.485-1.292 5.635-3.22 1.151 1.928 3.246 3.22 5.635 3.22h1.858v4.313a9.341 9.341 0 0 1-5.125 8.359 9.27 9.27 0 0 1-4.247 1.015 9.279 9.279 0 0 1-4.235-1.007 9.374 9.374 0 0 1-2.396-1.739 9.31 9.31 0 0 1-2.747-6.628V18.75zm5.336 14.815c1.284.495 2.639.748 4.042.748 1.409 0 2.769-.255 4.058-.756l.595 2.328a4.67 4.67 0 0 1-4.644 4.053 4.67 4.67 0 0 1-4.644-4.052l.593-2.321zM39 24c0 .517-.42.938-.935.938H35.25V18.75h2.815c.516 0 .935.42.935.938V24zM24.003 1.875c7.235 0 13.122 5.888 13.122 13.125v1.875h-1.872c0-6.216-5.03-11.25-11.25-11.25-6.203 0-11.25 5.047-11.25 11.25h-1.878V15c0-7.252 5.872-13.125 13.128-13.125zM9 24v-4.313a.94.94 0 0 1 .94-.937h2.81v6.188H9.94A.94.94 0 0 1 9 24zm5.093 4.403a11.288 11.288 0 0 0 4.147 4.322l-.604 2.364-5.695.739a4.702 4.702 0 0 1-2.889-3.508 6.624 6.624 0 0 0 5.041-3.917zm-2.251 9.328l.103-.014h.003l5.73-.743a6.54 6.54 0 0 0 6.334 4.839 6.539 6.539 0 0 0 6.333-4.84l5.836.758c4.11.534 6.569 3.614 6.569 7.272v1.122H5.25v-1.12c0-3.59 2.457-6.737 6.592-7.274z"/><path d="M21.496 28.944c.787.37 1.63.56 2.506.56.856 0 1.682-.181 2.458-.537a.937.937 0 1 0-.782-1.704 3.99 3.99 0 0 1-1.675.365 3.972 3.972 0 0 1-1.707-.38.937.937 0 1 0-.8 1.696zM32.44 43.688h3.75a.937.937 0 1 0 0-1.876h-3.75a.937.937 0 1 0 0 1.876zm7.498-1.875a.938.938 0 1 1-.001 1.875.938.938 0 0 1 0-1.876z"/>
</symbol>
<symbol id="ic-credit-card" viewBox="0 0 49 48"><g clip-path="url(#clip0_2830_8572)"><path d="M24.906 33.375a.938.938 0 1 0 .001 1.876.938.938 0 0 0 0-1.876z"/><path d="M46.094 18.375h-3.375V4.312A2.816 2.816 0 0 0 39.906 1.5H3.72A2.816 2.816 0 0 0 .906 4.313v22.5a2.816 2.816 0 0 0 2.813 2.812h3.375v14.063A2.816 2.816 0 0 0 9.906 46.5h36.188a2.815 2.815 0 0 0 2.812-2.813v-22.5a2.815 2.815 0 0 0-2.812-2.812zM2.78 9h38.063v3.75H2.78V9zm.938-5.625h36.187c.517 0 .938.42.938.938v2.812H2.78V4.312c0-.517.42-.937.938-.937zm0 24.375a.938.938 0 0 1-.938-.938V14.626h38.063v3.75H9.906a2.816 2.816 0 0 0-2.812 2.813v6.562H3.719zM47.03 43.688c0 .517-.42.937-.937.937H9.906a.938.938 0 0 1-.937-.938v-22.5c0-.517.42-.937.937-.937h36.188c.517 0 .937.42.937.938v22.5z"/><path d="M38.031 24a4.69 4.69 0 0 0-2.813.94 4.686 4.686 0 0 0-2.812-.94 4.693 4.693 0 0 0-4.687 4.688 4.693 4.693 0 0 0 4.687 4.687 4.685 4.685 0 0 0 2.812-.94 4.69 4.69 0 0 0 2.813.94 4.693 4.693 0 0 0 4.688-4.688A4.693 4.693 0 0 0 38.03 24zm-8.437 4.688a2.811 2.811 0 1 1 4.92-1.86h.001a2.804 2.804 0 0 1 0 3.72 2.811 2.811 0 0 1-4.921-1.86zM38.03 31.5a2.815 2.815 0 0 1-1.563-.475 4.68 4.68 0 0 0 0-4.675 2.815 2.815 0 0 1 1.563-.475 2.816 2.816 0 0 1 2.813 2.813A2.816 2.816 0 0 1 38.03 31.5zM17.406 39h-3.75a.937.937 0 1 0 0 1.875h3.75a.937.937 0 1 0 0-1.875zm7.5 0h-3.75a.937.937 0 1 0 0 1.875h3.75a.937.937 0 1 0 0-1.875zm7.5 0h-3.75a.937.937 0 1 0 0 1.875h3.75a.937.937 0 1 0 0-1.875zm7.5 0h-3.75a.937.937 0 1 0 0 1.875h3.75a.937.937 0 1 0 0-1.875zm-26.25-3.75h7.5a.937.937 0 1 0 0-1.875h-7.5a.937.937 0 1 0 0 1.875z"/></g><defs><clipPath id="clip0_2830_8572"><path d="M0 0h48v48H0z" transform="translate(.906)"/></clipPath></defs>
</symbol>
<symbol id="ic-delivery" viewBox="0 0 48 48"><path d="M40.5 34.313a1.874 1.874 0 1 0-.001 3.748 1.874 1.874 0 0 0 .001-3.748zm-.937-7.5a.938.938 0 1 0 0 1.875.938.938 0 0 0 0-1.875zm-27.75 7.5a1.874 1.874 0 1 0-.002 3.748 1.874 1.874 0 0 0 .002-3.748z"/><path d="M44.06 23.123l-1.617-6.466a2.79 2.79 0 0 0 .87-2.032 2.816 2.816 0 0 0-2.813-2.813H33V9a2.816 2.816 0 0 0-2.813-2.813H2.813A2.816 2.816 0 0 0 0 9v24.375a2.816 2.816 0 0 0 2.813 2.813h3.374a5.631 5.631 0 0 0 5.625 5.624 5.631 5.631 0 0 0 5.626-5.624h17.437a5.631 5.631 0 0 0 5.625 5.624 5.631 5.631 0 0 0 5.625-5.624c0-.054-.003-.107-.004-.16A2.817 2.817 0 0 0 48 33.375V27.75c0-2.33-1.71-4.269-3.94-4.627zm-3.355-5.686l1.407 5.625h-7.786l2.15-2.15a.937.937 0 1 0-1.326-1.325L33 21.737v-4.3h7.705zm.733-2.812c0 .518-.42.938-.938.938H33v-1.876h7.5c.517 0 .938.42.938.938zM11.811 39.938a3.754 3.754 0 0 1-3.75-3.75 3.756 3.756 0 0 1 3.75-3.75 3.756 3.756 0 0 1 3.75 3.75 3.754 3.754 0 0 1-3.75 3.75zm5.304-5.626a5.645 5.645 0 0 0-5.303-3.75 5.644 5.644 0 0 0-5.304 3.75H2.812a.938.938 0 0 1-.937-.937V9c0-.517.42-.938.938-.938h27.375c.517 0 .937.42.937.938v25.313h-14.01zM40.5 39.938a3.754 3.754 0 0 1-3.75-3.75 3.756 3.756 0 0 1 3.75-3.75 3.756 3.756 0 0 1 3.75 3.75 3.754 3.754 0 0 1-3.75 3.75zm5.236-5.805a5.646 5.646 0 0 0-5.236-3.57 5.644 5.644 0 0 0-5.303 3.75H33v-9.376h10.313c1.221 0 2.264.784 2.65 1.875h-2.65a.937.937 0 1 0 0 1.875h2.812v4.688a.937.937 0 0 1-.389.758z"/><path d="M16.5 11.813c-4.652 0-8.438 3.785-8.438 8.437 0 4.652 3.786 8.438 8.438 8.438 4.652 0 8.438-3.786 8.438-8.438 0-4.652-3.786-8.438-8.438-8.438zm0 15a6.57 6.57 0 0 1-6.563-6.563 6.57 6.57 0 0 1 6.563-6.563 6.57 6.57 0 0 1 6.563 6.563 6.57 6.57 0 0 1-6.563 6.563z"/><path d="M20.25 19.313h-2.813V16.5a.937.937 0 1 0-1.875 0v3.75c0 .518.42.938.938.938h3.75a.937.937 0 1 0 0-1.875z"/>
</symbol>
<symbol id="ic-shield" viewBox="0 0 48 48"><g clip-path="url(#clip0_2830_8571)"><path d="M23.944 27.281a.938.938 0 1 0-.001-1.876.938.938 0 0 0 0 1.876z"/><path d="M23.408 47.732a.936.936 0 0 0 1.09 0c9.552-6.823 19.143-9.817 19.143-23.856V6.496a.938.938 0 0 0-.86-.934l-2.437-.204C34.758 4.893 29.262 3.057 24.45.048a.938.938 0 0 0-.994 0c-4.812 3.009-10.308 4.845-15.894 5.31l-2.437.204a.937.937 0 0 0-.86.934v17.38c0 14.435 10.938 17.995 19.143 23.856zM6.141 7.358l1.577-.131c5.69-.475 11.29-2.298 16.235-5.283 4.944 2.985 10.545 4.808 16.235 5.283l1.578.131v16.518c0 12.66-8.435 15.375-17.814 21.946C15.72 40.108 6.14 36.865 6.14 23.876V7.358z"/><path d="M23.407 40.917a.93.93 0 0 0 1.093-.024c8.486-5.875 13.516-7.808 13.516-17.016V11.581a.938.938 0 0 0-.799-.927 41.307 41.307 0 0 1-12.834-4.15.954.954 0 0 0-.901.02 41.28 41.28 0 0 1-12.793 4.13.937.937 0 0 0-.798.927v12.296c0 9.295 5.508 11.576 13.516 17.04zM11.766 12.38a43.11 43.11 0 0 0 11.24-3.532v13.746a.937.937 0 1 0 1.875 0V8.84a43.16 43.16 0 0 0 11.26 3.54v11.497c0 7.621-3.57 9.283-11.26 14.483v-8.266a.937.937 0 1 0-1.875 0v8.293c-7.185-4.782-11.24-6.826-11.24-14.51V12.38z"/></g><defs><clipPath id="clip0_2830_8571"><path d="M0 0h47.906v48H0z"/></clipPath></defs>
</symbol>
<symbol id="info" viewBox="0 0 24 24"><path fill-rule="evenodd" d="M12 9.5a1 1 0 0 1 1 1v6a1 1 0 1 1-2 0v-6a1 1 0 0 1 1-1z" clip-rule="evenodd"/><path d="M13 7a1 1 0 1 1-2 0 1 1 0 0 1 2 0z"/><path fill-rule="evenodd" d="M12 3a9 9 0 1 0 0 18 9 9 0 0 0 0-18zM1 12C1 5.925 5.925 1 12 1s11 4.925 11 11-4.925 11-11 11S1 18.075 1 12z" clip-rule="evenodd"/>
</symbol>
<symbol id="instagram-filled" viewBox="0 0 24 24"><path fill-rule="evenodd" d="M2 12c0-4.191 0-6.287 1.05-7.733A5.5 5.5 0 0 1 4.267 3.05C5.713 2 7.81 2 12 2s6.287 0 7.733 1.05a5.5 5.5 0 0 1 1.217 1.217C22 5.713 22 7.81 22 12s0 6.287-1.05 7.733a5.5 5.5 0 0 1-1.217 1.217C18.287 22 16.19 22 12 22s-6.287 0-7.733-1.05a5.5 5.5 0 0 1-1.217-1.217C2 18.287 2 16.19 2 12zm10-5.294a5.294 5.294 0 1 0 0 10.589 5.294 5.294 0 0 0 0-10.59zm0 8.603A3.313 3.313 0 0 1 8.691 12 3.313 3.313 0 0 1 12 8.691 3.313 3.313 0 0 1 15.309 12 3.313 3.313 0 0 1 12 15.309zm6.397-9a.705.705 0 1 1-1.411 0 .705.705 0 0 1 1.41 0z" clip-rule="evenodd"/>
</symbol>
<symbol id="instagram" viewBox="0 0 24 24"><path d="M21.98 7.88c-.046-1.063-.218-1.793-.464-2.426a4.88 4.88 0 0 0-1.157-1.774 4.922 4.922 0 0 0-1.77-1.153c-.637-.246-1.363-.418-2.426-.464-1.07-.051-1.41-.063-4.126-.063-2.715 0-3.055.012-4.122.059-1.062.046-1.793.218-2.426.464A4.88 4.88 0 0 0 3.715 3.68a4.924 4.924 0 0 0-1.152 1.77c-.247.637-.418 1.363-.465 2.426-.051 1.07-.063 1.41-.063 4.126 0 2.715.012 3.055.059 4.122.047 1.063.219 1.793.465 2.426a4.932 4.932 0 0 0 1.156 1.774 4.92 4.92 0 0 0 1.77 1.152c.637.247 1.364.419 2.426.465 1.067.047 1.407.059 4.122.059 2.716 0 3.056-.012 4.122-.059 1.063-.046 1.793-.218 2.426-.464a5.116 5.116 0 0 0 2.927-2.927c.246-.637.418-1.364.465-2.426.047-1.067.058-1.407.058-4.122s-.004-3.055-.05-4.122zm-1.8 8.166c-.044.977-.208 1.504-.345 1.855a3.317 3.317 0 0 1-1.898 1.9c-.352.136-.883.3-1.856.343-1.055.047-1.371.059-4.04.059-2.668 0-2.989-.012-4.04-.059-.977-.043-1.504-.207-1.856-.344a3.077 3.077 0 0 1-1.148-.746 3.11 3.11 0 0 1-.747-1.148c-.136-.352-.3-.883-.343-1.856-.047-1.055-.059-1.372-.059-4.04 0-2.669.012-2.99.059-4.04.043-.977.207-1.504.343-1.856A3.04 3.04 0 0 1 5 4.965a3.105 3.105 0 0 1 1.15-.746c.35-.137.882-.3 1.855-.344 1.055-.046 1.372-.058 4.04-.058 2.672 0 2.989.012 4.04.058.977.043 1.504.207 1.856.344.433.16.828.414 1.148.746.332.325.586.715.747 1.15.136.35.3.882.343 1.855.047 1.055.059 1.371.059 4.04 0 2.668-.012 2.98-.059 4.036z"/><path d="M12.037 6.864A5.139 5.139 0 0 0 6.9 12.002a5.139 5.139 0 1 0 5.138-5.138zm0 8.47a3.333 3.333 0 1 1 .001-6.666 3.333 3.333 0 0 1 0 6.667zm6.541-8.673a1.2 1.2 0 1 1-2.4 0 1.2 1.2 0 0 1 2.4 0z"/>
</symbol>
<symbol id="iphone" viewBox="0 0 24 24"><path fill-rule="evenodd" d="M8.5 2.922a1.5 1.5 0 0 0-1.5 1.5v15.156a1.5 1.5 0 0 0 1.5 1.5h7a1.5 1.5 0 0 0 1.5-1.5V4.422a1.5 1.5 0 0 0-1.5-1.5h-.083l-.244.584a1 1 0 0 1-.923.616h-4.5a1 1 0 0 1-.923-.616l-.244-.584H8.5zM5 4.422a3.5 3.5 0 0 1 3.5-3.5h7a3.5 3.5 0 0 1 3.5 3.5v15.156a3.5 3.5 0 0 1-3.5 3.5h-7a3.5 3.5 0 0 1-3.5-3.5V4.422z" clip-rule="evenodd"/>
</symbol>
<symbol id="ironing-1" viewBox="0 0 24 24"><path d="M23.996 19.434L22.169 5.736A2.006 2.006 0 0 0 20.186 4H8.5a.5.5 0 1 0 0 1h11.686c.5 0 .926.373.992.868L21.862 11H8.5C3.813 11 0 14.813 0 19.5a.5.5 0 0 0 .5.5h23a.5.5 0 0 0 .496-.566zM1.016 19c.259-3.903 3.517-7 7.484-7h13.496l.933 7H1.017z"/><path d="M12 16.5a1 1 0 1 0 0-2 1 1 0 0 0 0 2z"/>
</symbol>
<symbol id="ironing-2" viewBox="0 0 24 24"><path d="M23.996 19.434L22.169 5.736A2.006 2.006 0 0 0 20.186 4H8.5a.5.5 0 1 0 0 1h11.686c.5 0 .926.373.992.868L21.862 11H8.5C3.813 11 0 14.813 0 19.5a.5.5 0 0 0 .5.5h23a.5.5 0 0 0 .496-.566zM1.016 19c.259-3.903 3.517-7 7.484-7h13.496l.933 7H1.017z"/><path d="M10 16.5a1 1 0 1 0 0-2 1 1 0 0 0 0 2zm4 0a1 1 0 1 0 0-2 1 1 0 0 0 0 2z"/>
</symbol>
<symbol id="ironing-3" viewBox="0 0 24 24"><path d="M23.996 19.434L22.169 5.736A2.006 2.006 0 0 0 20.186 4H8.5a.5.5 0 1 0 0 1h11.686c.5 0 .926.373.992.868L21.862 11H8.5C3.813 11 0 14.813 0 19.5a.5.5 0 0 0 .5.5h23a.5.5 0 0 0 .496-.566zM1.016 19c.259-3.903 3.517-7 7.484-7h13.496l.933 7H1.017z"/><path d="M8 16.5a1 1 0 1 0 0-2 1 1 0 0 0 0 2zm4 0a1 1 0 1 0 0-2 1 1 0 0 0 0 2zm4 0a1 1 0 1 0 0-2 1 1 0 0 0 0 2z"/>
</symbol>
<symbol id="ironing" viewBox="0 0 24 24"><path d="M23.996 19.434L22.169 5.736A2.006 2.006 0 0 0 20.186 4H8.5a.5.5 0 1 0 0 1h11.686c.5 0 .926.373.992.868L21.862 11H8.5C3.813 11 0 14.813 0 19.5a.5.5 0 0 0 .5.5h23a.5.5 0 0 0 .496-.566zM1.016 19c.259-3.903 3.517-7 7.484-7h13.496l.933 7H1.017z"/>
</symbol>
<symbol id="layouts" viewBox="0 0 24 24"><g fill-rule="evenodd" clip-rule="evenodd"><path d="M11.553 1.106a1 1 0 0 1 .894 0l10 5a1 1 0 0 1 0 1.788l-10 5a1 1 0 0 1-.894 0l-10-5a1 1 0 0 1 0-1.788l10-5zM4.236 7L12 10.882 19.764 7 12 3.118 4.236 7z"/><path d="M1.106 11.553a1 1 0 0 1 1.341-.447L12 15.882l9.553-4.776a1 1 0 1 1 .894 1.788l-10 5a1 1 0 0 1-.894 0l-10-5a1 1 0 0 1-.447-1.341z"/><path d="M1.106 16.553a1 1 0 0 1 1.341-.447L12 20.882l9.553-4.776a1 1 0 1 1 .894 1.788l-10 5a1 1 0 0 1-.894 0l-10-5a1 1 0 0 1-.447-1.341z"/></g>
</symbol>
<symbol id="left-chevron" viewBox="0 0 24 24"><path fill-rule="evenodd" d="M15.707 4.293a1 1 0 0 0-1.414 0l-7 7a1 1 0 0 0 0 1.414l7 7a1 1 0 0 0 1.414-1.414L9.414 12l6.293-6.293a1 1 0 0 0 0-1.414z" clip-rule="evenodd"/>
</symbol>
<symbol id="left" viewBox="0 0 24 24"><path fill-rule="evenodd" d="M9.207 17.207a1 1 0 0 1-1.414 0l-4.5-4.5a1 1 0 0 1 0-1.414l4.5-4.5a1 1 0 0 1 1.414 1.414L6.414 11H20a1 1 0 1 1 0 2H6.414l2.793 2.793a1 1 0 0 1 0 1.414z" clip-rule="evenodd"/>
</symbol>
<symbol id="like" viewBox="0 0 24 24"><path fill-rule="evenodd" d="M14.182 3.25a.393.393 0 0 0-.34.195l-.006.01-4.586 7.436v9.859h8.586a.393.393 0 0 0 .383-.308l.004-.015 2.55-9.96a.393.393 0 0 0-.386-.467H16.5c-.651 0-1.31-.218-1.79-.686-.504-.492-.738-1.197-.588-1.956l.719-3.639a.393.393 0 0 0-.385-.469h-.274zM7.25 20.75v-9.143H3.707a.393.393 0 0 0-.393.39l-.064 8.357a.393.393 0 0 0 .393.396H7.25zm.442-11.143l4.43-7.182a2.393 2.393 0 0 1 2.06-1.175h.274a2.393 2.393 0 0 1 2.347 2.857l-.719 3.638a.208.208 0 0 0-.002.1c.002.008.007.02.025.038.042.04.166.117.393.117h3.887a2.393 2.393 0 0 1 2.336 2.912l-.004.016-2.551 9.966a2.393 2.393 0 0 1-2.332 1.856H3.643a2.393 2.393 0 0 1-2.393-2.411l.064-8.357a2.393 2.393 0 0 1 2.393-2.375h3.985z" clip-rule="evenodd"/>
</symbol>
<symbol id="linked-in" viewBox="0 0 24 24"><path d="M21.995 22H22v-7.336c0-3.588-.773-6.352-4.968-6.352-2.016 0-3.37 1.106-3.922 2.155h-.058v-1.82H9.074v13.352h4.142v-6.611c0-1.741.33-3.425 2.486-3.425 2.124 0 2.156 1.987 2.156 3.536V22h4.137zM2.33 8.648h4.147V22H2.33V8.648zM4.402 2A2.402 2.402 0 0 0 2 4.402c0 1.325 1.076 2.424 2.402 2.424 1.325 0 2.401-1.098 2.401-2.424A2.403 2.403 0 0 0 4.402 2z"/>
</symbol>
<symbol id="list" viewBox="0 0 24 24"><path fill-rule="evenodd" d="M1 3.5A2.5 2.5 0 0 1 3.5 1h17A2.5 2.5 0 0 1 23 3.5v5a2.5 2.5 0 0 1-2.5 2.5h-17A2.5 2.5 0 0 1 1 8.5v-5zM3.5 3a.5.5 0 0 0-.5.5v5a.5.5 0 0 0 .5.5h17a.5.5 0 0 0 .5-.5v-5a.5.5 0 0 0-.5-.5h-17zM1 15.5A2.5 2.5 0 0 1 3.5 13h17a2.5 2.5 0 0 1 2.5 2.5v5a2.5 2.5 0 0 1-2.5 2.5h-17A2.5 2.5 0 0 1 1 20.5v-5zm2.5-.5a.5.5 0 0 0-.5.5v5a.5.5 0 0 0 .5.5h17a.5.5 0 0 0 .5-.5v-5a.5.5 0 0 0-.5-.5h-17z" clip-rule="evenodd"/>
</symbol>
<symbol id="lock" viewBox="0 0 24 24"><g fill-rule="evenodd" clip-rule="evenodd"><path d="M20.75 17.75V13a3 3 0 0 0-3-3H6.25a3 3 0 0 0-3 3v4.75a3 3 0 0 0 3 3h11.5a3 3 0 0 0 3-3zm2-4.75v4.75a5 5 0 0 1-5 5H6.25a5 5 0 0 1-5-5V13a5 5 0 0 1 5-5h11.5a5 5 0 0 1 5 5z"/><path d="M12 3.25a5 5 0 0 0-5 5H5a7 7 0 0 1 14 0h-2a5 5 0 0 0-5-5zm0 9.25a1 1 0 0 1 1 1v3a1 1 0 1 1-2 0v-3a1 1 0 0 1 1-1z"/></g>
</symbol>
<symbol id="login" viewBox="0 0 24 24"><path d="M7.5 20.75a1 1 0 1 0 0 2h10.25a5 5 0 0 0 5-5V6.25a5 5 0 0 0-5-5H7.5a1 1 0 1 0 0 2h10.25a3 3 0 0 1 3 3v11.5a3 3 0 0 1-3 3H7.5z"/><path d="M18.25 12a1 1 0 0 1-.293.707l-4.5 4.5a1 1 0 0 1-1.414-1.414L14.836 13H2.25a1 1 0 1 1 0-2h12.586l-2.793-2.793a1 1 0 0 1 1.414-1.414l4.5 4.5a1 1 0 0 1 .293.707z"/>
</symbol>
<symbol id="logout" viewBox="0 0 24 24"><path d="M16.5 20.75a1 1 0 1 1 0 2H6.25a5 5 0 0 1-5-5V6.25a5 5 0 0 1 5-5H16.5a1 1 0 1 1 0 2H6.25a3 3 0 0 0-3 3v11.5a3 3 0 0 0 3 3H16.5z"/><path d="M5.75 12a1 1 0 0 0 .293.707l4.5 4.5a1 1 0 0 0 1.414-1.414L9.164 13H21.75a1 1 0 1 0 0-2H9.164l2.793-2.793a1 1 0 0 0-1.414-1.414l-4.5 4.5A1 1 0 0 0 5.75 12z"/>
</symbol>
<symbol id="mail" viewBox="0 0 24 24"><path fill-rule="evenodd" d="M22.75 18V7a3 3 0 0 0-3-3H4.25a3 3 0 0 0-3 3v11a3 3 0 0 0 3 3h15.5a3 3 0 0 0 3-3zm-2-8.74V18a1 1 0 0 1-1 1H4.25a1 1 0 0 1-1-1V9.26l7.063 4.802a3 3 0 0 0 3.374 0L20.75 9.26zm-.011-2.411A1 1 0 0 0 19.75 6H4.25a1 1 0 0 0-.989.848l8.177 5.56a1 1 0 0 0 1.124 0l8.177-5.56z" clip-rule="evenodd"/>
</symbol>
<symbol id="mark" viewBox="0 0 24 24"><path fill-rule="evenodd" d="M21.707 5.293a1 1 0 0 1 0 1.414l-12 12a1 1 0 0 1-1.414 0l-6-6a1 1 0 1 1 1.414-1.414L9 16.586 20.293 5.293a1 1 0 0 1 1.414 0z" clip-rule="evenodd"/>
</symbol>
<symbol id="mention" viewBox="0 0 24 24"><g fill-rule="evenodd" clip-rule="evenodd"><path d="M6.5 12a5.5 5.5 0 1 1 11 0 5.5 5.5 0 0 1-11 0zM12 8.5a3.5 3.5 0 1 0 0 7 3.5 3.5 0 0 0 0-7z"/><path d="M12 3.25a8.75 8.75 0 0 0 0 17.5 1 1 0 1 1 0 2C6.063 22.75 1.25 17.937 1.25 12S6.063 1.25 12 1.25 22.75 6.063 22.75 12c0 1.123-.2 2.748-.72 4.129C21.542 17.417 20.564 19 18.75 19c-.89 0-1.773-.233-2.41-.939-.619-.684-.84-1.632-.84-2.686V8.25a1 1 0 1 1 2 0v7.125c0 .82.179 1.185.323 1.345.125.138.366.28.927.28.435 0 .957-.383 1.408-1.578.416-1.102.592-2.477.592-3.422A8.75 8.75 0 0 0 12 3.25z"/></g>
</symbol>
<symbol id="messenger" viewBox="0 0 24 24"><path d="M12 2C6.478 2 2 6.145 2 11.259c0 2.913 1.454 5.512 3.726 7.21V22l3.405-1.869c.909.252 1.871.388 2.869.388 5.523 0 10-4.145 10-9.259C22 6.146 17.523 2 12 2zm.994 12.469l-2.546-2.716-4.97 2.716 5.467-5.803 2.609 2.716 4.906-2.716-5.466 5.803z"/>
</symbol>
<symbol id="mic" viewBox="0 0 24 24"><g fill-rule="evenodd" clip-rule="evenodd"><path d="M6.2 6.4a5.8 5.8 0 0 1 11.6 0v4.8a5.8 5.8 0 1 1-11.6 0V6.4zM12 2.6a3.8 3.8 0 0 0-3.8 3.8v4.8a3.8 3.8 0 1 0 7.6 0V6.4A3.8 3.8 0 0 0 12 2.6z"/><path d="M4 8.6a1 1 0 0 1 1 1v1.6a7 7 0 1 0 14 0V9.6a1 1 0 1 1 2 0v1.6a9 9 0 1 1-18 0V9.6a1 1 0 0 1 1-1z"/><path d="M12 19a1 1 0 0 1 1 1v1.4h2.2a1 1 0 1 1 0 2H8.8a1 1 0 1 1 0-2H11V20a1 1 0 0 1 1-1z"/></g>
</symbol>
<symbol id="minus-round" viewBox="0 0 24 24"><g fill-rule="evenodd" clip-rule="evenodd"><path d="M5.75 12a1 1 0 0 1 1-1h10.5a1 1 0 1 1 0 2H6.75a1 1 0 0 1-1-1z"/><path d="M12 3a9 9 0 1 0 0 18 9 9 0 0 0 0-18zM1 12C1 5.925 5.925 1 12 1s11 4.925 11 11-4.925 11-11 11S1 18.075 1 12z"/></g>
</symbol>
<symbol id="minus" viewBox="0 0 24 24"><path fill-rule="evenodd" d="M1 12a1 1 0 0 1 1-1v2a1 1 0 0 1-1-1zm21 0v1H2v-2h20v1zm0 0v1a1 1 0 1 0 0-2v1z" clip-rule="evenodd"/>
</symbol>
<symbol id="no-bleach" viewBox="0 0 24 24"><g clip-path="url(#clip0_2828_7752)"><path d="M23.797 21.098l-2.28-1.685-4.679-9.368 6.959-5.143a.5.5 0 1 0-.594-.804l-6.818 5.04-3.938-7.884c-.17-.339-.724-.339-.894 0L7.615 9.138.797 4.098a.5.5 0 1 0-.594.804l6.959 5.143-4.68 9.368-2.279 1.685a.5.5 0 1 0 .594.803l.702-.518-.446.892A.502.502 0 0 0 1.5 23h21a.502.502 0 0 0 .447-.725l-.446-.892.702.518a.501.501 0 0 0 .7-.104.5.5 0 0 0-.106-.7zM19.742 18.1L12.84 13l3.177-2.348 3.725 7.449zM12 2.618l3.563 7.127L12 12.379 8.437 9.745 12 2.618zm-4.017 8.034L11.159 13l-6.9 5.1 3.724-7.448zM2.309 22l.964-1.928L12 13.622l8.727 6.45.964 1.928H2.31z"/></g><defs><clipPath id="clip0_2828_7752"><path d="M0 0h24v24H0z"/></clipPath></defs>
</symbol>
<symbol id="no-dry-clean" viewBox="0 0 24 24"><g clip-path="url(#clip0_2828_7736)"><path d="M20.818 3.889L23.853.854a.5.5 0 1 0-.707-.708l-3.035 3.036C17.972 1.213 15.129 0 12 0 8.87 0 6.027 1.213 3.889 3.182L.853.146a.5.5 0 1 0-.707.708l3.036 3.035A11.937 11.937 0 0 0 0 12c0 3.129 1.213 5.973 3.182 8.111L.146 23.146a.5.5 0 1 0 .707.707l3.036-3.035C6.027 22.787 8.87 24 11.999 24c3.13 0 5.973-1.213 8.112-3.182l3.035 3.035a.498.498 0 0 0 .707 0 .5.5 0 0 0 0-.707l-3.035-3.035C22.786 17.973 24 15.129 24 12c0-3.129-1.214-5.973-3.182-8.111zM12 1c2.853 0 5.447 1.101 7.404 2.889L12 11.293 4.596 3.889A10.944 10.944 0 0 1 12 1zM3.889 19.404A10.944 10.944 0 0 1 .999 12c0-2.853 1.102-5.447 2.89-7.404L11.293 12l-7.404 7.404zM11.999 23a10.944 10.944 0 0 1-7.403-2.889L12 12.707l7.404 7.404A10.944 10.944 0 0 1 12 23zm8.112-3.596L12.707 12l7.404-7.404A10.945 10.945 0 0 1 23 12c0 2.853-1.101 5.447-2.889 7.404z"/></g><defs><clipPath id="clip0_2828_7736"><path d="M0 0h24v24H0z"/></clipPath></defs>
</symbol>
<symbol id="no-ironing" viewBox="0 0 24 24"><path d="M23.996 18.434L22.169 4.735A2.006 2.006 0 0 0 20.186 3H8.5a.5.5 0 1 0 0 1h11.686c.5 0 .926.373.991.868L21.862 10h-3.809l2.75-2.103a.5.5 0 1 0-.607-.794L16.408 10H8.5c-.288 0-.572.015-.852.043l-3.844-2.94a.5.5 0 0 0-.608.794l3.132 2.395C2.692 11.255 0 14.565 0 18.5a.5.5 0 0 0 .5.5h4.139l-1.443 1.103a.5.5 0 1 0 .608.794L6.284 19h11.431l2.481 1.897a.498.498 0 0 0 .701-.093.5.5 0 0 0-.093-.701L19.36 19h4.14a.499.499 0 0 0 .496-.566zM15.1 11L12 13.37 8.9 11h6.2zm-9.154 7h-4.93c.234-3.527 2.918-6.386 6.36-6.907L11.177 14l-5.23 4zm1.646 0L12 14.63 16.408 18H7.592zm10.461 0l-5.23-4 3.923-3h5.25l.933 7h-4.876z"/>
</symbol>
<symbol id="no-tumble-dry" viewBox="0 0 24 24"><g clip-path="url(#clip0_2828_7741)"><path d="M23 22.293V1.707l.853-.853a.5.5 0 1 0-.707-.707L22.293 1H1.707L.853.146a.5.5 0 1 0-.707.708L1 1.707v20.586l-.854.854a.5.5 0 1 0 .707.707L1.707 23h20.586l.853.854a.498.498 0 0 0 .707 0 .5.5 0 0 0 0-.707L23 22.293zM12 2h9.293l-2.596 2.596A9.948 9.948 0 0 0 12 2a9.949 9.949 0 0 0-6.698 2.596L2.707 2H12zm-.707 10l-5.99 5.99A8.953 8.953 0 0 1 3 12c0-2.302.876-4.397 2.302-5.99l5.99 5.99zM6.009 5.302A8.953 8.953 0 0 1 12 3c2.302 0 4.398.876 5.991 2.302L12 11.293l-5.99-5.99zM12 12.707l5.991 5.99A8.953 8.953 0 0 1 12 21a8.953 8.953 0 0 1-5.99-2.302L12 12.707zm.708-.707l5.99-5.99A8.953 8.953 0 0 1 21 12a8.953 8.953 0 0 1-2.303 5.99L12.707 12zM2 12V2.707l2.595 2.596A9.949 9.949 0 0 0 2 12a9.95 9.95 0 0 0 2.595 6.698L2 21.293V12zm10 10H2.707l2.595-2.596A9.949 9.949 0 0 0 12 22a9.949 9.949 0 0 0 6.697-2.596L21.293 22H12zm10-10v9.293l-2.596-2.595A9.949 9.949 0 0 0 22 12a9.948 9.948 0 0 0-2.596-6.697L22 2.707V12z"/></g><defs><clipPath id="clip0_2828_7741"><path d="M0 0h24v24H0z"/></clipPath></defs>
</symbol>
<symbol id="no-wash" viewBox="0 0 24 24"><g clip-path="url(#clip0_2828_7712)"><path d="M23.293 9.045l-.211.096.908-4.542a.5.5 0 1 0-.98-.196l-.688 3.437c-.29-.15-.521-.389-.785-.677-.474-.518-1.065-1.162-2.202-1.162s-1.726.644-2.201 1.162c-.428.468-.767.838-1.462.838-.696 0-1.034-.37-1.463-.838-.474-.518-1.065-1.162-2.202-1.162-1.136 0-1.726.644-2.2 1.162-.43.468-.769.838-1.465.838-.697 0-1.037-.37-1.467-.838C6.401 6.645 5.81 6 4.671 6c-1.137 0-1.728.644-2.203 1.162-.265.289-.496.529-.79.678L.991 4.403a.5.5 0 1 0-.98.196l.908 4.542-.212-.096a.5.5 0 0 0-.414.91l.867.394 1.606 8.026-1.473.67a.5.5 0 0 0 .414.91l1.49-.677A2 2 0 0 0 4.73 20h14.54a2 2 0 0 0 1.533-.722l1.49.677a.5.5 0 0 0 .414-.91l-1.472-.67 1.605-8.026.867-.394a.5.5 0 0 0-.414-.91zM2.282 10.859l8.51 3.868L3.7 17.951l-1.418-7.092zm16.989 8.14H4.73c-.2 0-.38-.07-.54-.173l7.81-3.55 7.81 3.55a.982.982 0 0 1-.54.174zm1.03-1.048l-7.093-3.224 8.51-3.868-1.418 7.092zm1.66-8.3L12 14.178 2.04 9.65l-.163-.81c.59-.218.981-.626 1.327-1.002C3.635 7.37 3.975 7 4.67 7c.699 0 1.038.37 1.468.838C6.613 8.356 7.204 9 8.341 9c1.137 0 1.728-.645 2.202-1.163.429-.468.767-.837 1.463-.837.696 0 1.035.37 1.465.838.474.517 1.064 1.162 2.2 1.162 1.136 0 1.726-.645 2.2-1.162.429-.469.767-.838 1.463-.838.696 0 1.035.37 1.465.838.345.376.734.784 1.322 1.002l-.162.81z"/></g><defs><clipPath id="clip0_2828_7712"><path d="M0 0h24v24H0z"/></clipPath></defs>
</symbol>
<symbol id="paypal" viewBox="0 0 24 24"><path d="M10.586 23H7.455c-.202 0-.404 0-.607-.1-.202-.1-.404-.2-.505-.4-.1-.2-.303-.4-.303-.6a.846.846 0 0 1 0-.7l.101-.4h-2.02C3.011 20.8 2 19.8 2 18.7v-.1L4.121 3c.101-1.1 1.01-2 2.121-2h6.263c3.434 0 5.859 2 6.465 5C20.889 7.3 22 9.4 22 12c0 3.4-3.535 6-6.667 6h-2.12l-.506 3.2c-.1.5-.303 1-.707 1.3-.404.3-.91.5-1.414.5zM7.96 21h2.525l.1-.1.607-4.1c.1-.5.505-.8 1.01-.8h2.93c2.12 0 4.646-1.8 4.646-4 0-.8-.202-2.2-.91-3.3-.605 2.9-3.535 5.4-6.464 5.4h-2.93s-.1.1-.1.3L8.162 20l-.202 1zm-4.142-2.3l.101.1h2.424L7.556 14c.202-1.1 1.01-1.9 2.12-1.9h2.93c2.222 0 4.647-2.3 4.647-4.6 0-2.9-1.718-4.6-4.647-4.6H6.242l-.1.1v.1L3.817 18.7z"/>
</symbol>
<symbol id="pin-outline" viewBox="0 0 24 24"><g fill-rule="evenodd" clip-rule="evenodd"><path d="M12 7.75a2 2 0 1 0 0 4 2 2 0 0 0 0-4zm-4 2a4 4 0 1 1 8 0 4 4 0 0 1-8 0z"/><path d="M12 3.25c-3.62 0-6.5 2.836-6.5 6.27 0 2.798 1.682 5.625 3.52 7.848A27.9 27.9 0 0 0 12 20.44a27.899 27.899 0 0 0 2.98-3.072c1.838-2.223 3.52-5.05 3.52-7.849 0-3.433-2.88-6.269-6.5-6.269zm0 18.5l-.62.785-.002-.002-.005-.004-.02-.016a13.707 13.707 0 0 1-.322-.267 29.907 29.907 0 0 1-3.552-3.604C5.568 16.333 3.5 13.043 3.5 9.52c0-4.597 3.835-8.27 8.5-8.27s8.5 3.673 8.5 8.27c0 3.523-2.068 6.811-3.98 9.123a29.911 29.911 0 0 1-3.551 3.604 17.519 17.519 0 0 1-.322.266l-.02.016-.005.004-.002.002-.62-.785zm0 0l.619.785a1 1 0 0 1-1.238 0L12 21.75z"/></g>
</symbol>
<symbol id="pin-solid" viewBox="0 0 24 24"><path fill-rule="evenodd" d="M12.916 22.44c2.149-1.987 7.334-7.339 7.334-12.69a8.25 8.25 0 0 0-16.5 0c0 5.351 5.185 10.703 7.334 12.69a1.335 1.335 0 0 0 1.832 0zM12 13.126a3.375 3.375 0 1 0 0-6.75 3.375 3.375 0 0 0 0 6.75z" clip-rule="evenodd"/>
</symbol>
<symbol id="pinterest" viewBox="0 0 24 24"><path d="M12.301 1C6.228 1 3 4.865 3 9.078c0 1.953 1.1 4.39 2.86 5.163.502.225.436-.05.868-1.69a.388.388 0 0 0-.095-.382c-2.516-2.89-.49-8.832 5.31-8.832 8.393 0 6.825 11.533 1.46 11.533-1.383 0-2.413-1.078-2.088-2.411.396-1.59 1.17-3.297 1.17-4.442 0-2.886-4.33-2.457-4.33 1.366 0 1.182.42 1.98.42 1.98s-1.392 5.587-1.65 6.631c-.438 1.768.058 4.629.102 4.875.026.136.18.179.266.067.137-.179 1.82-2.564 2.293-4.288.171-.628.876-3.176.876-3.176.464.832 1.803 1.529 3.229 1.529C17.933 17 21 13.297 21 8.7 20.985 4.297 17.188 1 12.301 1z"/>
</symbol>
<symbol id="play" viewBox="0 0 24 24"><g fill-rule="evenodd" clip-rule="evenodd"><path d="M16.068 10.411a2 2 0 0 1 0 3.178l-4.58 3.5c-1.316 1.006-3.215.068-3.215-1.588V8.5c0-1.657 1.899-2.595 3.215-1.59l4.58 3.501zM14.853 12l-4.58-3.5v7l4.58-3.5z"/><path d="M12 3a9 9 0 1 0 0 18 9 9 0 0 0 0-18zM1 12C1 5.925 5.925 1 12 1s11 4.925 11 11-4.925 11-11 11S1 18.075 1 12z"/></g>
</symbol>
<symbol id="plus-round" viewBox="0 0 24 24"><g fill-rule="evenodd" clip-rule="evenodd"><path d="M5.75 12a1 1 0 0 1 1-1h10.5a1 1 0 1 1 0 2H6.75a1 1 0 0 1-1-1z"/><path d="M12 5.75a1 1 0 0 1 1 1v10.5a1 1 0 1 1-2 0V6.75a1 1 0 0 1 1-1z"/><path d="M12 3a9 9 0 1 0 0 18 9 9 0 0 0 0-18zM1 12C1 5.925 5.925 1 12 1s11 4.925 11 11-4.925 11-11 11S1 18.075 1 12z"/></g>
</symbol>
<symbol id="plus" viewBox="0 0 24 24"><path fill-rule="evenodd" d="M12 1a1 1 0 0 1 1 1v9h9a1 1 0 1 1 0 2h-9v9a1 1 0 1 1-2 0v-9H2a1 1 0 1 1 0-2h9V2a1 1 0 0 1 1-1z" clip-rule="evenodd"/>
</symbol>
<symbol id="profile" viewBox="0 0 24 24"><path fill-rule="evenodd" d="M12 3.25a3.5 3.5 0 1 0 0 7 3.5 3.5 0 0 0 0-7zm-5.5 3.5a5.5 5.5 0 1 1 11 0 5.5 5.5 0 0 1-11 0zm-.396 8.5c-.693 0-1.235.338-1.455.823-.304.67-.58 1.47-.645 2.228-.03.339.112.589.307.71C5.34 19.65 7.725 20.75 12 20.75s6.66-1.1 7.689-1.74c.194-.12.336-.37.307-.709-.066-.758-.341-1.557-.646-2.228-.22-.485-.761-.823-1.455-.823H6.104zm-3.276-.003c.608-1.34 1.965-1.997 3.276-1.997h11.792c1.311 0 2.669.656 3.277 1.997.349.77.724 1.805.816 2.883.084.982-.324 2.008-1.244 2.58-1.354.84-4.105 2.04-8.745 2.04-4.64 0-7.391-1.2-8.745-2.04-.92-.572-1.328-1.598-1.244-2.58.093-1.078.467-2.113.817-2.883z" clip-rule="evenodd"/>
</symbol>
<symbol id="reload" viewBox="0 0 24 24"><path fill-rule="evenodd" d="M6.759 2.508a1 1 0 0 1 .707 1.224l-.473 1.766.507-.293A9 9 0 1 1 4.206 17.5a1 1 0 1 1 1.732-1A7 7 0 1 0 8.5 6.938l-.507.292 1.766.474a1 1 0 0 1-.518 1.932L5.143 8.537a1 1 0 0 1-.707-1.224l1.098-4.098a1 1 0 0 1 1.225-.707z" clip-rule="evenodd"/>
</symbol>
<symbol id="right-chevron" viewBox="0 0 24 24"><path fill-rule="evenodd" d="M8.293 4.293a1 1 0 0 1 1.414 0l7 7a1 1 0 0 1 0 1.414l-7 7a1 1 0 0 1-1.414-1.414L14.586 12 8.293 5.707a1 1 0 0 1 0-1.414z" clip-rule="evenodd"/>
</symbol>
<symbol id="right" viewBox="0 0 24 24"><path fill-rule="evenodd" d="M14.793 6.793a1 1 0 0 1 1.414 0l4.5 4.5a1 1 0 0 1 0 1.414l-4.5 4.5a1 1 0 0 1-1.414-1.414L17.586 13H4a1 1 0 1 1 0-2h13.586l-2.793-2.793a1 1 0 0 1 0-1.414z" clip-rule="evenodd"/>
</symbol>
<symbol id="rss" viewBox="0 0 24 24"><path d="M4.857 22a2.857 2.857 0 1 0 0-5.715 2.857 2.857 0 0 0 0 5.715z"/><path d="M11.524 22h3.809C15.332 14.65 9.35 8.668 2 8.667v3.81c5.252 0 9.524 4.271 9.524 9.523z"/><path d="M22 22C22 10.972 13.028 2 2 2v3.81c8.928 0 16.192 7.26 16.192 16.19H22z"/>
</symbol>
<symbol id="search" viewBox="0 0 24 24"><path fill-rule="evenodd" d="M10.875 3.25a7.625 7.625 0 1 0 0 15.25 7.625 7.625 0 0 0 0-15.25zM1.25 10.875a9.625 9.625 0 1 1 17.098 6.066l4.108 4.101a1 1 0 0 1-1.412 1.416l-4.111-4.103a9.625 9.625 0 0 1-15.683-7.48z" clip-rule="evenodd"/>
</symbol>
<symbol id="share-arrow" viewBox="0 0 24 24"><path d="M23 10.993L13.857 1v5.962h-1.944C5.886 6.962 1 11.832 1 17.84V21l.863-.943a15.516 15.516 0 0 1 11.444-5.033h.55v5.962L23 10.993z"/>
</symbol>
<symbol id="share" viewBox="0 0 24 24"><path fill-rule="evenodd" d="M18.375 3.25a2.375 2.375 0 1 0 0 4.75 2.375 2.375 0 0 0 0-4.75zM14 5.625a4.375 4.375 0 1 1 .711 2.392l-4.871 2.44a4.433 4.433 0 0 1-.045 2.487l5.33 2.503a4.375 4.375 0 1 1-.966 1.756L8.766 14.67a4.375 4.375 0 1 1 .113-5.97l5.149-2.58A4.413 4.413 0 0 1 14 5.626zM5.625 9.25a2.375 2.375 0 1 0 2.008 3.645c.46-.725.485-1.683.064-2.431A2.374 2.374 0 0 0 5.625 9.25zM18.375 16a2.374 2.374 0 1 0 0 4.75 2.375 2.375 0 1 0 0-4.75z" clip-rule="evenodd"/>
</symbol>
<symbol id="shield" viewBox="0 0 24 24"><g fill-rule="evenodd" clip-rule="evenodd"><path d="M3 6.127C3 3.295 5.239 1 8 1h8c2.761 0 5 2.295 5 5.127v5.959c0 4.321-2.728 7.852-6.173 10.078a5.195 5.195 0 0 1-5.654 0C5.728 19.938 3 16.407 3 12.086V6.127zm5-3.076c-1.657 0-3 1.377-3 3.076v5.959c0 3.37 2.137 6.338 5.24 8.342a3.237 3.237 0 0 0 3.52 0c3.103-2.004 5.24-4.972 5.24-8.342V6.127c0-1.699-1.343-3.076-3-3.076H8z"/><path d="M15.64 8.232a1 1 0 0 1 .128 1.408l-3.75 4.5a1 1 0 0 1-1.42.118l-2.25-1.938a1 1 0 1 1 1.305-1.515l1.48 1.274 3.099-3.72a1 1 0 0 1 1.408-.127z"/></g>
</symbol>
<symbol id="skype" viewBox="0 0 24 24"><path d="M22.345 14.322C23.937 7.17 17.671.674 10.313 1.922 6.32-.559 1 2.243 1 6.995c0 1.105.305 2.14.835 3.032-1.479 7.167 4.838 13.57 12.19 12.238 5.197 2.748 10.94-2.732 8.32-7.944zm-6.994 4.313c-1.93.793-5.107.798-7.03-.208-2.74-1.462-3.228-4.752-.863-4.752 1.782 0 1.218 2.078 3.017 2.925.826.382 2.602.421 3.634-.275 1.02-.682.926-1.755.372-2.268-1.468-1.355-5.669-.816-7.589-3.189-.834-1.03-.992-2.845.034-4.161 1.787-2.3 7.033-2.44 9.288-.704 2.083 1.612 1.52 3.75-.16 3.75-2.021 0-.959-2.644-4.221-2.644-2.366 0-3.296 1.682-1.63 2.501 2.258 1.122 8.012.747 8.012 5.13-.004 1.824-1.122 3.184-2.864 3.894z"/>
</symbol>
<symbol id="slack-filled" viewBox="0 0 24 24"><path d="M9.106 12.599a2.311 2.311 0 0 0-2.311 2.31v5.782a2.311 2.311 0 0 0 4.622 0V14.91a2.313 2.313 0 0 0-2.311-2.311zm-8.089 2.31a2.313 2.313 0 0 0 4.626 0v-2.313H3.33a2.313 2.313 0 0 0-2.313 2.313zM9.109 1h-.003a2.313 2.313 0 0 0 0 4.626h2.311V3.308A2.31 2.31 0 0 0 9.11 1zM3.314 11.424h5.792a2.313 2.313 0 0 0 0-4.626H3.314a2.313 2.313 0 0 0 0 4.626zm17.355-4.626a2.308 2.308 0 0 0-2.309 2.308v2.317h2.312a2.313 2.313 0 0 0 0-4.625h-.003zm-8.082-3.485V9.11a2.311 2.311 0 0 0 4.622 0V3.313a2.311 2.311 0 0 0-4.622 0zm4.621 17.376a2.311 2.311 0 0 0-2.31-2.312h-2.312v2.313a2.311 2.311 0 0 0 4.622-.002zm3.482-8.093h-5.792a2.313 2.313 0 0 0 0 4.626h5.792a2.313 2.313 0 0 0 0-4.626z"/>
</symbol>
<symbol id="slack" viewBox="0 0 24 24"><g fill-rule="evenodd" clip-rule="evenodd"><path d="M14.5 3A1.5 1.5 0 0 0 13 4.5V11h3V4.5A1.5 1.5 0 0 0 14.5 3zM18 6.338V4.5a3.5 3.5 0 1 0-7 0V12a1 1 0 0 0 1 1h7.5A3.5 3.5 0 1 0 18 6.338zM18 11h1.5A1.5 1.5 0 1 0 18 9.5V11z"/><path d="M11 12a1 1 0 0 1 1-1h7.5a3.5 3.5 0 0 1 0 7h-1.838A3.5 3.5 0 1 1 11 19.5V12zm2 1v3h6.5a1.5 1.5 0 1 0 0-3H13zm1.5 5H13v1.5a1.5 1.5 0 1 0 1.5-1.5z"/><path d="M4.5 13A1.5 1.5 0 1 0 6 14.5V13H4.5zm0-2A3.5 3.5 0 1 0 6 17.662V19.5a3.5 3.5 0 1 0 7 0V12a1 1 0 0 0-1-1H4.5zm6.5 2H8v6.5a1.5 1.5 0 0 0 3 0V13z"/><path d="M10.074 3.114A1.5 1.5 0 1 0 9.5 6H11V4.5a1.5 1.5 0 0 0-.926-1.386zM13 4.5A3.5 3.5 0 1 0 6.338 6H4.5a3.5 3.5 0 1 0 0 7H12a1 1 0 0 0 1-1V4.5zM11 11V8H4.5a1.5 1.5 0 0 0 0 3H11z"/></g>
</symbol>
<symbol id="star-filled" viewBox="0 0 24 24"><path fill-rule="evenodd" d="M10.17 2.202c.694-1.603 2.966-1.603 3.66 0l2.102 4.846 5.26.501c1.738.166 2.44 2.327 1.13 3.483l-3.96 3.496 1.15 5.156c.379 1.705-1.46 3.04-2.963 2.152L12 19.151l-4.549 2.685c-1.504.888-3.342-.447-2.962-2.152l1.148-5.156-3.96-3.496C.369 9.876 1.072 7.715 2.81 7.549l5.259-.5 2.101-4.847z" clip-rule="evenodd"/>
</symbol>
<symbol id="star-outline" viewBox="0 0 24 24"><path fill-rule="evenodd" d="M10.17 2.202c.694-1.603 2.966-1.603 3.66 0l2.102 4.846 5.26.501c1.738.166 2.44 2.327 1.13 3.483l-3.96 3.496 1.15 5.156c.379 1.705-1.46 3.04-2.963 2.152L12 19.151l-4.549 2.685c-1.504.888-3.342-.447-2.962-2.152l1.148-5.156-3.96-3.496C.369 9.876 1.072 7.715 2.81 7.549l5.259-.5 2.101-4.847zm3.932 5.64L12 2.996 9.9 7.841a1.996 1.996 0 0 1-1.642 1.193l-5.259.5 3.96 3.497c.545.481.785 1.22.627 1.93l-1.148 5.156 4.549-2.686a1.996 1.996 0 0 1 2.029 0l4.549 2.686-1.149-5.156a1.996 1.996 0 0 1 .627-1.93l3.96-3.496-5.259-.501a1.996 1.996 0 0 1-1.641-1.193z" clip-rule="evenodd"/>
</symbol>
<symbol id="stripe" viewBox="0 0 24 24"><path d="M21.287 10.519c-.407 0-.853.303-.853 1.03h1.667c0-.727-.42-1.03-.814-1.03zm-5.335 3.131c-.381 0-.607-.135-.762-.302l-.007-2.391c.168-.187.4-.316.769-.316.588 0 .995.658.995 1.502 0 .863-.4 1.508-.995 1.508z"/><path fill-rule="evenodd" d="M2.813 3A2.813 2.813 0 0 0 0 5.813v12.375A2.813 2.813 0 0 0 2.813 21h18.375A2.813 2.813 0 0 0 24 18.187V5.813A2.813 2.813 0 0 0 21.187 3H2.813zm18.48 6.21c1.531 0 2.332 1.302 2.332 2.952 0 .09-.004.238-.008.364l-.005.21h-3.159c.072.76.627.98 1.254.98.64 0 1.143-.136 1.582-.355v1.289c-.44.245-1.02.419-1.79.419-1.575 0-2.673-.98-2.673-2.92 0-1.637.93-2.939 2.467-2.939zm-4.953 0c-.633 0-1.04.297-1.267.503l-.084-.4h-1.42v7.515l1.614-.341.007-1.824c.232.167.575.406 1.143.406 1.156 0 2.21-.928 2.21-2.971-.007-1.87-1.073-2.888-2.203-2.888zm-3.376-2.038V8.48l-1.621.348V7.513l1.621-.341zm0 2.141h-1.621v5.64h1.621v-5.64zm-3.462.01l.103.476c.381-.696 1.137-.554 1.344-.477v1.483c-.2-.071-.846-.162-1.227.335v3.821H8.107V9.322h1.395zM6.374 7.918l-1.576.335-.007 5.162c0 .954.717 1.656 1.673 1.656.53 0 .918-.096 1.13-.212V13.55c-.206.084-1.227.38-1.227-.573V10.69h1.228V9.317H6.367l.007-1.398zm-3.816 2.69c-.342 0-.549.097-.549.348 0 .274.356.395.797.545.72.244 1.667.565 1.67 1.756 0 1.153-.923 1.817-2.267 1.817a4.5 4.5 0 0 1-1.763-.367v-1.534c.543.296 1.227.516 1.763.516.362 0 .62-.097.62-.394 0-.304-.385-.442-.85-.61-.71-.256-1.604-.578-1.604-1.652 0-1.14.872-1.824 2.183-1.824.536 0 1.066.084 1.602.297v1.514a3.608 3.608 0 0 0-1.602-.412z" clip-rule="evenodd"/>
</symbol>
<symbol id="telegram" viewBox="0 0 24 24"><path d="M9.633 15.181l-.364 5.584c.52 0 .746-.244 1.016-.537l2.441-2.545 5.059 4.041c.927.564 1.581.267 1.831-.93l3.32-16.973h.001c.295-1.497-.495-2.082-1.4-1.715L2.022 10.257c-1.332.564-1.311 1.374-.226 1.741l4.99 1.693 11.59-7.91c.545-.395 1.04-.177.633.217l-9.375 9.183z"/>
</symbol>
<symbol id="top-left" viewBox="0 0 24 24"><path fill-rule="evenodd" d="M5 6a1 1 0 0 1 1-1h7a1 1 0 1 1 0 2H8.414l10.293 10.293a1 1 0 0 1-1.414 1.414L7 8.414V13a1 1 0 1 1-2 0V6z" clip-rule="evenodd"/>
</symbol>
<symbol id="top-right" viewBox="0 0 24 24"><path fill-rule="evenodd" d="M10 6a1 1 0 0 1 1-1h7a1 1 0 0 1 1 1v7a1 1 0 1 1-2 0V8.414L6.707 18.707a1 1 0 0 1-1.414-1.414L15.586 7H11a1 1 0 0 1-1-1z" clip-rule="evenodd"/>
</symbol>
<symbol id="tumble-dry-1" viewBox="0 0 24 24"><g clip-path="url(#clip0_2828_7745)"><path d="M23.455 0H.545A.545.545 0 0 0 0 .545v22.91c0 .301.244.545.545.545h22.91a.545.545 0 0 0 .545-.545V.545A.545.545 0 0 0 23.455 0zm-.546 12v10.91H1.09V1.09h21.82V12z"/><path d="M12 1.09C5.985 1.09 1.09 5.986 1.09 12c0 6.015 4.895 10.91 10.91 10.91 6.015 0 10.91-4.895 10.91-10.91 0-6.015-4.895-10.91-10.91-10.91zm0 20.728c-5.414 0-9.818-4.404-9.818-9.818S6.586 2.182 12 2.182 21.818 6.586 21.818 12 17.413 21.818 12 21.818z"/><path d="M12 13.09a1.09 1.09 0 1 0 0-2.18 1.09 1.09 0 0 0 0 2.18z"/></g><defs><clipPath id="clip0_2828_7745"><path d="M0 0h24v24H0z"/></clipPath></defs>
</symbol>
<symbol id="tumble-dry-2" viewBox="0 0 24 24"><g clip-path="url(#clip0_2828_7747)"><path d="M23.455 0H.545A.545.545 0 0 0 0 .545v22.91c0 .301.244.545.545.545h22.91a.545.545 0 0 0 .545-.545V.545A.545.545 0 0 0 23.455 0zm-.546 12v10.91H1.09V1.09h21.82V12z"/><path d="M12 1.09C5.985 1.09 1.09 5.986 1.09 12c0 6.015 4.895 10.91 10.91 10.91 6.015 0 10.91-4.895 10.91-10.91 0-6.015-4.895-10.91-10.91-10.91zm0 20.728c-5.414 0-9.818-4.404-9.818-9.818S6.586 2.182 12 2.182 21.818 6.586 21.818 12 17.413 21.818 12 21.818z"/><path d="M9.818 13.09a1.09 1.09 0 1 0 0-2.18 1.09 1.09 0 0 0 0 2.18zm4.364 0a1.09 1.09 0 1 0 0-2.18 1.09 1.09 0 0 0 0 2.18z"/></g><defs><clipPath id="clip0_2828_7747"><path d="M0 0h24v24H0z"/></clipPath></defs>
</symbol>
<symbol id="tumble-dry-3" viewBox="0 0 24 24"><g clip-path="url(#clip0_2828_7749)"><path d="M23.455 0H.545A.545.545 0 0 0 0 .545v22.91c0 .301.244.545.545.545h22.91a.545.545 0 0 0 .545-.545V.545A.545.545 0 0 0 23.455 0zm-.546 12v10.91H1.09V1.09h21.82V12z"/><path d="M12 1.09C5.985 1.09 1.09 5.986 1.09 12c0 6.015 4.895 10.91 10.91 10.91 6.015 0 10.91-4.895 10.91-10.91 0-6.015-4.895-10.91-10.91-10.91zm0 20.728c-5.414 0-9.818-4.404-9.818-9.818S6.586 2.182 12 2.182 21.818 6.586 21.818 12 17.413 21.818 12 21.818z"/><path d="M7.636 13.09a1.09 1.09 0 1 0 0-2.18 1.09 1.09 0 0 0 0 2.18zm4.364 0a1.09 1.09 0 1 0 0-2.18 1.09 1.09 0 0 0 0 2.18zm4.364 0a1.09 1.09 0 1 0 0-2.18 1.09 1.09 0 0 0 0 2.18z"/></g><defs><clipPath id="clip0_2828_7749"><path d="M0 0h24v24H0z"/></clipPath></defs>
</symbol>
<symbol id="tumble-dry" viewBox="0 0 24 24"><g clip-path="url(#clip0_2828_7743)"><path d="M23.455 0H.545A.545.545 0 0 0 0 .545v22.91c0 .301.244.545.545.545h22.91a.545.545 0 0 0 .545-.545V.545A.545.545 0 0 0 23.455 0zm-.546 12v10.91H1.09V1.09h21.82V12z"/><path d="M12 1.09C5.985 1.09 1.09 5.986 1.09 12c0 6.015 4.895 10.91 10.91 10.91 6.015 0 10.91-4.895 10.91-10.91 0-6.015-4.895-10.91-10.91-10.91zm0 20.728c-5.414 0-9.818-4.404-9.818-9.818S6.586 2.182 12 2.182 21.818 6.586 21.818 12 17.413 21.818 12 21.818z"/></g><defs><clipPath id="clip0_2828_7743"><path d="M0 0h24v24H0z"/></clipPath></defs>
</symbol>
<symbol id="tumblr" viewBox="0 0 24 24"><path d="M18 21.711l-1.007-3.14c-.393.197-1.138.366-1.687.385h-.078c-1.597 0-1.91-1.256-1.923-2.174V9.935h4.2v-3.33H13.32V1h-3.064c-.05 0-.14.047-.151.164C9.932 2.881 9.164 5.89 6 7.094v2.84h2.105v7.19c0 2.433 1.689 5.876 6.127 5.876l-.01-.002h.156c1.53-.027 3.242-.704 3.622-1.287z"/>
</symbol>
<symbol id="twitch" viewBox="0 0 24 24"><path d="M2 5.827V21.13h5.249V24h2.866l2.861-2.871h4.296L23 15.392V2H3.43L2 5.827zm3.34-1.916h15.75v10.523l-3.34 3.347h-5.251l-2.862 2.867V17.78H5.34V3.911z"/><path d="M10.591 7.74h1.908v5.739h-1.908V7.74zm5.248 0h1.909v5.739h-1.91V7.74z"/>
</symbol>
<symbol id="twitter" viewBox="0 0 24 24"><path d="M22.5 5.772a8.902 8.902 0 0 1-2.474.65 4.18 4.18 0 0 0 1.894-2.28 8.922 8.922 0 0 1-2.737 1 4.387 4.387 0 0 0-3.145-1.302c-2.379 0-4.308 1.847-4.308 4.124 0 .323.038.638.112.94-3.58-.173-6.754-1.815-8.879-4.31a3.962 3.962 0 0 0-.583 2.073c0 1.431.762 2.694 1.916 3.433a4.455 4.455 0 0 1-1.95-.518v.052c0 1.997 1.485 3.665 3.454 4.044-.36.093-.741.145-1.135.145a4.31 4.31 0 0 1-.81-.077c.548 1.64 2.138 2.832 4.023 2.865a8.89 8.89 0 0 1-5.35 1.763c-.348 0-.69-.02-1.028-.057a12.572 12.572 0 0 0 6.603 1.856c7.925 0 12.257-6.285 12.257-11.736l-.015-.534a8.412 8.412 0 0 0 2.155-2.13z"/>
</symbol>
<symbol id="unlock" viewBox="0 0 24 24"><g fill-rule="evenodd" clip-rule="evenodd"><path d="M20.75 17.75V13a3 3 0 0 0-3-3H6.25a3 3 0 0 0-3 3v4.75a3 3 0 0 0 3 3h11.5a3 3 0 0 0 3-3zm2-4.75v4.75a5 5 0 0 1-5 5H6.25a5 5 0 0 1-5-5V13a5 5 0 0 1 5-5h11.5a5 5 0 0 1 5 5z"/><path d="M12 3.25a5 5 0 0 0-5 5 1 1 0 1 1-2 0 7 7 0 0 1 11.375-5.464 1 1 0 0 1-1.25 1.56A4.975 4.975 0 0 0 12 3.25zm0 9.25a1 1 0 0 1 1 1v3a1 1 0 1 1-2 0v-3a1 1 0 0 1 1-1z"/></g>
</symbol>
<symbol id="up-chevron" viewBox="0 0 24 24"><path fill-rule="evenodd" d="M4.293 15.707a1 1 0 0 1 0-1.414l7-7a1 1 0 0 1 1.414 0l7 7a1 1 0 0 1-1.414 1.414L12 9.414l-6.293 6.293a1 1 0 0 1-1.414 0z" clip-rule="evenodd"/>
</symbol>
<symbol id="up-down-select" viewBox="0 0 24 24"><path d="M12 1l6.928 9H5.072L12 1zm0 22l-6.928-9.75h13.856L12 23z"/>
</symbol>
<symbol id="up" viewBox="0 0 24 24"><path fill-rule="evenodd" d="M6.793 9.207a1 1 0 0 1 0-1.414l4.5-4.5a1 1 0 0 1 1.414 0l4.5 4.5a1 1 0 0 1-1.414 1.414L13 6.414V20a1 1 0 1 1-2 0V6.414L8.207 9.207a1 1 0 0 1-1.414 0z" clip-rule="evenodd"/>
</symbol>
<symbol id="upload" viewBox="0 0 24 24"><path fill-rule="evenodd" d="M11.293 1.543a1 1 0 0 1 1.414 0l4.5 4.5a1 1 0 0 1-1.414 1.414L13 4.664V17.25a1 1 0 1 1-2 0V4.664L8.207 7.457a1 1 0 0 1-1.414-1.414l4.5-4.5zM2.25 14a1 1 0 0 1 1 1v3.75a2 2 0 0 0 2 2h13.5a2 2 0 0 0 2-2V15a1 1 0 1 1 2 0v3.75a4 4 0 0 1-4 4H5.25a4 4 0 0 1-4-4V15a1 1 0 0 1 1-1z" clip-rule="evenodd"/>
</symbol>
<symbol id="vertical" viewBox="0 0 24 24"><path fill-rule="evenodd" d="M6.793 2.793a1 1 0 0 1 1.414 0l3.5 3.5a1 1 0 0 1-1.414 1.414L8.5 5.914V19.5a1 1 0 1 1-2 0V5.914L4.707 7.707a1 1 0 0 1-1.414-1.414l3.5-3.5zM16.5 3.5a1 1 0 0 1 1 1v13.586l1.793-1.793a1 1 0 0 1 1.414 1.414l-3.5 3.5a1 1 0 0 1-1.414 0l-3.5-3.5a1 1 0 0 1 1.414-1.414l1.793 1.793V4.5a1 1 0 0 1 1-1z" clip-rule="evenodd"/>
</symbol>
<symbol id="viber" viewBox="0 0 24 24"><path d="M21.796 13.736c.65-5.52-.313-9.005-2.051-10.58v-.002C16.94.463 7.466.064 4.11 3.275c-1.507 1.57-2.038 3.876-2.096 6.73-.058 2.855-.127 8.202 4.819 9.653h.005l-.005 2.215s-.034.898.535 1.078c.651.213.946-.204 2.97-2.64 3.386.296 5.986-.382 6.281-.48.684-.232 4.552-.747 5.178-6.095zM10.67 18.752s-2.143 2.692-2.809 3.39c-.218.228-.457.207-.454-.244 0-.296.017-3.678.017-3.678-4.194-1.21-3.947-5.764-3.901-8.146.045-2.383.478-4.335 1.754-5.65 2.945-2.78 11.251-2.159 13.368-.155 2.587 2.31 1.666 8.839 1.671 9.061-.531 4.464-3.666 4.747-4.242 4.94-.247.083-2.533.675-5.404.482z"/><path d="M11.857 4.947c-.35 0-.35.55 0 .555 2.715.02 4.951 1.927 4.976 5.425 0 .37.536.365.532-.005-.03-3.768-2.472-5.953-5.508-5.975z"/><path d="M15.429 10.347c-.009.365.527.382.531.013.045-2.078-1.227-3.79-3.617-3.97-.35-.026-.386.528-.037.554 2.073.158 3.164 1.583 3.123 3.403zm-.573 2.363c-.45-.261-.906-.098-1.095.16l-.396.515c-.2.262-.576.227-.576.227-2.74-.73-3.473-3.618-3.473-3.618s-.034-.391.217-.601l.495-.412c.247-.198.403-.674.152-1.142-.673-1.225-1.125-1.647-1.355-1.971-.242-.305-.605-.374-.984-.168h-.008c-.786.463-1.647 1.33-1.372 2.224.47.941 1.334 3.942 4.087 6.21 1.293 1.073 3.34 2.172 4.21 2.425l.008.013c.856.288 1.69-.613 2.134-1.43v-.006c.197-.395.132-.768-.157-1.013-.51-.502-1.281-1.056-1.887-1.412z"/><path d="M12.718 8.434c.873.051 1.297.511 1.342 1.455.017.37.548.344.532-.025-.058-1.233-.696-1.92-1.845-1.984-.35-.021-.383.533-.03.554z"/>
</symbol>
<symbol id="vimeo" viewBox="0 0 24 24"><path d="M19.789 2.005c-3.051-.115-5.112 1.702-6.199 5.423a3.828 3.828 0 0 1 1.63-.376c1.117 0 1.61.664 1.478 1.983-.066.799-.557 1.96-1.477 3.489-.925 1.529-1.616 2.294-2.076 2.294-1.395 0-2.234-6.937-2.518-8.831-.395-2.633-1.449-3.865-3.16-3.692C5.896 2.45 3.154 5.389 1 7.38l1.035 1.402c.985-.726 1.56-1.09 1.724-1.09 1.715 0 2.546 6.064 3.878 10.574C8.53 20.755 9.602 22 10.893 22c2.076 0 4.604-2.042 7.6-6.127 2.892-3.912 4.39-6.995 4.486-9.243l.011-.01c.123-3.014-.935-4.557-3.201-4.615z"/>
</symbol>
<symbol id="volume-no-outline" viewBox="0 0 24 24"><g fill-rule="evenodd" clip-rule="evenodd"><path d="M5 8.876a1 1 0 0 0-1 1v4.25a1 1 0 0 0 1 1h1.438a1 1 0 1 1 0 2H5a3 3 0 0 1-3-3v-4.25a3 3 0 0 1 3-3h1.438a1 1 0 1 1 0 2H5z"/><path d="M13 3.94a.3.3 0 0 0-.502-.223L7.11 8.616l-1.345-1.48 5.388-4.899C12.63.894 15 1.943 15 3.94v16.123c0 1.997-2.37 3.045-3.847 1.702l-5.388-4.898 1.345-1.48 5.388 4.898a.3.3 0 0 0 .502-.222V3.939zm3.043 5.291a1 1 0 0 1 1.414 0l4.125 4.125a1 1 0 0 1-1.414 1.414l-4.125-4.125a1 1 0 0 1 0-1.414z"/><path d="M21.582 9.231a1 1 0 0 0-1.414 0l-4.125 4.125a1 1 0 0 0 1.414 1.414l4.125-4.125a1 1 0 0 0 0-1.414z"/></g>
</symbol>
<symbol id="volume-off" viewBox="0 0 24 24"><path fill-rule="evenodd" d="M14.4 18.7c.7.5 1.6.1 1.6-.8v-4.5l-3.7 3.7 2.1 1.6zm6.3-13.4c-.4-.4-1-.4-1.4 0L16 8.6V6.1c0-.8-1-1.3-1.6-.8l-2.8 2.3c-.4.2-.8.4-1.3.4H8c-1.1 0-2 .9-2 2v4c0 1.1.9 2 2 2h.6l-3.3 3.3c-.4.4-.4 1 0 1.4.4.4 1 .4 1.4 0l14-14c.4-.4.4-1 0-1.4z" clip-rule="evenodd"/>
</symbol>
<symbol id="volume-on" viewBox="0 0 24 24"><path d="M2 10c0-1.1.9-2 2-2h2.3c.5 0 .9-.2 1.2-.4l2.8-2.3c.7-.5 1.7-.1 1.7.8v11.8c0 .8-1 1.3-1.6.8l-2.8-2.3c-.4-.2-.8-.4-1.3-.4H4c-1.1 0-2-.9-2-2v-4zm13 7c-.3 0-.5-.1-.7-.3-.4-.4-.4-1 0-1.4 0 0 1.2-1.3 1.2-3.3 0-2-1.2-3.2-1.2-3.3-.4-.4-.4-1 0-1.4.4-.4 1-.4 1.4 0 .1.1 1.8 1.8 1.8 4.7 0 2.9-1.7 4.6-1.8 4.7-.2.2-.4.3-.7.3z"/><path d="M18 21c-.3 0-.5-.1-.7-.3-.4-.4-.4-1 0-1.4 0 0 2.9-2.8 2.9-7.3s-2.9-7.2-2.9-7.3c-.4-.4-.4-1 0-1.4.4-.4 1-.4 1.4 0 .1.1 3.5 3.4 3.5 8.7 0 5.4-3.4 8.6-3.5 8.7-.2.2-.5.3-.7.3z"/>
</symbol>
<symbol id="volume-outline" viewBox="0 0 24 24"><g fill-rule="evenodd" clip-rule="evenodd"><path d="M16.586 5.67a1 1 0 0 1 1.376-.327 8.214 8.214 0 0 1 3.913 7.002 8.214 8.214 0 0 1-3.913 7.002 1 1 0 1 1-1.049-1.703 6.214 6.214 0 0 0 2.962-5.3 6.214 6.214 0 0 0-2.962-5.298 1 1 0 0 1-.327-1.376z"/><path d="M15.992 9.973a1 1 0 0 1 1.41-.105c.678.583 1.035 1.523 1.035 2.476 0 .954-.357 1.893-1.035 2.477a1 1 0 1 1-1.304-1.516c.147-.127.34-.46.34-.96 0-.5-.193-.835-.34-.962a1 1 0 0 1-.106-1.41zM5 8.876a1 1 0 0 0-1 1v4.25a1 1 0 0 0 1 1h1.438a1 1 0 1 1 0 2H5a3 3 0 0 1-3-3v-4.25a3 3 0 0 1 3-3h1.438a1 1 0 1 1 0 2H5z"/><path d="M13 3.94a.3.3 0 0 0-.502-.223L7.11 8.616l-1.345-1.48 5.388-4.899C12.63.894 15 1.943 15 3.94v16.123c0 1.997-2.37 3.045-3.847 1.702l-5.388-4.898 1.345-1.48 5.388 4.898a.3.3 0 0 0 .502-.222V3.939z"/></g>
</symbol>
<symbol id="wallet" viewBox="0 0 24 24"><path fill-rule="evenodd" d="M4.25 3.25a1 1 0 0 0-1 1v15.5a1 1 0 0 0 1 1h15.5a1 1 0 0 0 1-1v-3.17c-.313.11-.65.17-1 .17H14a3 3 0 0 1-3-3v-3.5a3 3 0 0 1 3-3h5.75c.35 0 .687.06 1 .17V4.25a1 1 0 0 0-1-1H4.25zm18.5 1a3 3 0 0 0-3-3H4.25a3 3 0 0 0-3 3v15.5a3 3 0 0 0 3 3h15.5a3 3 0 0 0 3-3V4.25zm-2 6a1 1 0 0 0-1-1H14a1 1 0 0 0-1 1v3.5a1 1 0 0 0 1 1h5.75a1 1 0 0 0 1-1v-3.5zm-5 2a.25.25 0 1 0 0-.5.25.25 0 0 0 0 .5zM14 12a1.75 1.75 0 1 1 3.5 0 1.75 1.75 0 0 1-3.5 0z" clip-rule="evenodd"/>
</symbol>
<symbol id="wash-1" viewBox="0 0 24 24"><g clip-path="url(#clip0_2828_7716)"><path d="M12 13a1 1 0 1 0 0-2 1 1 0 0 0 0 2z"/><path d="M23.598 4.01a.504.504 0 0 0-.588.393l-.688 3.437c-.29-.15-.521-.389-.785-.677-.474-.518-1.065-1.162-2.202-1.162s-1.726.644-2.201 1.162c-.428.468-.767.838-1.462.838-.696 0-1.034-.37-1.463-.838-.474-.518-1.065-1.162-2.202-1.162-1.136 0-1.726.644-2.2 1.162-.43.468-.769.838-1.465.838-.697 0-1.037-.37-1.467-.838C6.401 6.645 5.81 6 4.671 6c-1.137 0-1.728.644-2.203 1.162-.265.289-.496.529-.79.678L.991 4.403a.5.5 0 1 0-.98.196l2.758 13.793A2.006 2.006 0 0 0 4.729 20h14.542c.949 0 1.774-.677 1.96-1.608l2.76-13.793a.5.5 0 0 0-.393-.588zM20.25 18.197a1.004 1.004 0 0 1-.98.804H4.73c-.475 0-.887-.338-.98-.804L1.877 8.84c.59-.218.981-.626 1.327-1.002C3.635 7.37 3.974 7 4.67 7c.699 0 1.038.37 1.468.838C6.613 8.356 7.204 9 8.341 9c1.137 0 1.728-.645 2.202-1.163.429-.468.767-.837 1.463-.837.696 0 1.035.37 1.465.838.473.517 1.064 1.162 2.2 1.162 1.136 0 1.726-.645 2.2-1.162.429-.469.767-.838 1.463-.838.696 0 1.035.37 1.465.838.344.376.734.784 1.322 1.002l-1.87 9.355z"/></g><defs><clipPath id="clip0_2828_7716"><path d="M0 0h24v24H0z"/></clipPath></defs>
</symbol>
<symbol id="wash-2" viewBox="0 0 24 24"><g clip-path="url(#clip0_2828_7718)"><path d="M10 14a1 1 0 1 0 0-2 1 1 0 0 0 0 2zm4 0a1 1 0 1 0 0-2 1 1 0 0 0 0 2z"/><path d="M23.598 4.01a.504.504 0 0 0-.588.393l-.688 3.437c-.29-.15-.521-.389-.785-.677-.474-.518-1.065-1.162-2.202-1.162s-1.727.644-2.201 1.162c-.428.468-.767.838-1.462.838-.696 0-1.034-.37-1.463-.838-.474-.518-1.065-1.162-2.202-1.162-1.136 0-1.726.644-2.2 1.162-.43.468-.769.838-1.465.838-.697 0-1.037-.37-1.467-.838C6.401 6.645 5.81 6 4.671 6c-1.138 0-1.728.644-2.203 1.162-.265.289-.496.529-.79.678L.991 4.403a.5.5 0 1 0-.98.196l2.758 13.793A2.006 2.006 0 0 0 4.729 20H19.27c.95 0 1.775-.677 1.961-1.608l2.76-13.793a.5.5 0 0 0-.393-.588zM20.25 18.197a1.004 1.004 0 0 1-.98.804H4.73c-.475 0-.887-.338-.98-.804L1.877 8.84c.59-.218.98-.626 1.326-1.002.43-.469.77-.838 1.467-.838.698 0 1.038.37 1.468.838C6.613 8.356 7.204 9 8.341 9c1.137 0 1.727-.645 2.202-1.163.429-.468.767-.837 1.463-.837.696 0 1.035.37 1.465.838.473.517 1.064 1.162 2.2 1.162 1.136 0 1.726-.645 2.2-1.162.429-.469.767-.838 1.463-.838.696 0 1.035.37 1.465.838.344.376.734.784 1.322 1.002l-1.871 9.355z"/></g><defs><clipPath id="clip0_2828_7718"><path d="M0 0h24v24H0z"/></clipPath></defs>
</symbol>
<symbol id="wash-3" viewBox="0 0 24 24"><g clip-path="url(#clip0_2828_7720)"><path d="M8 14a1 1 0 1 0 0-2 1 1 0 0 0 0 2zm4 0a1 1 0 1 0 0-2 1 1 0 0 0 0 2zm4 0a1 1 0 1 0 0-2 1 1 0 0 0 0 2z"/><path d="M23.598 4.01a.504.504 0 0 0-.588.393l-.688 3.437c-.29-.15-.521-.389-.785-.677-.474-.518-1.065-1.162-2.202-1.162s-1.727.644-2.201 1.162c-.428.468-.767.838-1.462.838-.696 0-1.034-.37-1.463-.838-.474-.518-1.065-1.162-2.202-1.162-1.136 0-1.726.644-2.2 1.162-.43.468-.769.838-1.465.838-.697 0-1.037-.37-1.467-.838C6.401 6.645 5.81 6 4.671 6c-1.138 0-1.728.644-2.203 1.162-.265.289-.496.529-.79.678L.991 4.403a.5.5 0 1 0-.98.196l2.758 13.793A2.006 2.006 0 0 0 4.729 20H19.27c.95 0 1.775-.677 1.961-1.608l2.76-13.793a.5.5 0 0 0-.393-.588zM20.25 18.197a1.004 1.004 0 0 1-.98.804H4.73c-.475 0-.887-.338-.98-.804L1.877 8.84c.59-.218.98-.626 1.326-1.002.43-.469.77-.838 1.467-.838.698 0 1.038.37 1.468.838C6.613 8.356 7.204 9 8.341 9c1.137 0 1.727-.645 2.202-1.163.429-.468.767-.837 1.463-.837.696 0 1.035.37 1.465.838.473.517 1.064 1.162 2.2 1.162 1.136 0 1.726-.645 2.2-1.162.429-.469.767-.838 1.463-.838.696 0 1.035.37 1.465.838.344.376.734.784 1.322 1.002l-1.871 9.355z"/></g><defs><clipPath id="clip0_2828_7720"><path d="M0 0h24v24H0z"/></clipPath></defs>
</symbol>
<symbol id="wash" viewBox="0 0 24 24"><g clip-path="url(#clip0_2828_7714)"><path d="M23.598 4.01a.504.504 0 0 0-.588.393l-.688 3.437c-.29-.15-.521-.389-.785-.677-.474-.518-1.065-1.162-2.202-1.162s-1.726.644-2.201 1.162c-.428.468-.767.838-1.462.838-.696 0-1.034-.37-1.463-.838-.474-.518-1.065-1.162-2.202-1.162-1.136 0-1.726.644-2.2 1.162-.43.468-.769.838-1.465.838-.697 0-1.037-.37-1.467-.838C6.401 6.645 5.81 6 4.671 6c-1.137 0-1.728.644-2.203 1.162-.265.289-.496.529-.79.678L.991 4.403a.5.5 0 1 0-.98.196l2.758 13.793A2.006 2.006 0 0 0 4.729 20h14.542c.949 0 1.774-.677 1.96-1.608l2.76-13.793a.5.5 0 0 0-.393-.588zM20.25 18.197a1.004 1.004 0 0 1-.98.804H4.73c-.475 0-.887-.338-.98-.804L1.877 8.84c.59-.218.981-.626 1.327-1.002C3.635 7.37 3.974 7 4.67 7c.699 0 1.038.37 1.468.838C6.613 8.356 7.204 9 8.341 9c1.137 0 1.728-.645 2.202-1.163.429-.468.767-.837 1.463-.837.696 0 1.035.37 1.465.838.473.517 1.064 1.162 2.2 1.162 1.136 0 1.726-.645 2.2-1.162.429-.469.767-.838 1.463-.838.696 0 1.035.37 1.465.838.344.376.734.784 1.322 1.002l-1.87 9.355z"/></g><defs><clipPath id="clip0_2828_7714"><path d="M0 0h24v24H0z"/></clipPath></defs>
</symbol>
<symbol id="wechat" viewBox="0 0 24 24"><path d="M9.164 1.688C4.472 1.688.656 4.992.656 9.053c0 2.146 1.055 4.138 2.917 5.552l-.715 1.485a.757.757 0 0 0 .118.834.697.697 0 0 0 .796.172l2.507-1.115c1.175.37 2.428.482 3.686.407.392-.02.692-.369.67-.775-.02-.408-.392-.741-.745-.696-1.174.062-2.34-.045-3.423-.42a.7.7 0 0 0-.503.021l-.972.433.128-.266a.752.752 0 0 0-.26-.954c-1.77-1.149-2.786-2.853-2.786-4.678 0-3.25 3.18-5.893 7.09-5.893 3.91 0 7.09 2.643 7.09 5.893 0 .22-.01.428-.046.636-.069.4.19.784.573.854.392.076.753-.194.823-.595.05-.293.068-.586.068-.895 0-4.062-3.816-7.367-8.508-7.367z"/><path d="M20.94 19.353c1.516-1.114 2.404-2.72 2.404-4.407 0-3.25-3.18-5.892-7.09-5.892-3.91 0-7.09 2.643-7.09 5.892 0 3.6 3.857 6.505 8.372 5.792l3.401 1.516a.693.693 0 0 0 .795-.174.754.754 0 0 0 .12-.834l-.912-1.893zm-1.272-.903a.752.752 0 0 0-.282.968l.33.69-1.812-.81a.705.705 0 0 0-.4-.048c-.435.08-.845.116-1.25.116-3.128 0-5.672-1.983-5.672-4.42 0-2.436 2.544-4.42 5.672-4.42 3.128 0 5.672 1.984 5.672 4.42 0 1.374-.823 2.65-2.258 3.504zM6.356 6.107h-.014c-.391 0-.702.33-.702.737a.73.73 0 0 0 .716.736c.391 0 .709-.33.709-.736a.723.723 0 0 0-.709-.737zm5.672 0h-.014c-.392 0-.702.33-.702.737a.73.73 0 0 0 .716.736c.391 0 .709-.33.709-.736a.723.723 0 0 0-.71-.737z"/><path d="M14.155 12.737h-.014c-.393 0-.702.33-.702.736a.73.73 0 0 0 .716.737c.391 0 .709-.33.709-.737a.723.723 0 0 0-.71-.736zm4.254 0h-.014c-.392 0-.702.33-.702.736a.73.73 0 0 0 .716.737c.391 0 .709-.33.709-.737a.723.723 0 0 0-.71-.736z"/><path d="M16.254 9.054c0-3.25-3.18-5.893-7.09-5.893-3.91 0-7.09 2.643-7.09 5.893 0 1.825 1.015 3.53 2.787 4.678.31.2.422.615.259.954l-.128.266.972-.433a.7.7 0 0 1 .503-.022c1.083.376 2.249.483 3.423.421.353-.045.725.288.746.696.021.406-.28.754-.67.775-1.259.075-2.512-.037-3.687-.407l-2.507 1.115a.695.695 0 0 1-.796-.172.757.757 0 0 1-.118-.834l.715-1.485C1.711 13.192.656 11.2.656 9.054c0-4.062 3.816-7.367 8.508-7.367 4.692 0 8.508 3.305 8.508 7.367 0 .309-.019.602-.068.895-.07.401-.431.67-.823.595-.384-.07-.642-.453-.572-.854a3.74 3.74 0 0 0 .045-.636zm0 0c3.91 0 7.09 2.643 7.09 5.892 0 1.687-.888 3.293-2.404 4.407l.912 1.893a.754.754 0 0 1-.12.834.693.693 0 0 1-.794.174l-3.402-1.516c-4.515.713-8.372-2.192-8.372-5.792 0-3.25 3.18-5.892 7.09-5.892zm3.414 9.396a.752.752 0 0 0-.282.968l.33.69-1.812-.81a.705.705 0 0 0-.4-.048c-.435.08-.845.116-1.25.116-3.128 0-5.672-1.983-5.672-4.42 0-2.436 2.544-4.42 5.672-4.42 3.128 0 5.672 1.984 5.672 4.42 0 1.374-.823 2.65-2.258 3.504zM6.356 6.107h-.014c-.391 0-.702.33-.702.737a.73.73 0 0 0 .716.736c.391 0 .709-.33.709-.736a.723.723 0 0 0-.709-.737zm5.672 0h-.014c-.392 0-.702.33-.702.737a.73.73 0 0 0 .716.736c.391 0 .709-.33.709-.736a.723.723 0 0 0-.71-.737zm2.127 6.63h-.014c-.393 0-.702.33-.702.736a.73.73 0 0 0 .716.737c.391 0 .709-.33.709-.737a.723.723 0 0 0-.71-.736zm4.254 0h-.014c-.392 0-.702.33-.702.736a.73.73 0 0 0 .716.737c.391 0 .709-.33.709-.737a.723.723 0 0 0-.71-.736z"/>
</symbol>
<symbol id="whatsapp" viewBox="0 0 24 24"><path d="M22 11.742c0 5.381-4.395 9.743-9.818 9.743a9.835 9.835 0 0 1-4.746-1.212L2 22l1.772-5.227a9.64 9.64 0 0 1-1.409-5.03C2.363 6.361 6.76 2 12.182 2 17.605 2 22 6.362 22 11.742zm-9.818-8.19c-4.552 0-8.255 3.674-8.255 8.19 0 1.793.584 3.452 1.573 4.803l-1.032 3.042 3.172-1.009a8.25 8.25 0 0 0 4.542 1.355c4.551 0 8.255-3.674 8.255-8.19 0-4.517-3.703-8.191-8.255-8.191zm4.958 10.434c-.06-.1-.221-.16-.462-.278-.24-.12-1.424-.698-1.644-.777-.22-.08-.382-.12-.542.12-.16.238-.621.776-.762.935-.14.16-.28.18-.522.06-.24-.119-1.015-.371-1.935-1.185-.715-.633-1.198-1.414-1.339-1.653-.14-.24-.014-.368.106-.487.108-.107.24-.279.361-.418.12-.14.16-.24.24-.399.081-.16.041-.298-.02-.418-.06-.12-.541-1.295-.742-1.773-.2-.478-.4-.398-.541-.398-.14 0-.3-.02-.461-.02-.16 0-.422.06-.642.299-.22.239-.842.816-.842 1.991 0 1.175.862 2.31.982 2.47.12.159 1.665 2.649 4.111 3.605 2.447.956 2.447.637 2.889.597.44-.04 1.423-.578 1.625-1.135.2-.558.2-1.036.14-1.136z"/>
</symbol>
<symbol id="youtube" viewBox="0 0 24 24"><path fill-rule="evenodd" d="M21.39 4.114a3.007 3.007 0 0 1 2.116 2.115c.514 1.878.494 5.792.494 5.792s0 3.895-.494 5.773a3.007 3.007 0 0 1-2.116 2.115c-1.878.495-9.39.495-9.39.495s-7.493 0-9.39-.514a3.007 3.007 0 0 1-2.116-2.116C0 15.916 0 12.001 0 12.001S0 8.107.494 6.23A3.068 3.068 0 0 1 2.61 4.094C4.488 3.6 12 3.6 12 3.6s7.513 0 9.391.514zm-5.535 7.888L9.608 15.6V8.404l6.247 3.598z" clip-rule="evenodd"/>
</symbol></svg>
