<svg xmlns="http://www.w3.org/2000/svg" viewBox="0 0 24 24"><path d="M21.287 10.519c-.407 0-.853.303-.853 1.03h1.667c0-.727-.42-1.03-.814-1.03zm-5.335 3.131c-.381 0-.607-.135-.762-.302l-.007-2.391c.168-.187.4-.316.769-.316.588 0 .995.658.995 1.502 0 .863-.4 1.508-.995 1.508z"/><path fill-rule="evenodd" d="M2.813 3A2.813 2.813 0 0 0 0 5.813v12.375A2.813 2.813 0 0 0 2.813 21h18.375A2.813 2.813 0 0 0 24 18.187V5.813A2.813 2.813 0 0 0 21.187 3H2.813zm18.48 6.21c1.531 0 2.332 1.302 2.332 2.952 0 .09-.004.238-.008.364l-.005.21h-3.159c.072.76.627.98 1.254.98.64 0 1.143-.136 1.582-.355v1.289c-.44.245-1.02.419-1.79.419-1.575 0-2.673-.98-2.673-2.92 0-1.637.93-2.939 2.467-2.939zm-4.953 0c-.633 0-1.04.297-1.267.503l-.084-.4h-1.42v7.515l1.614-.341.007-1.824c.232.167.575.406 1.143.406 1.156 0 2.21-.928 2.21-2.971-.007-1.87-1.073-2.888-2.203-2.888zm-3.376-2.038V8.48l-1.621.348V7.513l1.621-.341zm0 2.141h-1.621v5.64h1.621v-5.64zm-3.462.01l.103.476c.381-.696 1.137-.554 1.344-.477v1.483c-.2-.071-.846-.162-1.227.335v3.821H8.107V9.322h1.395zM6.374 7.918l-1.576.335-.007 5.162c0 .954.717 1.656 1.673 1.656.53 0 .918-.096 1.13-.212V13.55c-.206.084-1.227.38-1.227-.573V10.69h1.228V9.317H6.367l.007-1.398zm-3.816 2.69c-.342 0-.549.097-.549.348 0 .274.356.395.797.545.72.244 1.667.565 1.67 1.756 0 1.153-.923 1.817-2.267 1.817a4.5 4.5 0 0 1-1.763-.367v-1.534c.543.296 1.227.516 1.763.516.362 0 .62-.097.62-.394 0-.304-.385-.442-.85-.61-.71-.256-1.604-.578-1.604-1.652 0-1.14.872-1.824 2.183-1.824.536 0 1.066.084 1.602.297v1.514a3.608 3.608 0 0 0-1.602-.412z" clip-rule="evenodd"/></svg>