<svg xmlns="http://www.w3.org/2000/svg" viewBox="0 0 24 24"><g clip-path="url(#clip0_2828_7745)"><path d="M23.455 0H.545A.545.545 0 0 0 0 .545v22.91c0 .301.244.545.545.545h22.91a.545.545 0 0 0 .545-.545V.545A.545.545 0 0 0 23.455 0zm-.546 12v10.91H1.09V1.09h21.82V12z"/><path d="M12 1.09C5.985 1.09 1.09 5.986 1.09 12c0 6.015 4.895 10.91 10.91 10.91 6.015 0 10.91-4.895 10.91-10.91 0-6.015-4.895-10.91-10.91-10.91zm0 20.728c-5.414 0-9.818-4.404-9.818-9.818S6.586 2.182 12 2.182 21.818 6.586 21.818 12 17.413 21.818 12 21.818z"/><path d="M12 13.09a1.09 1.09 0 1 0 0-2.18 1.09 1.09 0 0 0 0 2.18z"/></g><defs><clipPath id="clip0_2828_7745"><path d="M0 0h24v24H0z"/></clipPath></defs></svg>