<svg xmlns="http://www.w3.org/2000/svg" viewBox="0 0 24 24"><path d="M21.796 13.736c.65-5.52-.313-9.005-2.051-10.58v-.002C16.94.463 7.466.064 4.11 3.275c-1.507 1.57-2.038 3.876-2.096 6.73-.058 2.855-.127 8.202 4.819 9.653h.005l-.005 2.215s-.034.898.535 1.078c.651.213.946-.204 2.97-2.64 3.386.296 5.986-.382 6.281-.48.684-.232 4.552-.747 5.178-6.095zM10.67 18.752s-2.143 2.692-2.809 3.39c-.218.228-.457.207-.454-.244 0-.296.017-3.678.017-3.678-4.194-1.21-3.947-5.764-3.901-8.146.045-2.383.478-4.335 1.754-5.65 2.945-2.78 11.251-2.159 13.368-.155 2.587 2.31 1.666 8.839 1.671 9.061-.531 4.464-3.666 4.747-4.242 4.94-.247.083-2.533.675-5.404.482z"/><path d="M11.857 4.947c-.35 0-.35.55 0 .555 2.715.02 4.951 1.927 4.976 5.425 0 .37.536.365.532-.005-.03-3.768-2.472-5.953-5.508-5.975z"/><path d="M15.429 10.347c-.009.365.527.382.531.013.045-2.078-1.227-3.79-3.617-3.97-.35-.026-.386.528-.037.554 2.073.158 3.164 1.583 3.123 3.403zm-.573 2.363c-.45-.261-.906-.098-1.095.16l-.396.515c-.2.262-.576.227-.576.227-2.74-.73-3.473-3.618-3.473-3.618s-.034-.391.217-.601l.495-.412c.247-.198.403-.674.152-1.142-.673-1.225-1.125-1.647-1.355-1.971-.242-.305-.605-.374-.984-.168h-.008c-.786.463-1.647 1.33-1.372 2.224.47.941 1.334 3.942 4.087 6.21 1.293 1.073 3.34 2.172 4.21 2.425l.008.013c.856.288 1.69-.613 2.134-1.43v-.006c.197-.395.132-.768-.157-1.013-.51-.502-1.281-1.056-1.887-1.412z"/><path d="M12.718 8.434c.873.051 1.297.511 1.342 1.455.017.37.548.344.532-.025-.058-1.233-.696-1.92-1.845-1.984-.35-.021-.383.533-.03.554z"/></svg>