<svg xmlns="http://www.w3.org/2000/svg" viewBox="0 0 24 24"><path d="M19.789 2.005c-3.051-.115-5.112 1.702-6.199 5.423a3.828 3.828 0 0 1 1.63-.376c1.117 0 1.61.664 1.478 1.983-.066.799-.557 1.96-1.477 3.489-.925 1.529-1.616 2.294-2.076 2.294-1.395 0-2.234-6.937-2.518-8.831-.395-2.633-1.449-3.865-3.16-3.692C5.896 2.45 3.154 5.389 1 7.38l1.035 1.402c.985-.726 1.56-1.09 1.724-1.09 1.715 0 2.546 6.064 3.878 10.574C8.53 20.755 9.602 22 10.893 22c2.076 0 4.604-2.042 7.6-6.127 2.892-3.912 4.39-6.995 4.486-9.243l.011-.01c.123-3.014-.935-4.557-3.201-4.615z"/></svg>