<svg xmlns="http://www.w3.org/2000/svg" viewBox="0 0 24 24"><g fill-rule="evenodd" clip-rule="evenodd"><path d="M5 8.876a1 1 0 0 0-1 1v4.25a1 1 0 0 0 1 1h1.438a1 1 0 1 1 0 2H5a3 3 0 0 1-3-3v-4.25a3 3 0 0 1 3-3h1.438a1 1 0 1 1 0 2H5z"/><path d="M13 3.94a.3.3 0 0 0-.502-.223L7.11 8.616l-1.345-1.48 5.388-4.899C12.63.894 15 1.943 15 3.94v16.123c0 1.997-2.37 3.045-3.847 1.702l-5.388-4.898 1.345-1.48 5.388 4.898a.3.3 0 0 0 .502-.222V3.939zm3.043 5.291a1 1 0 0 1 1.414 0l4.125 4.125a1 1 0 0 1-1.414 1.414l-4.125-4.125a1 1 0 0 1 0-1.414z"/><path d="M21.582 9.231a1 1 0 0 0-1.414 0l-4.125 4.125a1 1 0 0 0 1.414 1.414l4.125-4.125a1 1 0 0 0 0-1.414z"/></g></svg>