<svg xmlns="http://www.w3.org/2000/svg" viewBox="0 0 24 24"><path d="M2 10c0-1.1.9-2 2-2h2.3c.5 0 .9-.2 1.2-.4l2.8-2.3c.7-.5 1.7-.1 1.7.8v11.8c0 .8-1 1.3-1.6.8l-2.8-2.3c-.4-.2-.8-.4-1.3-.4H4c-1.1 0-2-.9-2-2v-4zm13 7c-.3 0-.5-.1-.7-.3-.4-.4-.4-1 0-1.4 0 0 1.2-1.3 1.2-3.3 0-2-1.2-3.2-1.2-3.3-.4-.4-.4-1 0-1.4.4-.4 1-.4 1.4 0 .1.1 1.8 1.8 1.8 4.7 0 2.9-1.7 4.6-1.8 4.7-.2.2-.4.3-.7.3z"/><path d="M18 21c-.3 0-.5-.1-.7-.3-.4-.4-.4-1 0-1.4 0 0 2.9-2.8 2.9-7.3s-2.9-7.2-2.9-7.3c-.4-.4-.4-1 0-1.4.4-.4 1-.4 1.4 0 .1.1 3.5 3.4 3.5 8.7 0 5.4-3.4 8.6-3.5 8.7-.2.2-.5.3-.7.3z"/></svg>