<svg xmlns="http://www.w3.org/2000/svg" viewBox="0 0 24 24"><path fill-rule="evenodd" d="M4.25 3.25a1 1 0 0 0-1 1v15.5a1 1 0 0 0 1 1h15.5a1 1 0 0 0 1-1v-3.17c-.313.11-.65.17-1 .17H14a3 3 0 0 1-3-3v-3.5a3 3 0 0 1 3-3h5.75c.35 0 .687.06 1 .17V4.25a1 1 0 0 0-1-1H4.25zm18.5 1a3 3 0 0 0-3-3H4.25a3 3 0 0 0-3 3v15.5a3 3 0 0 0 3 3h15.5a3 3 0 0 0 3-3V4.25zm-2 6a1 1 0 0 0-1-1H14a1 1 0 0 0-1 1v3.5a1 1 0 0 0 1 1h5.75a1 1 0 0 0 1-1v-3.5zm-5 2a.25.25 0 1 0 0-.5.25.25 0 0 0 0 .5zM14 12a1.75 1.75 0 1 1 3.5 0 1.75 1.75 0 0 1-3.5 0z" clip-rule="evenodd"/></svg>