<svg xmlns="http://www.w3.org/2000/svg" viewBox="0 0 24 24"><g clip-path="url(#clip0_2828_7716)"><path d="M12 13a1 1 0 1 0 0-2 1 1 0 0 0 0 2z"/><path d="M23.598 4.01a.504.504 0 0 0-.588.393l-.688 3.437c-.29-.15-.521-.389-.785-.677-.474-.518-1.065-1.162-2.202-1.162s-1.726.644-2.201 1.162c-.428.468-.767.838-1.462.838-.696 0-1.034-.37-1.463-.838-.474-.518-1.065-1.162-2.202-1.162-1.136 0-1.726.644-2.2 1.162-.43.468-.769.838-1.465.838-.697 0-1.037-.37-1.467-.838C6.401 6.645 5.81 6 4.671 6c-1.137 0-1.728.644-2.203 1.162-.265.289-.496.529-.79.678L.991 4.403a.5.5 0 1 0-.98.196l2.758 13.793A2.006 2.006 0 0 0 4.729 20h14.542c.949 0 1.774-.677 1.96-1.608l2.76-13.793a.5.5 0 0 0-.393-.588zM20.25 18.197a1.004 1.004 0 0 1-.98.804H4.73c-.475 0-.887-.338-.98-.804L1.877 8.84c.59-.218.981-.626 1.327-1.002C3.635 7.37 3.974 7 4.67 7c.699 0 1.038.37 1.468.838C6.613 8.356 7.204 9 8.341 9c1.137 0 1.728-.645 2.202-1.163.429-.468.767-.837 1.463-.837.696 0 1.035.37 1.465.838.473.517 1.064 1.162 2.2 1.162 1.136 0 1.726-.645 2.2-1.162.429-.469.767-.838 1.463-.838.696 0 1.035.37 1.465.838.344.376.734.784 1.322 1.002l-1.87 9.355z"/></g><defs><clipPath id="clip0_2828_7716"><path d="M0 0h24v24H0z"/></clipPath></defs></svg>