<svg xmlns="http://www.w3.org/2000/svg" viewBox="0 0 24 24"><path d="M9.164 1.688C4.472 1.688.656 4.992.656 9.053c0 2.146 1.055 4.138 2.917 5.552l-.715 1.485a.757.757 0 0 0 .118.834.697.697 0 0 0 .796.172l2.507-1.115c1.175.37 2.428.482 3.686.407.392-.02.692-.369.67-.775-.02-.408-.392-.741-.745-.696-1.174.062-2.34-.045-3.423-.42a.7.7 0 0 0-.503.021l-.972.433.128-.266a.752.752 0 0 0-.26-.954c-1.77-1.149-2.786-2.853-2.786-4.678 0-3.25 3.18-5.893 7.09-5.893 3.91 0 7.09 2.643 7.09 5.893 0 .22-.01.428-.046.636-.069.4.19.784.573.854.392.076.753-.194.823-.595.05-.293.068-.586.068-.895 0-4.062-3.816-7.367-8.508-7.367z"/><path d="M20.94 19.353c1.516-1.114 2.404-2.72 2.404-4.407 0-3.25-3.18-5.892-7.09-5.892-3.91 0-7.09 2.643-7.09 5.892 0 3.6 3.857 6.505 8.372 5.792l3.401 1.516a.693.693 0 0 0 .795-.174.754.754 0 0 0 .12-.834l-.912-1.893zm-1.272-.903a.752.752 0 0 0-.282.968l.33.69-1.812-.81a.705.705 0 0 0-.4-.048c-.435.08-.845.116-1.25.116-3.128 0-5.672-1.983-5.672-4.42 0-2.436 2.544-4.42 5.672-4.42 3.128 0 5.672 1.984 5.672 4.42 0 1.374-.823 2.65-2.258 3.504zM6.356 6.107h-.014c-.391 0-.702.33-.702.737a.73.73 0 0 0 .716.736c.391 0 .709-.33.709-.736a.723.723 0 0 0-.709-.737zm5.672 0h-.014c-.392 0-.702.33-.702.737a.73.73 0 0 0 .716.736c.391 0 .709-.33.709-.736a.723.723 0 0 0-.71-.737z"/><path d="M14.155 12.737h-.014c-.393 0-.702.33-.702.736a.73.73 0 0 0 .716.737c.391 0 .709-.33.709-.737a.723.723 0 0 0-.71-.736zm4.254 0h-.014c-.392 0-.702.33-.702.736a.73.73 0 0 0 .716.737c.391 0 .709-.33.709-.737a.723.723 0 0 0-.71-.736z"/><path d="M16.254 9.054c0-3.25-3.18-5.893-7.09-5.893-3.91 0-7.09 2.643-7.09 5.893 0 1.825 1.015 3.53 2.787 4.678.31.2.422.615.259.954l-.128.266.972-.433a.7.7 0 0 1 .503-.022c1.083.376 2.249.483 3.423.421.353-.045.725.288.746.696.021.406-.28.754-.67.775-1.259.075-2.512-.037-3.687-.407l-2.507 1.115a.695.695 0 0 1-.796-.172.757.757 0 0 1-.118-.834l.715-1.485C1.711 13.192.656 11.2.656 9.054c0-4.062 3.816-7.367 8.508-7.367 4.692 0 8.508 3.305 8.508 7.367 0 .309-.019.602-.068.895-.07.401-.431.67-.823.595-.384-.07-.642-.453-.572-.854a3.74 3.74 0 0 0 .045-.636zm0 0c3.91 0 7.09 2.643 7.09 5.892 0 1.687-.888 3.293-2.404 4.407l.912 1.893a.754.754 0 0 1-.12.834.693.693 0 0 1-.794.174l-3.402-1.516c-4.515.713-8.372-2.192-8.372-5.792 0-3.25 3.18-5.892 7.09-5.892zm3.414 9.396a.752.752 0 0 0-.282.968l.33.69-1.812-.81a.705.705 0 0 0-.4-.048c-.435.08-.845.116-1.25.116-3.128 0-5.672-1.983-5.672-4.42 0-2.436 2.544-4.42 5.672-4.42 3.128 0 5.672 1.984 5.672 4.42 0 1.374-.823 2.65-2.258 3.504zM6.356 6.107h-.014c-.391 0-.702.33-.702.737a.73.73 0 0 0 .716.736c.391 0 .709-.33.709-.736a.723.723 0 0 0-.709-.737zm5.672 0h-.014c-.392 0-.702.33-.702.737a.73.73 0 0 0 .716.736c.391 0 .709-.33.709-.736a.723.723 0 0 0-.71-.737zm2.127 6.63h-.014c-.393 0-.702.33-.702.736a.73.73 0 0 0 .716.737c.391 0 .709-.33.709-.737a.723.723 0 0 0-.71-.736zm4.254 0h-.014c-.392 0-.702.33-.702.736a.73.73 0 0 0 .716.737c.391 0 .709-.33.709-.737a.723.723 0 0 0-.71-.736z"/></svg>